<svg width="49" height="48" viewBox="0 0 49 48" fill="none" xmlns="http://www.w3.org/2000/svg">
<rect x="4.5" y="4" width="40" height="40" rx="12" fill="url(#paint0_linear_2021_12278)"/>
<path fill-rule="evenodd" clip-rule="evenodd" d="M37.7875 29.3044C38.3823 28.265 38.7222 27.0611 38.7222 25.7777C38.7222 21.8504 35.5385 18.6666 31.6111 18.6666C27.6838 18.6666 24.5 21.8504 24.5 25.7777C24.5 29.7051 27.6838 32.8888 31.6111 32.8888C33.4061 32.8888 35.0457 32.2238 36.2971 31.1267L38.4827 31.6514L37.7875 29.3044Z" fill="white"/>
<path fill-rule="evenodd" clip-rule="evenodd" d="M26.8227 31.0351C28.9245 29.4093 30.2778 26.8627 30.2778 23.9999C30.2778 22.2364 29.7642 20.5928 28.8785 19.2106C26.3074 20.2816 24.5 22.8186 24.5 25.7777C24.5 27.8607 25.3956 29.7345 26.8227 31.0351Z" fill="#E6F2FF"/>
<path fill-rule="evenodd" clip-rule="evenodd" d="M19.1667 32.8889C24.0759 32.8889 28.0555 28.9092 28.0555 24C28.0555 19.0908 24.0759 15.1111 19.1667 15.1111C14.2575 15.1111 10.2778 19.0908 10.2778 24C10.2778 25.5859 10.6931 27.0749 11.421 28.364L10.4474 31.6515L13.5657 30.9026C15.0944 32.1446 17.0436 32.8889 19.1667 32.8889Z" fill="#F8F8F8"/>
<defs>
<linearGradient id="paint0_linear_2021_12278" x1="41.0625" y1="6.1875" x2="7.46875" y2="41.1875" gradientUnits="userSpaceOnUse">
<stop stop-color="#007AFF"/>
<stop offset="1" stop-color="#0058B7"/>
</linearGradient>
</defs>
</svg>
