<svg width="466" height="395" viewBox="0 0 466 395" fill="none" xmlns="http://www.w3.org/2000/svg">
<path d="M54.2583 29.2801C-5.40316 78.9753 -18.6461 202.394 33.0969 261.236C44.4285 274.07 58.6271 284.309 74.3275 290.999C90.574 297.825 102.725 294.002 119.654 293.866C143.955 293.593 151.191 318.167 162.659 334.55C177.814 355.985 199.931 372.914 224.096 382.88C351.883 435.169 487.453 294.412 463.151 168.126C454.414 122.527 431.614 91.6721 389.018 72.0125C352.429 55.0834 311.472 50.305 271.197 46.8919C253.312 45.3901 233.243 43.6153 217.815 33.3759C211.262 29.0071 202.78 22.4592 196.5 18.5C189.947 14.4042 183.957 10.7127 176.585 7.70915C164.571 2.93077 151.737 0.47332 138.767 0.063745C113.51 -0.755406 87.98 6.3439 66.6821 19.9964C62.5864 22.8634 58.3541 26.0035 54.2583 29.2801Z" fill="#E6F2FF"/>
<path d="M312.22 298.22C355.891 254.549 355.891 183.744 312.22 140.073C268.549 96.4024 197.744 96.4024 154.073 140.073C110.402 183.744 110.402 254.549 154.073 298.22C197.744 341.891 268.549 341.891 312.22 298.22Z" fill="#007AFF"/>
<path d="M336.54 218.681C336.54 227.676 335.332 236.536 333.184 244.859C324.323 278.69 298.817 305.673 265.792 316.547C255.589 319.903 244.715 321.783 233.438 321.783C221.356 321.783 209.677 319.769 198.937 315.876C192.627 313.728 186.586 310.909 180.948 307.553C180.545 307.284 180.008 307.016 179.605 306.747C178.128 305.807 176.786 305.002 175.444 304.062C174.907 303.794 174.504 303.391 174.101 303.123C173.161 302.451 172.222 301.78 171.282 301.109C171.013 300.84 170.745 300.706 170.476 300.438C170.074 300.169 169.805 299.901 169.402 299.632C168.865 299.229 168.463 298.827 167.926 298.424C167.523 298.021 167.12 297.753 166.717 297.35C165.644 296.41 164.704 295.605 163.764 294.665C163.227 294.262 162.824 293.725 162.287 293.323C161.885 292.92 161.482 292.517 161.079 292.249C160.542 291.712 160.139 291.309 159.602 290.772C159.2 290.369 158.931 290.101 158.528 289.698C157.052 288.221 155.709 286.61 154.367 285.133C154.098 284.865 153.964 284.596 153.696 284.328C147.923 277.347 143.09 269.561 139.331 261.103V260.969C138.391 258.955 137.586 256.807 136.78 254.659C136.646 254.257 136.512 253.988 136.378 253.585C136.243 253.183 136.109 252.78 135.975 252.377C135.572 251.169 135.169 249.826 134.767 248.618C134.767 248.484 134.632 248.216 134.632 248.081C134.498 247.813 134.498 247.544 134.364 247.41C134.23 246.739 133.961 245.933 133.827 245.262C133.693 244.859 133.558 244.322 133.424 243.92C133.29 243.383 133.156 242.98 133.021 242.443C133.021 242.309 133.021 242.309 133.021 242.174C132.887 241.235 132.619 240.429 132.485 239.489C132.35 238.952 132.216 238.415 132.216 237.744C131.679 234.791 131.276 231.703 131.008 228.615C131.008 228.481 131.008 228.481 131.008 228.347C130.874 227.541 130.874 226.736 130.874 225.931C130.739 223.648 130.605 221.232 130.605 218.95C130.605 216.667 130.739 214.52 130.874 212.237C131.008 209.955 131.276 207.673 131.545 205.391C131.679 204.854 131.679 204.317 131.813 203.78C132.216 201.095 132.753 198.544 133.29 195.993C134.095 192.771 134.901 189.415 135.975 186.328C137.317 182.434 138.794 178.541 140.539 174.917C145.104 165.385 151.011 156.659 157.991 149.007C159.065 147.933 160.005 146.859 161.079 145.785C162.153 144.711 163.227 143.637 164.301 142.697L165.375 141.758C165.778 141.489 166.181 141.086 166.449 140.818C170.342 137.462 174.504 134.508 178.8 131.689L178.934 131.555C180.008 130.884 181.082 130.212 182.022 129.675C182.022 129.675 182.022 129.675 182.156 129.675C182.827 129.273 183.498 128.87 184.304 128.467C184.707 128.333 185.109 128.064 185.378 127.93C186.855 127.125 188.331 126.319 189.942 125.648C190.748 125.245 191.419 124.977 192.224 124.574C192.627 124.44 193.03 124.306 193.433 124.037C193.835 123.903 194.238 123.634 194.775 123.5C195.178 123.366 195.581 123.232 195.849 123.097C202.964 120.278 210.482 118.264 218.268 117.19C223.235 116.385 228.337 116.116 233.573 116.116C246.594 116.116 259.079 118.533 270.49 122.963C272.773 123.769 274.921 124.708 277.069 125.782C277.606 126.051 278.008 126.185 278.545 126.453C281.633 127.93 284.721 129.675 287.674 131.555C288.211 131.823 288.748 132.226 289.285 132.629C289.419 132.629 289.419 132.763 289.554 132.763C289.822 132.897 289.956 133.032 290.225 133.166C291.299 133.837 292.373 134.508 293.312 135.314C293.849 135.717 294.252 135.985 294.789 136.388C295.326 136.79 295.729 137.059 296.266 137.462C296.669 137.73 296.937 137.999 297.34 138.267C297.743 138.67 298.28 138.938 298.682 139.341C299.219 139.744 299.756 140.281 300.293 140.684C300.428 140.818 300.562 140.952 300.696 141.086C301.099 141.489 301.636 141.892 302.038 142.295C302.307 142.429 302.441 142.697 302.71 142.966C303.247 143.369 303.649 143.906 304.186 144.308C304.858 144.98 305.529 145.651 306.2 146.322C306.603 146.591 306.871 146.993 307.14 147.396C307.811 148.067 308.482 148.738 309.154 149.41C309.825 150.081 310.362 150.752 311.033 151.558C315.732 156.928 319.893 162.7 323.384 169.01C323.787 169.815 324.324 170.621 324.726 171.56C325.129 172.366 325.666 173.306 326.069 174.111C326.471 174.782 326.74 175.588 327.143 176.259C327.277 176.528 327.411 176.796 327.545 177.065C327.948 177.87 328.217 178.541 328.485 179.347C328.888 180.287 329.291 181.092 329.559 182.032C329.693 182.434 329.828 182.703 329.962 183.106C330.096 183.508 330.23 183.777 330.365 184.18C330.499 184.582 330.633 184.851 330.767 185.254C331.036 185.925 331.17 186.462 331.439 187.133C331.573 187.67 331.707 188.073 331.841 188.61C332.11 189.415 332.244 190.087 332.513 190.892C332.781 191.698 333.05 192.503 333.184 193.443C333.318 193.711 333.318 193.98 333.452 194.382C333.587 195.188 333.855 195.993 333.989 196.665C334.124 197.067 334.124 197.47 334.258 197.739V197.873C334.392 198.544 334.526 199.35 334.661 200.021C334.795 200.692 334.929 201.229 335.063 201.9C335.197 202.437 335.197 202.974 335.332 203.511C335.332 203.914 335.466 204.317 335.466 204.719C335.466 204.988 335.6 205.256 335.6 205.525C335.6 205.928 335.734 206.33 335.734 206.733C336.271 210.224 336.54 214.52 336.54 218.681Z" fill="#E6F2FF"/>
<g opacity="0.4">
<path d="M310.63 289.027C304.455 295.873 297.608 301.78 290.225 306.747C260.422 326.482 222.43 329.703 189.942 315.608C179.874 311.312 170.342 305.27 161.616 297.484C152.353 289.295 144.969 279.764 139.331 269.427C134.901 261.506 131.679 253.048 129.531 244.322C128.323 239.355 127.383 234.254 126.846 229.152C131.276 231.837 135.975 234.657 140.942 237.744C244.984 303.123 315.463 235.462 336.943 209.552C338.285 224.991 336.271 240.698 330.633 255.599C326.337 267.547 319.625 278.958 310.63 289.027Z" fill="#007AFF"/>
</g>
<path d="M335.6 204.988C335.6 204.72 335.466 204.451 335.466 204.183C335.466 203.78 335.332 203.377 335.332 202.974C335.198 202.437 335.198 201.9 335.063 201.363C334.929 200.692 334.795 200.155 334.661 199.484C334.526 198.813 334.392 198.007 334.258 197.336V197.202C334.124 196.799 334.124 196.396 333.989 196.128C333.855 195.322 333.587 194.517 333.452 193.846C333.318 193.577 333.318 193.174 333.184 192.906C332.915 192.1 332.781 191.161 332.513 190.355C332.244 189.55 332.11 188.878 331.841 188.073C331.707 187.536 331.573 187.133 331.439 186.596C331.304 185.925 331.036 185.388 330.767 184.717C330.633 184.314 330.499 184.045 330.365 183.643C330.23 183.24 330.096 182.972 329.962 182.569C329.828 182.166 329.693 181.898 329.559 181.495C329.156 180.555 328.888 179.75 328.485 178.81C328.217 178.004 327.814 177.333 327.545 176.528C327.411 176.259 327.277 175.991 327.143 175.722C326.874 175.051 326.471 174.245 326.069 173.574C325.666 172.769 325.263 171.829 324.726 171.024C324.324 170.218 323.787 169.278 323.384 168.473C319.893 162.163 315.732 156.391 311.033 151.021C310.362 150.349 309.825 149.544 309.154 148.873C308.482 148.202 307.811 147.53 307.14 146.859C306.871 146.456 306.469 146.188 306.2 145.785C305.529 145.114 304.858 144.443 304.186 143.771C303.649 143.369 303.247 142.832 302.71 142.429C302.441 142.16 302.307 142.026 302.039 141.758C301.636 141.355 301.099 140.952 300.696 140.549C300.562 140.415 300.428 140.281 300.293 140.147C299.756 139.744 299.219 139.207 298.682 138.804C298.28 138.402 297.743 138.133 297.34 137.73C296.937 137.462 296.669 137.193 296.266 136.925C295.729 136.522 295.326 136.119 294.789 135.851C294.252 135.448 293.849 135.18 293.312 134.777C292.641 135.314 292.238 135.851 290.896 135.717C290.762 135.717 290.762 135.717 290.628 135.851C290.493 135.985 290.225 136.388 290.091 136.656C289.822 136.254 289.688 135.985 289.419 135.582C288.211 136.791 286.197 136.656 284.452 136.656C284.318 137.059 284.184 137.328 284.184 137.73C283.11 137.193 282.304 136.791 281.499 136.388C282.036 136.119 282.573 135.985 282.975 135.851C282.304 134.24 280.962 134.643 279.351 134.643C279.754 134.911 280.022 135.18 280.156 135.314C280.022 135.448 279.754 135.717 279.619 135.717C279.888 136.119 280.693 136.925 280.559 137.059C280.559 137.059 278.68 137.059 277.471 137.596C277.471 136.656 277.337 135.985 277.337 135.448C274.518 133.971 270.356 134.777 268.745 134.106C267.537 133.569 266.329 133.569 265.255 132.629C264.986 132.36 263.912 133.3 263.107 132.629C263.107 132.629 262.436 132.897 262.033 133.032C260.556 133.434 259.079 133.971 257.469 133.971C255.858 134.106 254.247 135.045 252.904 135.045C252.501 135.045 251.427 136.119 252.233 136.656C250.353 139.61 246.729 140.684 242.701 141.758C243.775 142.295 241.225 142.832 242.701 143.503C242.433 144.308 241.762 145.382 241.762 145.919C241.896 147.53 246.192 146.993 248.474 146.054C249.011 147.128 249.414 148.067 249.951 149.007C249.548 149.41 249.279 149.544 248.742 149.947C248.34 149.007 247.937 148.202 247.668 147.396C246.729 147.933 245.118 148.47 244.984 148.873C244.715 149.276 245.386 150.886 245.655 152.229C244.178 152.632 242.836 152.9 241.09 153.303C239.882 154.377 238.405 155.719 236.392 156.391C235.72 157.867 234.11 157.867 233.036 158.539C232.633 158.136 232.364 158.002 232.096 157.733C231.827 158.539 231.693 159.21 231.425 159.881C231.022 159.613 230.753 159.344 230.485 159.076C229.679 159.478 228.874 159.881 228.068 160.15C229.277 161.223 230.351 162.297 231.29 163.103C231.156 164.848 231.29 167.13 231.022 167.399C230.351 167.936 223.907 165.654 220.953 168.07C222.027 170.621 220.953 172.903 219.477 174.917C219.745 175.991 220.014 177.87 220.282 178.139C221.222 178.81 224.578 181.763 221.49 183.509C219.611 184.582 218.268 186.462 217.194 188.61C217.463 189.013 218 189.55 218 189.684C217.866 190.892 208.334 199.081 206.186 204.72C207.26 208.747 208.468 212.909 205.649 216.399C205.783 217.07 205.783 217.741 205.918 218.278C206.052 219.487 206.186 220.695 206.455 221.366C207.529 223.38 210.482 226.333 211.69 229.018C211.825 229.287 212.093 229.824 212.362 229.958C215.449 231.435 218.268 237.61 221.759 234.657C222.967 233.583 224.846 233.314 225.92 234.12C229.411 236.67 231.29 231.032 237.6 232.374C238.405 233.583 238.942 234.522 239.614 235.596C240.956 235.596 242.433 235.596 243.91 235.596C244.447 236.67 245.521 237.879 245.521 238.55C246.058 243.92 249.145 254.525 251.427 261.103C251.427 261.103 251.427 261.103 251.427 261.238C251.562 261.64 251.562 262.714 251.159 263.117C247.266 267.816 250.756 273.588 252.77 277.213C253.71 278.958 253.173 282.583 254.784 284.06C256.395 285.536 256.932 287.684 258.542 289.161C258.677 289.295 258.274 289.832 258.005 290.235C258.811 290.906 259.616 291.98 260.153 292.249C261.764 292.92 266.06 291.846 266.463 291.846C266.597 291.846 268.611 291.712 269.416 291.175C271.833 289.832 274.249 287.684 275.592 286.073C276.666 284.865 278.143 283.388 278.143 281.643C279.485 281.106 280.559 280.569 281.633 280.166C281.499 278.153 282.304 276.005 281.096 273.991C282.17 272.783 284.318 272.783 284.586 271.038C284.586 270.903 284.989 270.635 285.123 270.635C287.674 270.635 288.614 268.487 290.091 267.547C290.225 264.996 290.896 261.775 290.493 260.432C290.225 259.895 288.882 259.224 289.151 258.016C289.285 257.479 288.748 256.942 288.748 256.405C288.748 255.868 289.419 255.062 289.151 254.659C288.345 253.317 288.345 252.243 289.285 250.901C290.225 249.692 289.688 247.813 291.03 247.007C291.97 246.336 292.775 245.396 293.581 244.457C294.923 242.711 296.132 240.698 297.743 239.49C303.112 235.596 307.945 222.306 306.737 221.232C306.334 220.963 294.521 227.005 295.46 220.963C300.428 218.815 305.663 217.339 309.825 213.177H311.973C312.644 212.64 312.241 211.163 313.584 211.432C316.269 209.284 318.819 204.183 318.819 202.84C318.685 201.9 312.241 200.424 313.181 196.933C317.074 198.141 325.129 197.604 326.203 197.739C327.411 197.873 331.707 203.377 333.587 206.599C333.989 206.33 334.661 205.928 335.198 205.659C335.735 205.794 335.6 205.391 335.6 204.988ZM281.767 162.297C281.767 162.969 281.767 163.506 281.767 164.311C280.693 164.311 279.754 164.311 278.277 164.311C279.754 163.506 280.693 162.969 281.767 162.297ZM276.666 138.402C276.666 138.804 276.666 139.341 276.666 140.012C275.995 139.744 275.458 139.61 274.786 139.475C274.518 139.744 274.115 140.012 273.578 140.415C273.31 139.744 273.041 139.073 272.638 138.402C273.981 138.402 275.189 138.402 276.666 138.402ZM272.907 163.908C273.981 163.908 274.921 163.908 275.995 163.908C275.592 164.177 275.458 164.445 275.189 164.714C275.995 165.251 276.934 165.922 277.874 166.593C278.277 166.191 278.68 165.654 279.082 165.385C280.693 164.58 283.647 166.459 285.929 167.802C286.332 168.07 286.734 168.204 287.003 168.339C287.943 168.741 288.211 169.815 287.808 171.024C286.734 170.889 285.526 171.024 284.452 171.024C282.975 171.024 281.633 170.755 280.156 169.815C279.217 169.144 277.471 169.547 276.263 169.413C275.726 169.95 275.323 170.352 274.786 170.889C272.773 171.158 271.027 170.621 269.551 169.01C270.893 167.265 271.967 165.519 272.907 163.908ZM252.367 150.349C253.71 149.678 254.918 149.141 256.126 148.604C255.723 148.067 255.589 147.799 255.186 147.396C255.992 146.725 256.797 145.919 257.871 145.114C257.334 144.845 256.932 144.577 256.395 144.174C256.395 143.771 256.395 143.234 256.529 142.429C258.005 141.355 259.482 140.281 261.496 138.938H264.047C262.301 140.012 259.751 141.221 259.482 141.758C259.079 142.697 263.912 145.114 263.912 145.248C263.912 145.248 260.422 149.276 258.945 151.826C257.468 151.826 256.663 150.484 255.052 151.558C254.515 151.96 252.904 153.034 251.83 151.692C251.83 151.155 252.099 150.618 252.367 150.349ZM229.277 178.81C230.351 177.602 231.425 176.393 232.633 175.051C232.633 175.051 232.364 174.648 232.096 174.245C233.17 171.561 236.123 171.158 237.6 169.144C237.466 168.876 236.66 168.204 236.66 168.07C236.66 168.07 244.178 166.191 245.521 166.325C246.46 166.325 247.4 170.889 250.756 170.889C251.83 172.097 252.904 173.306 253.978 174.514C253.844 174.648 253.441 175.051 252.904 175.588C251.696 175.588 248.608 175.319 248.474 175.588C248.474 175.588 251.159 177.736 253.173 178.81C253.038 176.393 255.455 175.722 255.723 173.708C255.589 173.44 255.321 173.037 254.784 172.098C255.858 172.5 256.932 173.037 257.066 172.903C257.469 172.634 249.145 165.117 250.085 164.445C250.353 164.311 253.978 168.473 256.663 168.607C257.066 168.607 258.005 169.547 258.005 169.95C257.871 172.903 260.959 175.185 262.301 178.273C262.704 178.273 263.241 178.273 264.047 178.273C264.181 177.602 264.315 176.796 264.315 176.125C264.718 176.393 265.121 176.528 266.195 177.065C265.121 175.051 264.315 173.843 263.51 172.366C264.584 171.963 265.792 171.561 267.269 171.024C267.269 172.769 267.269 174.245 267.269 175.588C269.148 176.125 270.222 177.467 270.893 179.078C271.967 177.87 273.175 180.018 274.115 178.944C275.458 177.333 276.263 179.615 277.471 179.213C278.277 178.944 279.082 178.81 280.022 178.676C280.425 178.676 280.827 178.541 281.23 178.407C281.633 181.226 281.499 186.328 280.291 187.133C279.351 187.804 276.397 187.804 273.175 187.402C270.893 187.133 268.477 186.596 266.463 185.791C264.718 185.119 262.838 184.18 260.288 184.851C260.019 185.925 259.616 187.133 259.214 188.744C257.066 187.267 253.978 187.402 252.501 184.717C251.427 184.717 250.219 184.717 249.279 184.717C248.34 183.777 247.534 182.837 246.997 182.3C247.266 180.689 247.937 178.004 247.668 177.602C247.534 177.333 245.655 176.796 245.252 176.93C240.419 179.213 235.318 176.393 229.277 180.958C227.8 180.287 226.86 180.018 225.249 180.152C226.189 178.273 227.8 179.078 229.277 178.81ZM280.827 242.711C282.304 244.457 280.693 245.531 280.425 246.873C279.619 246.873 278.545 247.007 278.411 246.873C277.74 246.47 279.485 244.188 280.827 242.711ZM294.923 220.963C294.923 220.963 291.97 217.205 290.762 215.996C289.151 214.385 289.151 210.626 286.466 210.089C287.271 204.988 283.647 203.377 282.841 199.618C282.438 198.007 280.156 194.919 280.291 194.114C280.559 192.772 286.332 200.021 287.003 200.424C287.271 200.558 288.345 202.303 288.077 203.646C287.808 204.988 288.748 206.33 289.285 206.733C291.299 208.21 294.521 212.909 294.386 215.594C294.118 217.876 295.058 220.963 294.923 220.963ZM295.058 165.385C298.414 162.029 299.219 161.76 302.307 163.64C300.965 164.311 298.011 165.654 298.011 165.922C298.011 165.922 300.159 166.862 300.159 167.13C300.159 168.204 301.099 168.07 301.502 168.339C304.052 169.95 302.441 174.245 305.797 175.185C305.797 175.991 305.932 176.93 305.932 177.87C303.784 178.273 301.77 177.87 299.756 175.991C299.891 174.782 299.891 173.44 300.025 171.829C298.28 170.218 296.132 168.339 295.058 165.385ZM309.422 200.424C308.617 200.424 307.14 200.692 306.871 200.424C306.334 200.155 307.14 197.202 305.26 196.53C305.126 196.933 304.858 197.873 304.723 197.873C304.723 197.873 304.186 197.604 304.186 197.47C304.589 194.651 300.293 193.443 300.965 190.087C302.576 189.55 303.515 189.952 304.052 191.429C305.26 194.517 311.167 195.591 312.913 195.456C313.584 195.456 310.093 199.215 309.422 200.424Z" fill="#007AFF"/>
<path d="M164.704 142.832C165.241 142.563 166.046 142.429 166.315 142.16C166.583 141.758 166.583 141.086 166.315 140.415C165.912 140.684 165.509 141.086 165.241 141.355L164.167 142.295C163.093 143.369 162.019 144.308 160.945 145.382C159.871 146.456 158.797 147.53 157.857 148.604C157.857 148.604 157.857 148.604 157.991 148.604C158.126 149.544 158.394 150.349 158.663 151.423C159.334 151.558 160.274 151.96 161.213 152.229C161.616 151.826 162.153 151.423 162.556 151.021C162.69 151.155 162.824 151.423 163.361 151.96C163.63 149.947 163.898 148.738 164.033 147.53C164.435 147.665 164.704 147.799 165.107 148.067C166.181 147.128 167.389 146.456 168.194 145.382C166.718 144.577 165.778 143.637 164.704 142.832ZM182.827 250.229C182.022 250.229 181.35 250.229 180.948 250.095C179.337 248.618 177.726 246.739 176.92 246.336C174.907 245.531 171.282 244.994 168.597 242.98C167.12 241.772 164.972 241.772 163.764 240.026C163.898 239.624 164.301 239.221 164.301 239.087C164.435 235.328 158.931 232.24 155.038 230.361C154.098 229.958 153.696 227.541 152.487 227.139C151.011 226.602 151.011 224.32 149.668 223.246C148.46 223.111 147.386 223.111 146.446 223.917C145.506 222.709 144.433 223.38 143.359 222.977C143.224 222.574 143.09 222.172 142.956 221.5C142.15 221.5 141.479 221.5 140.674 221.5C140.539 220.963 140.405 220.561 140.271 219.889C138.794 220.829 137.317 221.635 135.975 222.44C135.438 223.648 135.035 224.722 134.632 225.931C133.693 225.259 133.022 224.722 132.35 224.185C131.411 223.648 131.142 225.528 130.471 225.528C130.471 226.333 130.605 227.139 130.605 227.944C130.605 228.078 130.605 228.078 130.605 228.213C130.739 228.347 131.008 228.481 131.142 228.615C131.142 228.481 131.142 228.481 131.276 228.347C131.679 227.273 131.948 225.528 132.35 225.796C132.619 225.931 133.827 228.347 133.961 229.958C133.961 230.495 133.827 230.898 133.559 231.032C134.364 231.837 134.095 232.911 134.095 234.12C133.156 234.925 132.753 236.402 131.948 237.476C132.082 238.013 132.216 238.55 132.216 239.221C132.35 240.161 132.619 240.966 132.753 241.906C132.753 242.04 132.753 242.04 132.753 242.174C132.887 242.711 133.022 243.114 133.156 243.651C133.29 244.054 133.424 244.591 133.559 244.994C133.693 245.665 133.961 246.47 134.095 247.142C134.23 247.41 134.23 247.679 134.364 247.813C134.364 247.947 134.498 248.216 134.498 248.35C134.901 249.692 135.304 250.9 135.706 252.109C135.841 252.511 135.975 252.914 136.109 253.317C136.243 253.72 136.378 253.988 136.512 254.391C137.317 256.539 138.123 258.553 139.063 260.7V260.835C139.063 260.969 139.197 260.969 139.331 261.103C140.808 262.58 142.285 263.922 143.761 264.728C146.043 266.07 147.654 267.95 148.326 270.501C149.534 274.796 151.548 279.764 153.024 282.985C153.024 282.985 153.024 283.12 153.159 283.12C153.293 283.388 153.427 283.657 153.561 283.925C153.83 284.194 153.964 284.462 154.233 284.731C155.575 286.342 156.917 287.818 158.394 289.295C158.797 289.698 159.065 290.101 159.468 290.369C160.005 290.906 160.408 291.309 160.945 291.846C161.348 292.249 161.75 292.651 162.153 292.92C162.69 293.323 163.093 293.86 163.63 294.262C164.57 295.202 165.644 296.007 166.583 296.947C166.986 297.35 167.389 297.618 167.792 298.021C168.328 298.424 168.731 298.827 169.268 299.229C169.537 299.498 169.939 299.766 170.342 300.035C170.611 300.303 170.879 300.438 171.148 300.706C172.087 301.377 173.027 302.049 173.967 302.72C173.967 302.586 173.967 302.317 174.101 302.049C174.101 301.78 174.235 301.512 174.37 301.377C173.564 301.109 172.759 300.84 171.953 300.572C171.55 300.438 171.282 300.303 170.879 300.169C170.745 300.035 170.745 299.766 170.611 299.498C170.611 299.364 170.476 299.229 170.476 299.229C170.879 299.095 171.148 299.095 171.416 299.095C170.611 298.155 170.611 297.35 171.282 296.813C171.282 296.813 171.148 296.544 171.013 296.276C170.342 296.142 169.805 296.007 169 295.873C169 295.605 169 295.336 168.865 295.068C169.268 295.336 169.671 295.47 169.939 295.605C171.55 295.47 170.342 294.262 170.208 293.457C172.49 293.591 174.235 292.786 173.564 291.175C173.296 290.503 171.55 290.235 171.819 289.161C172.624 289.161 173.43 289.295 174.37 289.429C174.504 288.087 175.846 287.416 174.638 285.402C177.055 285.536 175.041 282.851 176.652 282.583C176.115 280.972 174.907 278.421 175.175 277.884C175.309 277.347 177.994 275.87 179.739 275.736C181.082 275.602 181.753 274.931 181.887 273.588C182.156 270.635 180.679 265.265 180.679 263.385C180.679 262.311 182.29 258.553 183.767 256.807C184.035 256.405 184.304 256.002 184.304 255.465C184.572 254.257 183.498 251.974 182.827 250.229ZM181.082 307.016C180.545 307.016 180.142 306.881 179.605 306.881C180.008 307.15 180.545 307.418 180.948 307.687C181.216 307.553 181.35 307.418 181.485 307.284C181.485 307.284 181.619 307.15 181.619 307.016C181.485 307.016 181.216 307.016 181.082 307.016Z" fill="#007AFF"/>
<path d="M207.529 124.843C206.589 123.769 202.696 125.245 202.562 124.977C202.562 124.843 200.951 122.426 199.205 122.426C198.131 122.426 196.923 122.292 195.715 122.695C195.312 122.829 194.909 122.963 194.641 123.097C194.372 123.232 194.104 123.366 193.835 123.634C193.701 123.634 193.433 123.634 193.298 123.634C192.896 123.769 192.493 123.903 192.09 124.171C191.285 124.574 190.479 124.843 189.808 125.245C188.331 125.916 186.72 126.722 185.244 127.527C184.841 127.662 184.438 127.93 184.17 128.064C183.498 128.467 182.693 128.87 182.022 129.273C182.022 129.273 182.022 129.273 181.887 129.273C179.74 130.481 177.592 131.823 175.444 133.3C175.712 133.3 175.846 133.434 175.981 133.569C176.249 133.837 176.786 134.777 176.518 135.18C175.846 135.985 176.652 136.656 175.846 137.327C174.772 138.267 175.041 139.341 174.907 139.744C174.638 140.147 174.101 140.952 173.564 141.758C174.504 141.623 175.175 141.623 176.383 141.489C175.175 142.16 174.504 142.563 173.698 143.1C173.296 144.174 172.893 145.248 172.624 146.322C173.564 148.336 173.161 151.155 174.638 153.169C176.652 151.96 177.592 154.914 178.666 153.84C179.874 152.632 181.619 147.262 184.304 146.322C188.734 144.845 186.855 143.369 191.688 141.758C193.97 141.086 196.118 139.744 197.594 137.999C198.4 137.059 197.863 136.656 197.863 135.985C197.863 135.582 198.131 134.777 198.4 134.508C200.279 132.226 199.742 132.897 200.951 131.958C201.219 131.689 201.219 131.152 201.353 130.749C201.756 130.615 202.159 130.481 202.83 130.347C202.427 129.675 201.488 128.736 201.622 128.467C201.756 127.796 205.783 125.917 207.529 124.843Z" fill="#007AFF"/>
<path d="M292.775 281.106C292.373 280.166 293.447 278.958 292.373 278.018C292.104 277.75 292.507 276.81 292.91 276.407C294.521 274.394 293.984 270.098 294.923 269.158C296.534 267.547 302.173 263.385 303.247 263.251C303.918 263.117 304.992 267.144 304.992 268.084C304.992 268.621 303.247 270.098 302.978 271.44C302.575 274.125 299.219 279.227 297.743 280.703C297.206 281.106 295.729 281.509 294.655 282.046C293.849 281.643 293.312 281.375 292.775 281.106Z" fill="#007AFF"/>
<path d="M236.392 156.256C235.721 155.719 235.049 157.196 234.11 156.659C232.767 155.854 228.471 157.599 228.471 157.599C228.471 157.33 229.545 154.914 230.351 153.571C230.485 153.437 229.948 153.169 229.679 152.766C230.485 152.632 231.156 152.497 232.23 152.363C231.156 151.692 230.485 151.155 229.545 150.618C229.411 151.826 229.277 152.9 229.142 153.974C227.397 155.317 225.786 155.451 224.041 155.182C224.846 151.155 225.518 150.484 228.605 150.081C228.74 149.275 228.874 148.336 229.008 147.262C228.74 146.859 228.203 146.188 227.8 145.517C229.411 145.114 231.156 144.308 231.827 145.248C232.499 146.188 233.975 146.322 234.244 147.53C233.975 147.933 233.707 148.336 233.17 148.873C234.647 150.349 236.123 151.96 237.734 153.706C237.063 154.377 236.66 155.451 236.392 156.256Z" fill="#007AFF"/>
<path d="M252.501 124.171C253.307 124.171 254.247 124.171 255.052 124.171C256.395 122.963 259.616 122.963 262.838 124.306C261.899 125.111 261.899 125.111 258.811 124.977C260.019 125.648 260.959 126.185 261.899 126.588C260.153 127.393 260.019 127.393 258.14 125.514C257.2 126.185 256.26 127.662 255.992 127.796C255.723 127.93 254.247 127.259 253.173 126.856C253.173 126.722 253.173 126.454 253.173 126.051C250.756 125.38 250.756 125.245 252.501 124.171Z" fill="#007AFF"/>
<path d="M291.03 133.3C290.762 133.3 290.359 133.3 290.091 133.166C288.882 132.897 287.674 132.495 286.466 132.092C286.869 131.689 287.271 131.421 287.54 131.018C288.077 131.286 288.614 131.689 289.151 132.092C289.285 132.092 289.285 132.226 289.419 132.226C289.688 132.36 289.822 132.495 290.091 132.629C290.359 132.763 290.762 133.032 291.03 133.3Z" fill="#007AFF"/>
<path d="M204.844 142.966C204.709 143.503 204.575 144.04 204.441 144.577C203.233 145.382 201.89 146.054 200.682 146.859C199.474 146.591 198.266 146.456 197.057 146.322C197.057 146.054 196.923 145.651 196.923 145.382C196.52 145.651 196.252 145.785 195.983 146.054C195.849 145.382 195.581 144.845 195.446 144.174C195.983 143.771 196.386 143.369 196.789 143.1C197.997 143.906 199.608 142.563 200.548 142.966C201.219 142.429 201.622 142.16 202.025 141.892C202.964 142.026 203.904 142.429 204.844 142.966Z" fill="#007AFF"/>
<path d="M138.257 208.21C136.78 209.955 136.646 209.955 134.767 209.821C134.901 209.552 135.035 209.284 135.304 208.881C133.961 208.21 132.485 205.794 131.142 205.257C131.276 204.72 131.276 204.183 131.411 203.646C131.948 203.646 132.35 203.646 132.887 203.646C134.632 205.122 136.378 206.599 138.257 208.21Z" fill="#007AFF"/>
<path d="M139.6 210.358C139.331 209.687 139.197 209.15 138.928 208.613C140.002 208.613 141.211 208.613 142.419 208.613C142.956 209.418 144.164 210.089 143.627 211.969C142.016 210.895 141.345 211.432 141.345 211.432C141.076 211.432 139.734 211.029 138.66 211.432C138.391 211.566 138.123 212.237 137.989 211.835C137.989 211.7 137.989 211.298 137.989 210.895C138.391 210.761 138.928 210.626 139.6 210.358Z" fill="#007AFF"/>
<path d="M278.411 125.916C278.143 126.051 277.874 126.185 277.471 126.319C276.934 126.185 276.129 125.916 275.055 125.648C275.726 125.514 276.263 125.379 276.8 125.245C277.337 125.514 277.874 125.648 278.411 125.916Z" fill="#007AFF"/>
<path d="M286.734 135.582C285.929 135.582 285.123 135.582 284.049 135.582C284.049 135.045 284.049 134.643 284.049 133.971C285.258 134.374 286.063 134.777 286.869 135.18C286.869 135.314 286.869 135.448 286.734 135.582Z" fill="#007AFF"/>
<path d="M185.512 305.136C184.975 305.673 184.975 305.673 182.559 305.539C183.23 305.002 183.23 305.002 185.512 305.136Z" fill="#007AFF"/>
<path d="M243.641 174.648C243.373 172.5 243.91 169.681 244.178 169.01C244.178 168.876 245.118 168.473 245.789 167.936C246.46 169.01 246.326 169.949 245.386 170.621C246.997 171.963 245.252 175.051 244.447 175.051C244.312 175.051 243.91 174.782 243.641 174.648Z" fill="#007AFF"/>
<path d="M264.584 180.287C266.06 180.421 267.806 179.347 269.014 181.226C267 181.898 267 181.898 264.584 180.287Z" fill="#007AFF"/>
<path d="M276.934 181.361C277.74 180.287 278.68 179.75 279.888 180.421C280.693 182.3 278.277 181.495 278.143 182.569C277.606 182.166 277.337 181.898 276.934 181.361Z" fill="#007AFF"/>
<g opacity="0.4">
<path d="M291.03 143.234C291.03 151.826 289.285 160.015 286.063 167.667C285.66 168.741 285.123 169.815 284.586 170.889C283.244 173.574 281.767 176.259 280.022 178.81C279.753 179.213 279.485 179.75 279.082 180.152C278.545 180.824 278.143 181.495 277.606 182.166C276.263 184.045 274.786 185.791 273.175 187.536C257.737 204.854 233.438 216.533 205.783 218.278C203.501 218.413 201.085 218.547 198.668 218.547C172.759 218.547 149.265 209.687 132.485 195.591C133.29 192.369 134.095 189.013 135.169 185.925C136.512 182.032 137.989 178.139 139.734 174.514C144.298 164.982 150.205 156.256 157.186 148.604C158.26 147.53 159.2 146.456 160.274 145.382C161.348 144.308 162.422 143.234 163.496 142.295L164.57 141.355C164.972 141.086 165.375 140.684 165.644 140.415C169.537 137.059 173.698 134.106 177.994 131.286L178.128 131.152C179.202 130.481 180.276 129.81 181.216 129.273C181.216 129.273 181.216 129.273 181.35 129.273C182.022 128.87 182.693 128.467 183.498 128.064C183.901 127.93 184.304 127.662 184.572 127.527C186.049 126.722 187.526 125.917 189.137 125.245C189.942 124.843 190.613 124.574 191.419 124.171C191.822 124.037 192.224 123.903 192.627 123.634C193.03 123.5 193.433 123.232 193.97 123.097C194.372 122.963 194.775 122.695 195.044 122.695C202.159 119.875 209.677 117.862 217.463 116.788C222.43 115.982 227.531 115.714 232.767 115.714C245.789 115.714 258.274 118.13 269.685 122.56C271.967 123.366 274.115 124.306 276.263 125.38C276.8 125.648 277.203 125.782 277.74 126.051C280.827 127.527 283.915 129.273 286.869 131.152C287.406 131.421 287.943 131.823 288.48 132.226C288.614 132.226 288.614 132.36 288.748 132.36C289.017 132.495 289.151 132.629 289.419 132.763C289.419 132.897 289.419 133.166 289.554 133.3C289.688 134.24 289.822 135.18 289.956 135.985C290.896 138.267 291.03 140.818 291.03 143.234Z" fill="#E6F2FF"/>
</g>
<path d="M304.7 242.6C304.7 242.6 312.7 242.4 326.3 233C325.1 228.4 324.7 223.5 325.5 218.6C328.8 196.9 351.7 182.4 376.7 186.1C401.7 189.9 419.2 210.5 416 232.3C412.7 254 389.8 268.6 364.8 264.8C352.8 263 342.6 257.3 335.5 249.5C327.7 250.4 316.9 249.6 304.7 242.6Z" fill="#131313"/>
<path d="M305.3 241C305.3 241 313.1 239.6 325.2 228.3C323.3 223.9 322.2 219.1 322.2 214.2C322.2 192.2 342.7 174.4 367.9 174.4C393.2 174.4 413.6 192.2 413.6 214.2C413.6 236.2 393.1 254 367.9 254C355.8 254 344.8 249.9 336.6 243.2C329.2 245.2 318.4 246.1 305.3 241Z" fill="#007AFF"/>
<path d="M399.635 205.6C399.635 206.68 399.575 208.26 399.455 210.34C399.335 212.34 399.275 213.87 399.275 214.93C399.275 215.21 399.295 215.79 399.335 216.67C399.315 217.01 399.195 217.27 398.975 217.45C398.755 217.61 398.495 217.69 398.195 217.69C397.875 217.69 397.585 217.61 397.325 217.45C397.065 217.29 396.905 217.08 396.845 216.82C396.605 215.18 396.485 213.22 396.485 210.94L396.515 206.26C396.515 205.52 396.605 204.92 396.785 204.46C396.985 203.98 397.405 203.74 398.045 203.74C398.585 203.74 398.985 203.92 399.245 204.28C399.505 204.62 399.635 205.06 399.635 205.6ZM398.045 219.25C399.405 219.25 400.085 219.76 400.085 220.78C400.085 221.3 399.915 221.78 399.575 222.22C399.255 222.64 398.845 222.85 398.345 222.85C397.745 222.85 397.255 222.67 396.875 222.31C396.495 221.93 396.305 221.49 396.305 220.99C396.305 220.55 396.465 220.15 396.785 219.79C397.125 219.43 397.545 219.25 398.045 219.25Z" fill="white"/>
<path d="M394.271 213.37C394.431 213.65 394.561 214.06 394.661 214.6C394.761 215.12 394.811 215.59 394.811 216.01C394.811 216.55 394.751 217.15 394.631 217.81C394.511 218.47 394.401 218.98 394.301 219.34C392.921 221.86 390.881 223.12 388.181 223.12C387.181 223.12 386.161 222.79 385.121 222.13C384.081 221.47 383.361 220.71 382.961 219.85C382.421 218.15 382.151 217.06 382.151 216.58C382.151 215.78 382.321 214.93 382.661 214.03C383.021 213.13 383.471 212.35 384.011 211.69C384.371 211.23 384.991 210.84 385.871 210.52C386.751 210.18 387.551 210.01 388.271 210.01C389.671 210.01 390.851 210.28 391.811 210.82C392.791 211.34 393.611 212.19 394.271 213.37ZM391.661 218.2C391.761 218 391.811 217.33 391.811 216.19C391.811 215.61 391.701 215.04 391.481 214.48C391.281 213.92 390.981 213.44 390.581 213.04C390.541 213 390.431 212.94 390.251 212.86C390.071 212.76 389.821 212.67 389.501 212.59C389.201 212.49 388.851 212.44 388.451 212.44C387.331 212.44 386.511 212.89 385.991 213.79C385.471 214.69 385.211 215.71 385.211 216.85C385.211 217.03 385.271 217.4 385.391 217.96C385.511 218.52 385.601 218.88 385.661 219.04C385.821 219.32 386.141 219.65 386.621 220.03C387.121 220.39 387.661 220.57 388.241 220.57C389.141 220.57 389.851 220.36 390.371 219.94C390.911 219.5 391.341 218.92 391.661 218.2Z" fill="white"/>
<path d="M379.114 218.35C379.114 219.11 379.224 219.7 379.444 220.12C379.684 220.52 379.984 220.72 380.344 220.72C380.544 220.72 380.734 220.71 380.914 220.69C381.094 220.65 381.274 220.63 381.454 220.63C381.654 220.63 381.824 220.73 381.964 220.93C382.124 221.13 382.204 221.35 382.204 221.59C382.204 222.07 381.974 222.45 381.514 222.73C381.074 222.99 380.474 223.12 379.714 223.12C379.174 223.12 378.624 222.96 378.064 222.64C377.524 222.3 377.074 221.78 376.714 221.08C376.354 220.36 376.174 219.47 376.174 218.41C376.174 216.13 376.214 214.2 376.294 212.62C376.394 210.74 376.444 208.37 376.444 205.51C376.444 204.61 376.494 203.98 376.594 203.62C376.714 203.34 376.904 203.13 377.164 202.99C377.444 202.83 377.734 202.75 378.034 202.75C378.334 202.75 378.594 202.8 378.814 202.9C379.054 203 379.214 203.16 379.294 203.38C379.374 203.62 379.424 203.86 379.444 204.1C379.484 204.32 379.504 204.64 379.504 205.06C379.504 205.88 379.474 206.67 379.414 207.43C379.374 208.35 379.354 209.02 379.354 209.44C379.194 212.96 379.114 215.93 379.114 218.35Z" fill="white"/>
<path d="M372.418 218.35C372.418 219.11 372.528 219.7 372.748 220.12C372.988 220.52 373.288 220.72 373.648 220.72C373.848 220.72 374.038 220.71 374.218 220.69C374.398 220.65 374.578 220.63 374.758 220.63C374.958 220.63 375.128 220.73 375.268 220.93C375.428 221.13 375.508 221.35 375.508 221.59C375.508 222.07 375.278 222.45 374.818 222.73C374.378 222.99 373.778 223.12 373.018 223.12C372.478 223.12 371.928 222.96 371.368 222.64C370.828 222.3 370.378 221.78 370.018 221.08C369.658 220.36 369.478 219.47 369.478 218.41C369.478 216.13 369.518 214.2 369.598 212.62C369.698 210.74 369.748 208.37 369.748 205.51C369.748 204.61 369.798 203.98 369.898 203.62C370.018 203.34 370.208 203.13 370.468 202.99C370.748 202.83 371.038 202.75 371.338 202.75C371.638 202.75 371.898 202.8 372.118 202.9C372.358 203 372.518 203.16 372.598 203.38C372.678 203.62 372.728 203.86 372.748 204.1C372.788 204.32 372.808 204.64 372.808 205.06C372.808 205.88 372.778 206.67 372.718 207.43C372.678 208.35 372.658 209.02 372.658 209.44C372.498 212.96 372.418 215.93 372.418 218.35Z" fill="white"/>
<path d="M356.322 216.64C356.322 215.88 356.462 215.12 356.742 214.36C357.022 213.58 357.392 212.87 357.852 212.23C358.312 211.59 359.042 211.07 360.042 210.67C361.042 210.25 361.932 210.04 362.712 210.04C363.512 210.04 364.322 210.15 365.142 210.37C365.982 210.59 366.562 210.93 366.882 211.39C367.622 212.43 367.992 213.45 367.992 214.45C367.992 214.99 367.872 215.45 367.632 215.83C367.412 216.21 367.092 216.62 366.672 217.06C366.332 217.42 365.792 217.66 365.052 217.78C364.332 217.9 363.612 217.96 362.892 217.96C362.432 217.96 361.872 217.92 361.212 217.84C360.552 217.74 359.912 217.62 359.292 217.48C359.332 217.88 359.432 218.27 359.592 218.65C359.752 219.03 359.942 219.32 360.162 219.52C360.562 219.9 360.972 220.14 361.392 220.24C361.832 220.34 362.392 220.39 363.072 220.39C363.792 220.39 364.462 220.27 365.082 220.03C365.582 219.85 365.992 219.76 366.312 219.76C366.692 219.76 366.982 219.88 367.182 220.12C367.382 220.34 367.482 220.63 367.482 220.99C367.482 221.49 367.192 221.9 366.612 222.22C366.032 222.54 365.362 222.78 364.602 222.94C363.862 223.08 363.262 223.15 362.802 223.15C361.862 223.15 360.952 222.98 360.072 222.64C359.192 222.3 358.462 221.82 357.882 221.2C357.402 220.64 357.022 219.97 356.742 219.19C356.462 218.39 356.322 217.54 356.322 216.64ZM362.862 212.59C362.422 212.59 361.982 212.68 361.542 212.86C361.102 213.02 360.742 213.25 360.462 213.55C360.102 213.93 359.852 214.24 359.712 214.48C359.592 214.7 359.512 215.01 359.472 215.41C359.972 215.57 361.012 215.65 362.592 215.65C363.452 215.65 364.112 215.52 364.572 215.26C365.052 215 365.292 214.66 365.292 214.24C365.292 213.82 365.032 213.44 364.512 213.1C363.992 212.76 363.442 212.59 362.862 212.59Z" fill="white"/>
<path d="M351.39 212.26C351.37 211.94 351.36 211.46 351.36 210.82V209.68C351.36 208.92 351.34 208.35 351.3 207.97C351.26 207.65 351.24 206.82 351.24 205.48C351.24 205 351.38 204.63 351.66 204.37C351.96 204.09 352.36 203.95 352.86 203.95C353.5 203.95 353.93 204.09 354.15 204.37C354.37 204.65 354.48 205.11 354.48 205.75V206.89L354.45 210.19C354.43 210.83 354.42 211.79 354.42 213.07L354.45 215.53C354.47 215.91 354.48 216.44 354.48 217.12C354.48 217.66 354.5 218.43 354.54 219.43C354.58 220.35 354.6 221.04 354.6 221.5C354.6 221.88 354.49 222.23 354.27 222.55C354.07 222.87 353.79 223.03 353.43 223.03C352.03 223.03 351.33 222.56 351.33 221.62C351.33 221.1 351.35 220.52 351.39 219.88C351.43 219.42 351.45 218.72 351.45 217.78C351.45 217.12 351.43 216.17 351.39 214.93C350.45 215.01 348.83 215.05 346.53 215.05C345.09 215.05 343.97 215.05 343.17 215.05C342.37 215.03 341.79 214.98 341.43 214.9L341.4 218.35C341.4 218.57 341.45 219.16 341.55 220.12C341.65 220.76 341.7 221.32 341.7 221.8C341.7 222.1 341.52 222.39 341.16 222.67C340.82 222.93 340.5 223.06 340.2 223.06C339.48 223.06 338.99 222.89 338.73 222.55C338.47 222.19 338.34 221.65 338.34 220.93L338.31 218.56C338.29 218.28 338.28 217.89 338.28 217.39C338.28 216.65 338.26 215.64 338.22 214.36C338.18 213.2 338.16 212.36 338.16 211.84C338.16 211.06 338.18 209.97 338.22 208.57C338.26 207.25 338.28 206.27 338.28 205.63C338.28 204.99 338.44 204.56 338.76 204.34C339.08 204.12 339.44 204.01 339.84 204.01C340.96 204.01 341.52 204.38 341.52 205.12C341.52 206.44 341.49 207.7 341.43 208.9C341.39 210.42 341.37 211.53 341.37 212.23C341.95 212.37 342.56 212.46 343.2 212.5C343.84 212.54 344.74 212.56 345.9 212.56C348.26 212.56 350.09 212.46 351.39 212.26Z" fill="white"/>
<path d="M133.288 131.962C132.064 129.269 131.452 126.331 131.819 123.516C132.186 119.966 133.777 116.661 139.286 120.334C149.2 126.821 143.203 138.817 135.736 137.348L133.288 131.962Z" fill="#C86858"/>
<path d="M138.674 123.638C137.205 123.516 135.614 124.251 134.879 125.475C134.022 126.699 134.022 128.412 134.879 129.636C135.369 130.371 135.981 130.983 136.715 131.35C136.96 131.472 137.327 131.228 137.45 130.983C137.572 130.738 137.45 130.371 137.082 130.248C135.981 129.759 135.246 128.412 135.369 127.311C135.491 127.311 135.491 127.311 135.614 127.311C135.736 127.311 135.981 127.188 136.103 127.188C136.226 127.188 136.226 127.188 136.348 127.188H136.47C136.593 127.188 136.838 127.188 136.96 127.188C137.082 127.188 137.082 127.188 137.205 127.188H137.327C137.45 127.188 137.572 127.311 137.817 127.311H137.939H138.062L138.184 127.433C138.306 127.555 138.429 127.555 138.551 127.678C138.551 127.678 138.551 127.678 138.674 127.8C138.796 127.923 138.796 127.923 138.796 128.045C139.041 128.29 139.408 128.29 139.53 128.167C139.775 127.923 139.775 127.555 139.653 127.433C138.674 126.331 137.205 125.842 135.736 126.087C136.348 125.23 137.45 124.618 138.551 124.74C139.286 124.863 139.408 123.761 138.674 123.638Z" fill="#992B1E"/>
<path d="M92.527 164.644C105.624 169.908 117.253 164.399 123.985 161.339C127.657 159.626 139.163 154.24 140.755 145.059C140.877 144.447 140.877 143.835 140.999 143.346C141.122 142.366 141.122 140.898 140.755 138.939C140.51 137.47 140.143 135.757 139.408 133.676C138.674 131.595 137.817 129.269 136.348 126.576C136.226 126.209 135.981 125.964 135.858 125.597C135.002 123.883 134.022 122.292 133.043 120.823C131.941 119.11 130.84 117.518 129.738 116.172C125.944 111.276 122.639 108.46 121.659 107.603C119.456 105.767 117.498 104.421 116.151 103.686C114.927 102.952 113.948 102.585 113.336 102.34C113.336 102.34 108.684 100.504 101.952 100.626C99.3816 100.749 98.0352 101.116 98.0352 101.116C77.9608 105.767 70.9837 117.029 70.7389 129.514C70.7389 132.574 71.1061 135.634 71.7181 138.817C71.7181 138.939 71.8405 139.062 71.8405 139.306C72.6973 142.978 77.1039 158.524 92.527 164.644Z" fill="#C86858"/>
<path d="M111.622 128.29C112.234 129.392 111.867 130.738 112.479 131.84C112.724 132.329 113.213 132.696 113.825 132.696C114.315 132.696 114.805 132.574 115.294 132.819C116.029 133.308 116.274 134.41 115.906 135.267C115.417 136.491 114.07 136.858 112.846 137.225C112.479 137.348 112.234 136.736 112.724 136.613C113.703 136.369 115.172 136.001 115.417 134.777C115.417 134.41 115.417 133.92 115.049 133.676C114.682 133.308 114.193 133.553 113.703 133.553C112.724 133.676 112.112 132.941 111.745 132.084C111.377 130.983 111.622 129.881 111.01 128.779C110.888 128.29 111.5 127.923 111.622 128.29Z" fill="#992B1E"/>
<path d="M116.641 128.045C117.13 128.167 117.498 125.352 119.946 124.006C122.271 122.782 124.475 123.761 124.597 123.394C124.719 122.904 121.047 120.089 118.232 121.68C115.539 123.271 116.029 127.8 116.641 128.045Z" fill="#131313"/>
<path d="M93.751 139.306C94.2406 139.429 94.6078 136.613 97.0559 135.267C99.3816 134.043 101.585 135.022 101.707 134.655C101.83 134.165 98.1576 131.35 95.3423 132.941C92.6493 134.655 93.139 139.184 93.751 139.306Z" fill="#131313"/>
<path d="M103.788 145.916C103.788 145.916 116.763 149.099 122.639 137.47" stroke="#992B1E" stroke-miterlimit="10"/>
<path d="M68.0459 113.968C68.6579 112.622 69.27 111.398 70.1268 110.174C71.7181 107.848 73.6765 105.523 85.5498 98.5454C97.9127 91.3235 108.684 86.3049 116.273 83C116.518 83.2448 116.886 83.612 117.253 84.1016C118.844 85.9377 120.68 88.753 121.047 92.4252C121.17 93.4044 121.17 94.2613 121.047 95.1181C120.68 98.0558 119.211 100.626 117.62 102.707C117.253 103.197 116.886 103.564 116.518 103.931C114.315 106.257 111.989 107.848 110.888 108.583C110.398 108.95 109.786 109.195 109.052 109.562C107.705 110.174 105.747 110.786 103.666 111.153C103.054 111.276 102.442 111.153 101.952 111.031C102.809 119.477 92.8941 126.331 85.5498 121.313C89.7116 127.8 85.0602 137.103 77.3487 137.715C82.2449 141.632 85.6722 147.63 86.5291 153.873C86.2843 153.995 86.0395 154.117 85.9171 154.24C83.9586 155.464 82.4897 155.586 80.4088 153.995C79.4296 153.26 78.4503 152.404 77.4711 151.547C77.2263 151.302 76.9815 151.057 76.7367 150.812C72.3301 146.406 69.0252 140.775 67.3115 134.655C66.0874 130.493 65.7202 126.087 66.2098 121.925C66.4546 120.089 66.8219 118.375 67.3115 116.661C67.3115 115.805 67.6787 114.825 68.0459 113.968Z" fill="#131313"/>
<path d="M88.8548 158.279C87.3859 155.709 85.4274 153.505 82.9793 152.036C79.9192 150.2 76.3695 149.466 76.0022 156.198C75.2678 167.949 88.61 170.397 91.7925 163.42L88.8548 158.279Z" fill="#C86858"/>
<path d="M78.94 157.667C79.6744 156.321 81.2657 155.586 82.7345 155.709C84.2034 155.831 85.5498 156.81 86.0394 158.157C86.4067 159.014 86.4067 159.748 86.2843 160.605C86.1619 160.85 85.917 161.094 85.5498 160.972C85.1826 160.85 85.0602 160.605 85.1826 160.238C85.4274 159.014 84.8154 157.667 83.8362 157.055L83.7138 157.177C83.5913 157.3 83.4689 157.422 83.3465 157.545L83.2241 157.667C83.2241 157.667 83.2241 157.667 83.1017 157.789C82.9793 157.912 82.9793 158.034 82.8569 158.157C82.8569 158.279 82.7345 158.279 82.7345 158.401V158.524C82.7345 158.646 82.6121 158.769 82.6121 159.014V159.136V159.258C82.6121 159.381 82.6121 159.381 82.6121 159.503C82.6121 159.626 82.6121 159.87 82.6121 159.993V160.115C82.6121 160.238 82.6121 160.238 82.6121 160.36C82.6121 160.605 82.4897 160.972 82.2449 161.094C82.0001 161.094 81.6329 160.972 81.5105 160.727C81.2657 159.381 81.6329 157.789 82.7345 156.81C81.6329 156.81 80.5312 157.3 80.0416 158.279C79.4296 158.891 78.5727 158.279 78.94 157.667Z" fill="#992B1E"/>
<path d="M103.911 105.4C104.155 105.89 104.4 106.257 104.645 106.624C105.747 108.093 107.338 108.95 109.052 109.439C111.132 110.051 113.213 110.296 114.193 110.296C117.987 110.541 121.17 109.439 123.006 108.583C123.128 109.562 123.495 111.031 124.107 112.622C124.352 113.356 125.331 115.56 126.8 117.029C128.269 118.497 130.228 119.354 132.309 119.599C132.553 119.599 132.798 119.599 133.043 119.721C134.145 119.844 135.369 119.721 136.47 119.354C136.103 119.232 135.613 119.109 135.246 118.987C135.246 118.865 135.246 118.865 135.246 118.742C134.267 114.213 131.574 103.931 124.107 97.3214C123.373 96.7093 122.639 96.0973 121.904 95.4853C121.659 95.3629 121.414 95.1181 121.17 94.9957C119.089 93.6492 117.375 93.0372 116.029 92.67C114.927 92.4252 114.07 92.4252 113.581 92.5476C110.153 92.7924 106.481 94.8733 104.645 98.3006C104.523 98.5454 104.4 98.7902 104.278 99.1574C104.155 99.5247 103.911 100.014 103.788 100.626C103.299 101.973 103.054 103.686 103.911 105.4Z" fill="#131313"/>
<path d="M68.0459 113.968C70.3716 114.825 72.9421 114.948 75.3902 114.336C76.2471 114.091 76.9815 113.846 77.7159 113.479C80.6536 112.132 82.8569 109.562 83.9586 106.624C84.2034 106.012 84.3258 105.4 84.4482 104.788C84.9378 105.033 85.4274 105.278 85.9171 105.523C88.61 106.624 91.7925 106.502 94.363 105.278C96.1991 104.421 97.7903 102.83 98.892 101.116C99.6264 99.8919 100.116 98.5454 100.238 97.199C101.585 97.9334 103.054 98.3006 104.523 98.423C107.95 98.7902 111.5 97.6886 114.07 95.2405C114.805 94.5061 115.417 93.7716 115.906 92.7924C117.375 90.2219 117.987 87.0393 117.253 84.1016C118.844 85.9377 120.68 88.753 121.047 92.4252C121.17 93.4044 121.17 94.2612 121.047 95.1181C121.292 95.2405 121.537 95.4853 121.782 95.6077C122.516 96.2197 123.251 96.8317 123.985 97.4438C122.271 99.7695 120.068 101.483 117.62 102.83C117.008 103.197 116.396 103.442 115.784 103.686C112.724 104.788 109.419 105.155 106.114 104.666C105.747 105.523 105.257 106.257 104.767 106.991C100.85 112.377 93.6286 115.315 87.2635 113.724C87.6307 116.906 85.4274 120.211 82.8569 122.17C80.164 124.128 76.6143 124.495 73.5541 123.149C72.9421 125.597 72.0853 127.923 70.8612 130.126C69.882 131.962 68.6579 133.553 67.3115 135.022C66.0874 130.86 65.7202 126.454 66.2098 122.292C66.9443 120.701 67.3115 118.865 67.3115 117.029C67.3115 115.805 67.6787 114.825 68.0459 113.968Z" fill="#131313"/>
<path d="M325.9 97.3348C321.8 97.3348 317.7 99.4348 315 102.935C313.3 105.135 312.2 108.635 314 110.835C311.1 111.635 308.5 113.835 307.1 116.835C305.7 119.835 305.5 123.435 306.5 126.535C306.7 127.235 307 127.835 307.6 128.135C308.2 128.435 309 128.235 309.1 127.535C307.1 126.935 303.2 128.135 301.6 129.535C300 130.935 299 133.235 299 135.535C299 136.935 299.5 138.535 300.7 139.135C299.4 141.935 299.9 145.635 301.9 147.735C303.9 149.835 307.2 150.435 309.6 148.835C309.6 149.135 310.2 154.535 314.7 156.835C318.7 158.835 323.9 157.435 327 153.435C327.5 154.635 331 162.035 339.5 164.635C346.5 166.735 354.2 164.635 359.6 159.235C360 162.935 361.5 166.335 364.7 166.935C368 167.435 371.4 165.335 372.7 161.935C375.5 166.335 381.3 166.835 384.1 164.335C386.5 162.135 386.9 157.535 384.2 154.135C387.1 152.535 390.1 151.235 390.1 147.635C390.1 144.035 388.2 140.435 385.3 138.935C387.7 137.235 389.1 133.935 388.7 130.835C388.3 127.735 386.2 124.935 383.5 124.035C385.7 120.835 386.4 116.535 385.3 112.735C384.6 110.235 383 109.335 378.1 104.635C370.8 97.6348 371.6 97.6348 369.1 95.7348C362.8 91.0348 356 90.1348 353.3 89.8348C339.5 88.1348 328.8 95.3348 325.9 97.3348Z" fill="#992B1E"/>
<path d="M319.4 120.435C320.1 117.635 320.1 114.735 319.3 111.935C318.3 108.535 316.2 105.635 311.4 110.135C303 118.235 311 128.835 318 126.035L319.4 120.435Z" fill="#F29E79"/>
<path d="M312.6 113.235C314 112.835 315.6 113.335 316.7 114.335C317.7 115.435 318 117.035 317.5 118.335C317.2 119.135 316.7 119.835 316 120.335C315.8 120.535 315.4 120.335 315.2 120.135C315 119.835 315.2 119.535 315.4 119.335C316.4 118.635 316.8 117.235 316.5 116.135C316.4 116.135 316.4 116.135 316.3 116.135C316.1 116.135 316 116.135 315.8 116.135C315.7 116.135 315.6 116.135 315.6 116.135C315.6 116.135 315.6 116.135 315.5 116.135H315.4C315.2 116.135 315.1 116.235 314.9 116.235C314.8 116.235 314.8 116.335 314.7 116.335C314.7 116.335 314.6 116.335 314.6 116.435C314.5 116.535 314.3 116.635 314.2 116.635C314.2 116.635 314.1 116.635 314.1 116.735L314 116.835L313.9 116.935C313.8 117.035 313.7 117.135 313.6 117.235C313.6 117.235 313.6 117.335 313.5 117.335C313.5 117.435 313.4 117.435 313.4 117.535C313.3 117.735 312.9 117.935 312.6 117.735C312.3 117.535 312.2 117.235 312.4 116.935C313.1 115.735 314.5 114.935 315.9 114.935C315.2 114.135 314 113.835 313 114.135C312.2 114.535 311.9 113.435 312.6 113.235Z" fill="#E66239"/>
<path d="M364.9 144.735C353.1 152.235 340.8 149.035 333.7 147.235C329.8 146.235 317.6 143.035 314.4 134.435C314.2 133.835 314 133.335 313.9 132.735C313.7 131.835 313.4 130.435 313.3 128.435C313.3 126.935 313.3 125.235 313.6 123.035C313.9 120.935 314.4 118.535 315.3 115.635C315.4 115.235 315.5 114.935 315.6 114.635C316.2 112.835 316.8 111.035 317.5 109.535C318.3 107.635 319.1 105.935 319.8 104.435C322.6 99.0348 325.3 95.6348 326.1 94.6348C328 92.3348 329.5 90.8348 330.8 89.8348C331.9 88.9348 332.7 88.3348 333.3 88.0348C333.3 88.0348 337.5 85.3348 344.1 84.3348C346.6 83.9348 348 84.1348 348 84.1348C368.4 85.0348 377.3 94.6348 379.7 106.835C380.3 109.735 380.5 112.835 380.4 116.035C380.4 116.135 380.4 116.335 380.4 116.535C380.3 120.035 378.8 136.035 364.9 144.735Z" fill="#F29E79"/>
<path d="M354.8 85.8348C353.2 88.0348 351.4 90.1348 349.4 92.1348C349.2 92.4348 348.9 92.6348 348.7 92.8348C346.8 94.8348 344.7 96.6348 342.5 98.3348C334.8 104.335 325.7 108.535 316.2 110.535C315.9 107.835 315.8 102.335 318.7 96.5348C319.3 95.4348 319.9 94.3348 320.6 93.2348C322.4 90.6348 324.6 88.4348 327.2 86.6348C331 83.9348 335.6 82.2348 340.5 82.0348C345.9 81.7348 350.3 83.4348 353.1 84.8348C353.7 85.2348 354.3 85.5348 354.8 85.8348Z" fill="#992B1E"/>
<path d="M385.4 115.835C385.4 116.035 385.4 116.235 385.4 116.435C385.3 120.335 384.4 124.335 382.3 127.635C380.1 131.135 378.6 132.735 374.5 133.035C363 126.435 354.6 115.035 351.1 102.235C350.3 99.3348 349.8 96.3348 349.5 93.3348C349.5 92.9348 349.4 92.5348 349.4 92.0348C349.3 89.7348 349.3 87.4348 349.5 85.1348C350.7 84.9348 351.9 84.8348 353 84.7348C360.9 84.1348 368.3 85.4348 374.4 90.8348C377.2 93.2348 379.5 96.2348 381.2 99.4348C384 104.535 385.5 110.135 385.4 115.835Z" fill="#992B1E"/>
<path d="M339.7 112.835C339.3 114.035 339.9 115.235 339.5 116.435C339.3 117.035 339 117.435 338.4 117.435C337.9 117.435 337.4 117.435 336.9 117.835C336.2 118.435 336.3 119.535 336.7 120.235C337.4 121.335 338.8 121.435 340 121.535C340.4 121.535 340.5 120.935 340 120.835C339 120.735 337.5 120.635 337.1 119.535C337 119.135 337 118.735 337.2 118.335C337.5 117.935 338.1 118.035 338.5 118.035C339.4 117.935 340 117.135 340.2 116.235C340.4 115.135 340 114.035 340.3 112.935C340.5 112.635 339.8 112.435 339.7 112.835Z" fill="#DD541D"/>
<path d="M334.9 113.435C334.5 113.635 333.6 111.035 330.9 110.135C328.5 109.335 326.4 110.735 326.3 110.335C326.1 109.835 329.2 106.535 332.1 107.535C335 108.635 335.4 113.235 334.9 113.435Z" fill="#131313"/>
<path d="M359.2 120.335C358.8 120.535 357.9 117.935 355.2 117.035C352.8 116.235 350.7 117.635 350.6 117.235C350.4 116.735 353.5 113.435 356.4 114.435C359.4 115.535 359.7 120.035 359.2 120.335Z" fill="#131313"/>
<path d="M355.6 128.935C355.3 129.135 355.1 129.235 354.8 129.435C334.2 141.535 325 123.135 325 123.135C325.4 123.235 325.9 123.335 326.4 123.435L355.6 128.935Z" fill="#E66239"/>
<path d="M355.6 128.935C355.3 129.135 355.1 129.235 354.8 129.435C354.8 129.435 354.8 129.435 354.7 129.435C332.4 131.835 325 123.135 325 123.135C325.4 123.235 325.9 123.335 326.4 123.435L355.6 128.935Z" fill="#FFF7E6"/>
<path d="M367.4 137.935C368.3 135.235 369.9 132.735 372 130.735C374.6 128.335 378 127.135 379.6 133.435C382.4 144.735 369.9 149.535 365.6 143.335L367.4 137.935Z" fill="#F29E79"/>
<path d="M376.9 135.435C375.9 134.335 374.3 133.835 372.9 134.235C371.5 134.635 370.4 135.835 370.1 137.235C369.9 138.035 370 138.935 370.3 139.735C370.4 140.035 370.8 140.135 371.1 139.935C371.4 139.835 371.5 139.435 371.3 139.135C370.8 138.035 371.2 136.635 372.1 135.835C372.1 135.935 372.2 135.935 372.2 135.935C372.3 136.035 372.5 136.135 372.6 136.235C372.7 136.235 372.7 136.335 372.8 136.335C372.8 136.335 372.9 136.335 372.9 136.435C373 136.535 373.1 136.635 373.2 136.735C373.2 136.835 373.3 136.835 373.3 136.935C373.3 136.935 373.3 137.035 373.4 137.035C373.5 137.135 373.6 137.335 373.6 137.435V137.535V137.635C373.6 137.735 373.6 137.735 373.7 137.835C373.7 138.035 373.8 138.135 373.8 138.335V138.435C373.8 138.535 373.8 138.635 373.8 138.735C373.8 139.035 374 139.335 374.3 139.335C374.6 139.335 374.9 139.135 374.9 138.835C374.9 137.435 374.2 136.035 373 135.235C374 135.035 375.2 135.335 375.9 136.135C376.6 136.735 377.4 136.035 376.9 135.435Z" fill="#E66239"/>
<g opacity="0.38">
<path d="M321.1 112.235C321.1 112.435 320.9 112.535 320.7 112.535C320.5 112.535 320.4 112.335 320.4 112.135C320.4 111.935 320.6 111.835 320.8 111.835C321 111.935 321.1 112.035 321.1 112.235Z" fill="#DD541D"/>
<path d="M341.4 117.135C341.4 117.335 341.2 117.435 341 117.435C340.8 117.435 340.7 117.235 340.7 117.035C340.7 116.835 340.9 116.735 341.1 116.735C341.3 116.835 341.4 116.935 341.4 117.135Z" fill="#DD541D"/>
<path d="M331.5 118.335C331.5 118.535 331.3 118.635 331.1 118.635C330.9 118.635 330.8 118.435 330.8 118.235C330.8 118.035 331 117.935 331.2 117.935C331.4 118.035 331.5 118.235 331.5 118.335Z" fill="#DD541D"/>
<path d="M328 116.735C328 116.935 327.8 117.035 327.6 117.035C327.4 117.035 327.3 116.835 327.3 116.635C327.3 116.435 327.5 116.335 327.7 116.335C327.9 116.435 328.1 116.535 328 116.735Z" fill="#DD541D"/>
<path d="M331.6 115.635C331.6 115.835 331.4 115.935 331.2 115.935C331 115.935 330.9 115.735 330.9 115.535C330.9 115.335 331.1 115.235 331.3 115.235C331.6 115.335 331.7 115.435 331.6 115.635Z" fill="#DD541D"/>
<path d="M324.7 114.635C324.7 114.835 324.5 114.935 324.3 114.935C324.1 114.935 324 114.735 324 114.535C324 114.335 324.2 114.235 324.4 114.235C324.6 114.335 324.7 114.535 324.7 114.635Z" fill="#DD541D"/>
<path d="M344.8 120.035C344.8 120.235 344.6 120.335 344.4 120.335C344.2 120.335 344.1 120.135 344.1 119.935C344.1 119.735 344.3 119.635 344.5 119.635C344.8 119.735 344.9 119.835 344.8 120.035Z" fill="#DD541D"/>
<path d="M359.7 124.535C359.7 124.735 359.5 124.835 359.3 124.835C359.1 124.835 359 124.635 359 124.435C359 124.235 359.2 124.135 359.4 124.135C359.6 124.235 359.7 124.435 359.7 124.535Z" fill="#DD541D"/>
<path d="M358.9 120.935C358.9 121.135 358.7 121.235 358.5 121.235C358.3 121.235 358.2 121.035 358.2 120.835C358.2 120.635 358.4 120.535 358.6 120.535C358.8 120.635 358.9 120.735 358.9 120.935Z" fill="#DD541D"/>
<path d="M344.9 117.135C344.9 117.335 344.7 117.435 344.5 117.435C344.3 117.435 344.2 117.235 344.2 117.035C344.2 116.835 344.4 116.735 344.6 116.735C344.8 116.735 344.9 116.935 344.9 117.135Z" fill="#DD541D"/>
<path d="M355.3 124.135C355.3 124.335 355.1 124.435 354.9 124.435C354.7 124.435 354.6 124.235 354.6 124.035C354.6 123.835 354.8 123.735 355 123.735C355.2 123.735 355.4 123.935 355.3 124.135Z" fill="#DD541D"/>
<path d="M348.3 121.735C348.3 121.935 348.1 122.035 347.9 122.035C347.7 122.035 347.6 121.835 347.6 121.635C347.6 121.435 347.8 121.335 348 121.335C348.3 121.335 348.4 121.535 348.3 121.735Z" fill="#DD541D"/>
<path d="M334.9 114.235C334.9 114.435 334.7 114.535 334.5 114.535C334.3 114.535 334.2 114.335 334.2 114.135C334.2 113.935 334.4 113.835 334.6 113.835C334.9 113.935 335 114.135 334.9 114.235Z" fill="#DD541D"/>
</g>
<path d="M348.7 92.8348C346.8 94.8348 344.7 96.6348 342.5 98.3348C342.3 98.1348 342 97.9348 341.8 97.7348C341.1 97.1348 340.4 96.4348 339.8 95.7348C336.3 96.8348 332.5 97.0348 329 96.4348C328.3 96.3348 327.5 96.1348 326.8 95.9348C324.6 95.3348 322.5 94.4348 320.6 93.2348C322.4 90.6348 324.6 88.4348 327.2 86.6348C327.8 87.1348 328.4 87.5348 329 87.9348C332.2 89.8348 336.4 90.3348 340 89.4348C341.6 89.0348 343.1 88.3348 344.3 87.4348C344.8 88.7348 345.6 90.0348 346.6 91.0348C347.2 91.8348 347.9 92.4348 348.7 92.8348Z" fill="#992B1E"/>
<path d="M385.4 115.835C385.4 116.035 385.4 116.235 385.4 116.435C384.8 115.935 384.3 115.335 383.7 114.735C381.9 112.835 380.5 110.635 379.3 108.335C376.4 110.135 372.3 110.435 369 108.935C365.7 107.535 362.7 104.635 362.3 101.335C358.8 102.735 354.8 102.935 351.1 102.135C350.3 99.2347 349.8 96.2347 349.5 93.2347C350.4 93.7347 351.4 94.1347 352.4 94.4347C355.5 95.2347 359 94.7347 361.7 93.2347C362.2 92.9347 362.7 92.6347 363.2 92.2347C363.5 92.8347 363.8 93.4347 364.2 94.0347C366.1 96.7347 369.1 98.8347 372.5 99.7347C373.4 99.9347 374.3 100.135 375.2 100.135C377.2 100.235 379.3 100.035 381.2 99.3347C384 104.535 385.5 110.135 385.4 115.835Z" fill="#992B1E"/>
<path d="M327.5 120.435C322.3 119.235 319 113.835 320.2 108.335C321.4 102.835 326.7 99.3348 331.9 100.435C337.1 101.635 340.4 107.035 339.2 112.535C338 118.035 332.7 121.535 327.5 120.435ZM331.5 102.235C327.2 101.335 323 104.235 321.9 108.735C320.9 113.235 323.5 117.735 327.8 118.635C332.1 119.535 336.3 116.635 337.4 112.135C338.4 107.635 335.8 103.135 331.5 102.235Z" fill="#007AFF"/>
<path d="M352.3 128.135C347.1 126.935 343.8 121.535 345 116.035C346.2 110.535 351.5 107.035 356.7 108.135C361.9 109.335 365.2 114.735 364 120.235C362.8 125.835 357.5 129.335 352.3 128.135ZM356.3 110.035C352 109.135 347.8 112.035 346.7 116.535C345.7 121.035 348.3 125.535 352.6 126.435C356.9 127.335 361.1 124.435 362.2 119.935C363.2 115.435 360.6 110.935 356.3 110.035Z" fill="#007AFF"/>
<path d="M345.6 118.035C345.4 117.935 345.1 117.835 345 117.635C343.7 115.435 340.6 114.335 338.2 115.235C337.7 115.435 337.2 115.135 337 114.735C336.8 114.235 337.1 113.735 337.5 113.535C340.8 112.335 344.7 113.735 346.5 116.635C346.8 117.035 346.6 117.635 346.2 117.935C346 118.035 345.8 118.135 345.6 118.035Z" fill="#007AFF"/>
<path d="M377 129.035C376.7 128.935 376.5 128.835 376.4 128.535C375.2 126.135 373.1 124.135 370.5 123.135C368 122.135 365.1 122.135 362.5 123.035C362 123.235 361.5 122.935 361.3 122.535C361.1 122.035 361.4 121.535 361.8 121.335C364.8 120.235 368.1 120.235 371.1 121.435C374 122.635 376.5 124.935 377.9 127.735C378.1 128.235 377.9 128.735 377.5 128.935C377.4 129.035 377.2 129.035 377 129.035Z" fill="#007AFF"/>
<path d="M272.3 143.8C272.3 143.8 265.2 143.4 253.2 134.8C254.4 130.7 254.8 126.3 254.2 121.9C251.7 102.4 231.5 88.9 209 91.7C186.5 94.6 170.4 112.7 172.9 132.3C175.4 151.8 195.6 165.3 218.1 162.5C228.9 161.1 238.2 156.2 244.7 149.4C251.5 150.2 261.2 149.8 272.3 143.8Z" fill="#131313"/>
<path d="M273.2 139.8C273.2 139.8 266.2 138.5 255.4 128.4C257.1 124.5 258.1 120.2 258.1 115.7C258.1 96.0001 239.7 80.0001 217.1 80.0001C194.5 80.0001 176.1 96.0001 176.1 115.7C176.1 135.4 194.5 151.4 217.1 151.4C228 151.4 237.8 147.7 245.1 141.7C251.8 143.6 261.5 144.3 273.2 139.8Z" fill="#007AFF"/>
<path d="M213.4 79.9C213.4 80.4 213.3 80.9 213.2 81.3C211.3 93.7 198.2 102.1 183.9 99.9C182.7 99.7 181.6 99.5 180.5 99.2C186.7 88.5 199 81 213.4 79.9Z" fill="#131313"/>
<path d="M242.884 121.041C242.857 121.268 242.764 121.468 242.604 121.641C242.444 121.814 242.237 121.901 241.984 121.901C241.584 121.901 241.29 121.828 241.104 121.681C240.917 121.521 240.824 121.234 240.824 120.821C240.824 120.261 240.857 119.648 240.924 118.981C240.977 118.208 241.004 117.614 241.004 117.201C241.004 116.988 240.99 116.721 240.964 116.401C240.937 116.108 240.924 115.888 240.924 115.741C240.884 115.514 240.79 115.334 240.644 115.201C240.51 115.068 240.297 114.954 240.004 114.861C239.884 114.808 239.784 114.721 239.704 114.601C239.624 114.468 239.584 114.348 239.584 114.241C239.584 113.934 239.704 113.701 239.944 113.541C240.184 113.381 240.477 113.301 240.824 113.301C241.21 113.301 241.544 113.434 241.824 113.701C242.104 113.968 242.317 114.301 242.464 114.701C242.77 114.261 243.144 113.908 243.584 113.641C244.037 113.374 244.477 113.241 244.904 113.241C245.45 113.241 245.91 113.334 246.284 113.521C246.67 113.694 246.864 114.001 246.864 114.441C246.864 114.694 246.75 114.961 246.524 115.241C246.31 115.508 246.09 115.641 245.864 115.641C245.69 115.641 245.484 115.561 245.244 115.401C245.15 115.334 245.044 115.281 244.924 115.241C244.817 115.188 244.704 115.161 244.584 115.161C244.37 115.161 244.17 115.194 243.984 115.261C243.797 115.328 243.67 115.408 243.604 115.501C243.39 115.834 243.23 116.134 243.124 116.401C243.03 116.668 242.984 116.954 242.984 117.261C242.984 117.488 242.977 117.668 242.964 117.801L242.944 118.941L242.964 119.701C242.964 120.261 242.937 120.708 242.884 121.041Z" fill="white"/>
<path d="M229.97 115.101C229.864 115.101 229.77 115.061 229.69 114.981C229.61 114.888 229.57 114.781 229.57 114.661C229.57 114.274 229.697 113.981 229.95 113.781C230.204 113.568 230.517 113.461 230.89 113.461C231.41 113.461 231.857 113.601 232.23 113.881C232.617 114.148 232.81 114.534 232.81 115.041C232.81 115.174 232.784 115.681 232.73 116.561C232.677 117.574 232.65 118.248 232.65 118.581C232.65 119.048 232.737 119.428 232.91 119.721C233.097 120.001 233.384 120.141 233.77 120.141C234.517 120.141 235.09 119.728 235.49 118.901C235.904 118.061 236.177 117.034 236.31 115.821C236.364 115.288 236.444 114.728 236.55 114.141C236.604 113.821 236.677 113.588 236.77 113.441C236.864 113.294 237.044 113.221 237.31 113.221C237.484 113.221 237.684 113.261 237.91 113.341C238.15 113.421 238.304 113.528 238.37 113.661C238.45 113.861 238.49 114.081 238.49 114.321C238.49 114.654 238.444 115.088 238.35 115.621C238.244 116.154 238.17 116.734 238.13 117.361C238.104 117.921 238.19 118.508 238.39 119.121C238.59 119.734 238.877 120.134 239.25 120.321C239.677 120.534 239.89 120.728 239.89 120.901C239.89 121.181 239.79 121.401 239.59 121.561C239.39 121.721 239.197 121.801 239.01 121.801C238.517 121.801 238.07 121.621 237.67 121.261C237.284 120.901 237.004 120.454 236.83 119.921C236.55 120.348 236.277 120.701 236.01 120.981C235.757 121.248 235.43 121.474 235.03 121.661C234.63 121.834 234.137 121.921 233.55 121.921C232.857 121.921 232.224 121.674 231.65 121.181C231.09 120.688 230.81 119.841 230.81 118.641C230.81 118.308 230.817 117.954 230.83 117.581C230.857 117.208 230.87 116.941 230.87 116.781C230.91 116.301 230.93 115.861 230.93 115.461C230.93 115.341 230.884 115.241 230.79 115.161C230.71 115.081 230.617 115.041 230.51 115.041C230.43 115.041 230.337 115.054 230.23 115.081C230.137 115.094 230.05 115.101 229.97 115.101Z" fill="white"/>
<path d="M229.114 115.421C229.221 115.608 229.307 115.881 229.374 116.241C229.441 116.588 229.474 116.901 229.474 117.181C229.474 117.541 229.434 117.941 229.354 118.381C229.274 118.821 229.201 119.161 229.134 119.401C228.214 121.081 226.854 121.921 225.054 121.921C224.387 121.921 223.707 121.701 223.014 121.261C222.321 120.821 221.841 120.314 221.574 119.741C221.214 118.608 221.034 117.881 221.034 117.561C221.034 117.028 221.147 116.461 221.374 115.861C221.614 115.261 221.914 114.741 222.274 114.301C222.514 113.994 222.927 113.734 223.514 113.521C224.101 113.294 224.634 113.181 225.114 113.181C226.047 113.181 226.834 113.361 227.474 113.721C228.127 114.068 228.674 114.634 229.114 115.421ZM227.374 118.641C227.441 118.508 227.474 118.061 227.474 117.301C227.474 116.914 227.401 116.534 227.254 116.161C227.121 115.788 226.921 115.468 226.654 115.201C226.627 115.174 226.554 115.134 226.434 115.081C226.314 115.014 226.147 114.954 225.934 114.901C225.734 114.834 225.501 114.801 225.234 114.801C224.487 114.801 223.941 115.101 223.594 115.701C223.247 116.301 223.074 116.981 223.074 117.741C223.074 117.861 223.114 118.108 223.194 118.481C223.274 118.854 223.334 119.094 223.374 119.201C223.481 119.388 223.694 119.608 224.014 119.861C224.347 120.101 224.707 120.221 225.094 120.221C225.694 120.221 226.167 120.081 226.514 119.801C226.874 119.508 227.161 119.121 227.374 118.641Z" fill="white"/>
<path d="M218.373 109.001C218.839 109.041 219.233 109.154 219.553 109.341C219.873 109.528 220.033 109.828 220.033 110.241C220.033 110.548 219.899 110.794 219.633 110.981C219.379 111.154 219.059 111.241 218.673 111.241C218.273 111.241 217.993 111.148 217.833 110.961C217.686 110.774 217.613 110.581 217.613 110.381C217.613 109.994 217.659 109.668 217.753 109.401C217.846 109.121 218.053 108.988 218.373 109.001ZM219.033 113.161C219.353 113.161 219.599 113.254 219.773 113.441C219.946 113.614 220.033 113.801 220.033 114.001C220.033 114.121 220.019 114.328 219.993 114.621C219.953 115.061 219.933 115.501 219.933 115.941C219.933 116.501 219.953 117.054 219.993 117.601C220.019 118.161 220.033 118.568 220.033 118.821C220.086 120.474 220.113 121.821 220.113 122.861C220.113 123.874 219.859 124.634 219.353 125.141C218.859 125.661 218.173 125.921 217.293 125.921C217.026 125.921 216.739 125.814 216.433 125.601C216.126 125.401 215.973 125.181 215.973 124.941C215.973 124.741 216.026 124.581 216.133 124.461C216.239 124.341 216.366 124.281 216.513 124.281C216.606 124.281 216.726 124.301 216.873 124.341C217.033 124.381 217.153 124.401 217.233 124.401C217.459 124.401 217.639 124.368 217.773 124.301C217.906 124.234 218.013 124.068 218.093 123.801C218.173 123.534 218.213 123.121 218.213 122.561C218.213 119.614 218.139 117.341 217.993 115.741C217.913 114.941 217.873 114.334 217.873 113.921C217.873 113.734 217.966 113.561 218.153 113.401C218.353 113.241 218.646 113.161 219.033 113.161Z" fill="white"/>
<path d="M216.504 120.301C216.571 120.328 216.677 120.361 216.824 120.401C216.971 120.441 217.077 120.481 217.144 120.521C217.211 120.561 217.244 120.621 217.244 120.701C217.257 121.021 217.137 121.288 216.884 121.501C216.644 121.701 216.357 121.801 216.024 121.801C215.504 121.801 215.097 121.661 214.804 121.381C214.511 121.101 214.297 120.674 214.164 120.101C214.111 119.874 214.084 119.561 214.084 119.161C214.084 118.934 214.097 118.568 214.124 118.061C214.151 117.528 214.164 117.101 214.164 116.781C214.164 116.314 214.031 115.908 213.764 115.561C213.511 115.201 213.151 115.021 212.684 115.021C212.404 115.021 212.111 115.108 211.804 115.281C211.497 115.441 211.284 115.641 211.164 115.881C210.964 116.268 210.824 116.688 210.744 117.141C210.597 117.941 210.524 118.774 210.524 119.641C210.524 120.054 210.531 120.374 210.544 120.601C210.544 120.654 210.544 120.761 210.544 120.921C210.557 121.068 210.544 121.208 210.504 121.341C210.477 121.461 210.424 121.574 210.344 121.681C210.277 121.748 210.171 121.801 210.024 121.841C209.891 121.894 209.764 121.921 209.644 121.921C209.457 121.921 209.224 121.841 208.944 121.681C208.664 121.521 208.504 121.341 208.464 121.141L208.444 120.801C208.444 120.681 208.457 120.541 208.484 120.381C208.644 119.448 208.724 118.634 208.724 117.941C208.724 117.634 208.717 117.394 208.704 117.221L208.684 116.281C208.684 115.961 208.604 115.654 208.444 115.361C208.284 115.054 208.097 114.901 207.884 114.901C207.817 114.901 207.724 114.928 207.604 114.981C207.484 115.021 207.384 115.041 207.304 115.041C207.171 115.041 207.024 114.974 206.864 114.841C206.717 114.708 206.644 114.568 206.644 114.421C206.644 114.141 206.737 113.914 206.924 113.741C207.124 113.581 207.317 113.454 207.504 113.361C207.704 113.268 207.931 113.221 208.184 113.221C208.397 113.221 208.571 113.241 208.704 113.281C208.837 113.321 209.017 113.408 209.244 113.541C209.364 113.608 209.504 113.754 209.664 113.981C209.824 114.208 209.957 114.528 210.064 114.941C210.411 114.301 210.837 113.854 211.344 113.601C211.864 113.334 212.524 113.201 213.324 113.201C213.631 113.201 213.957 113.301 214.304 113.501C214.664 113.701 214.971 113.934 215.224 114.201C215.464 114.494 215.664 114.861 215.824 115.301C215.984 115.728 216.064 116.114 216.064 116.461C216.064 116.661 216.051 116.988 216.024 117.441C215.984 117.801 215.964 118.181 215.964 118.581C215.964 119.514 216.144 120.088 216.504 120.301Z" fill="white"/>
<path d="M206.27 115.421C206.376 115.608 206.463 115.881 206.53 116.241C206.596 116.588 206.63 116.901 206.63 117.181C206.63 117.701 206.516 118.441 206.29 119.401C205.37 121.081 204.01 121.921 202.21 121.921C201.543 121.921 200.863 121.701 200.17 121.261C199.476 120.821 198.996 120.314 198.73 119.741C198.37 118.594 198.19 117.868 198.19 117.561C198.19 117.028 198.303 116.461 198.53 115.861C198.77 115.261 199.07 114.741 199.43 114.301C199.656 113.994 200.063 113.734 200.65 113.521C201.236 113.294 201.77 113.181 202.25 113.181C203.183 113.181 203.976 113.361 204.63 113.721C205.283 114.068 205.83 114.634 206.27 115.421ZM204.53 118.641C204.596 118.468 204.63 118.021 204.63 117.301C204.63 116.914 204.556 116.534 204.41 116.161C204.276 115.788 204.076 115.468 203.81 115.201C203.783 115.174 203.71 115.134 203.59 115.081C203.47 115.014 203.303 114.954 203.09 114.901C202.89 114.834 202.656 114.801 202.39 114.801C201.643 114.801 201.096 115.101 200.75 115.701C200.403 116.301 200.23 116.981 200.23 117.741C200.23 117.874 200.263 118.128 200.33 118.501C200.41 118.874 200.476 119.108 200.53 119.201C200.57 119.294 200.67 119.428 200.83 119.601C201.003 119.761 201.21 119.908 201.45 120.041C201.703 120.161 201.963 120.221 202.23 120.221C202.83 120.221 203.31 120.081 203.67 119.801C204.03 119.508 204.316 119.121 204.53 118.641Z" fill="white"/>
<path d="M194.82 115.081C195.793 115.201 196.513 115.514 196.98 116.021C197.46 116.514 197.7 117.128 197.7 117.861C197.7 118.594 197.427 119.288 196.88 119.941C196.347 120.594 195.66 121.101 194.82 121.461C194.447 121.608 193.953 121.714 193.34 121.781C192.74 121.848 192.12 121.881 191.48 121.881C190.413 121.881 189.32 121.781 188.2 121.581C188 121.541 187.787 121.441 187.56 121.281C187.347 121.121 187.24 120.888 187.24 120.581C187.227 119.354 187.18 117.648 187.1 115.461L187.08 114.361C187.027 112.654 187 111.314 187 110.341C187 110.168 187.1 109.968 187.3 109.741C187.513 109.501 187.767 109.368 188.06 109.341C188.233 109.341 188.4 109.334 188.56 109.321C190.067 109.174 191.073 109.101 191.58 109.101C192.58 109.101 193.46 109.201 194.22 109.401C194.993 109.588 195.633 109.934 196.14 110.441C196.327 110.654 196.48 110.928 196.6 111.261C196.72 111.581 196.78 111.894 196.78 112.201C196.793 112.854 196.62 113.454 196.26 114.001C195.913 114.548 195.433 114.908 194.82 115.081ZM191.7 110.801C191.247 110.801 190.773 110.828 190.28 110.881C189.8 110.934 189.393 111.001 189.06 111.081L189.18 114.861L189.9 114.841C191.06 114.721 191.913 114.621 192.46 114.541C192.807 114.461 193.147 114.308 193.48 114.081C193.813 113.841 194.087 113.594 194.3 113.341C194.527 113.074 194.64 112.874 194.64 112.741C194.64 112.541 194.6 112.341 194.52 112.141C194.44 111.928 194.353 111.774 194.26 111.681C193.9 111.334 193.533 111.101 193.16 110.981C192.787 110.861 192.3 110.801 191.7 110.801ZM189.24 120.121C189.92 120.214 190.567 120.261 191.18 120.261C192.527 120.261 193.587 120.088 194.36 119.741C195.147 119.381 195.54 118.701 195.54 117.701C195.54 117.301 195.24 116.968 194.64 116.701C194.04 116.434 193.393 116.301 192.7 116.301C192.233 116.301 191.64 116.354 190.92 116.461C190.347 116.541 189.787 116.594 189.24 116.621C189.267 117.421 189.28 117.928 189.28 118.141C189.28 118.554 189.273 118.868 189.26 119.081L189.24 120.121Z" fill="white"/>
<path d="M137.5 84.2C137.5 84.2 143.1 83.2 151.6 75.2C150.2 72.1 149.5 68.7 149.5 65.2C149.4 49.6 163.9 37 181.8 37C199.7 37 214.2 49.6 214.2 65.2C214.2 80.8 199.7 93.4 181.8 93.4C173.2 93.4 165.4 90.5 159.6 85.8C154.4 87.1 146.7 87.7 137.5 84.2Z" fill="#007AFF"/>
<path d="M200.858 60.4C200.858 61.12 200.818 62.1733 200.738 63.56C200.658 64.8933 200.618 65.9133 200.618 66.62C200.618 66.8066 200.631 67.1933 200.658 67.78C200.644 68.0066 200.564 68.18 200.418 68.3C200.271 68.4066 200.098 68.46 199.898 68.46C199.684 68.46 199.491 68.4066 199.318 68.3C199.144 68.1933 199.038 68.0533 198.998 67.88C198.838 66.7866 198.758 65.48 198.758 63.96L198.778 60.84C198.778 60.3466 198.838 59.9466 198.958 59.64C199.091 59.32 199.371 59.16 199.798 59.16C200.158 59.16 200.424 59.28 200.598 59.52C200.771 59.7466 200.858 60.04 200.858 60.4ZM199.798 69.5C200.704 69.5 201.158 69.84 201.158 70.52C201.158 70.8666 201.044 71.1866 200.818 71.48C200.604 71.76 200.331 71.9 199.998 71.9C199.598 71.9 199.271 71.78 199.018 71.54C198.764 71.2866 198.638 70.9933 198.638 70.66C198.638 70.3666 198.744 70.1 198.958 69.86C199.184 69.62 199.464 69.5 199.798 69.5Z" fill="white"/>
<path d="M197.281 65.58C197.388 65.7667 197.475 66.04 197.541 66.4C197.608 66.7467 197.641 67.06 197.641 67.34C197.641 67.7 197.601 68.1 197.521 68.54C197.441 68.98 197.368 69.32 197.301 69.56C196.381 71.24 195.021 72.08 193.221 72.08C192.555 72.08 191.875 71.86 191.181 71.42C190.488 70.98 190.008 70.4734 189.741 69.9C189.381 68.7667 189.201 68.04 189.201 67.72C189.201 67.1867 189.315 66.62 189.541 66.02C189.781 65.42 190.081 64.9 190.441 64.46C190.681 64.1534 191.095 63.8934 191.681 63.68C192.268 63.4534 192.801 63.34 193.281 63.34C194.215 63.34 195.001 63.52 195.641 63.88C196.295 64.2267 196.841 64.7934 197.281 65.58ZM195.541 68.8C195.608 68.6667 195.641 68.22 195.641 67.46C195.641 67.0734 195.568 66.6934 195.421 66.32C195.288 65.9467 195.088 65.6267 194.821 65.36C194.795 65.3334 194.721 65.2934 194.601 65.24C194.481 65.1734 194.315 65.1134 194.101 65.06C193.901 64.9934 193.668 64.96 193.401 64.96C192.655 64.96 192.108 65.26 191.761 65.86C191.415 66.46 191.241 67.14 191.241 67.9C191.241 68.02 191.281 68.2667 191.361 68.64C191.441 69.0134 191.501 69.2534 191.541 69.36C191.648 69.5467 191.861 69.7667 192.181 70.02C192.515 70.26 192.875 70.38 193.261 70.38C193.861 70.38 194.335 70.24 194.681 69.96C195.041 69.6667 195.328 69.28 195.541 68.8Z" fill="white"/>
<path d="M187.177 68.9C187.177 69.4067 187.251 69.8 187.397 70.08C187.557 70.3467 187.757 70.48 187.997 70.48C188.131 70.48 188.257 70.4733 188.377 70.46C188.497 70.4333 188.617 70.42 188.737 70.42C188.871 70.42 188.984 70.4867 189.077 70.62C189.184 70.7533 189.237 70.9 189.237 71.06C189.237 71.38 189.084 71.6333 188.777 71.82C188.484 71.9933 188.084 72.08 187.577 72.08C187.217 72.08 186.851 71.9733 186.477 71.76C186.117 71.5333 185.817 71.1867 185.577 70.72C185.337 70.24 185.217 69.6467 185.217 68.94C185.217 67.42 185.244 66.1333 185.297 65.08C185.364 63.8267 185.397 62.2467 185.397 60.34C185.397 59.74 185.431 59.32 185.497 59.08C185.577 58.8933 185.704 58.7533 185.877 58.66C186.064 58.5533 186.257 58.5 186.457 58.5C186.657 58.5 186.831 58.5333 186.977 58.6C187.137 58.6667 187.244 58.7733 187.297 58.92C187.351 59.08 187.384 59.24 187.397 59.4C187.424 59.5467 187.437 59.76 187.437 60.04C187.437 60.5867 187.417 61.1133 187.377 61.62C187.351 62.2333 187.337 62.68 187.337 62.96C187.231 65.3067 187.177 67.2867 187.177 68.9Z" fill="white"/>
<path d="M184.808 71.04C184.808 71.3333 184.648 71.58 184.328 71.78C184.021 71.98 183.734 72.08 183.468 72.08C182.961 72.08 182.554 72.02 182.248 71.9C181.954 71.7667 181.681 71.5267 181.428 71.18C181.081 71.4867 180.608 71.72 180.008 71.88C179.408 72.0267 178.854 72.1 178.348 72.1C177.521 72.1 176.841 71.88 176.308 71.44C175.774 70.9867 175.508 70.3267 175.508 69.46C175.508 69.0867 175.608 68.7467 175.808 68.44C176.008 68.12 176.281 67.84 176.628 67.6C177.014 67.3467 177.454 67.1533 177.948 67.02C178.441 66.8733 178.954 66.8 179.488 66.8C179.768 66.8 180.101 66.8533 180.488 66.96C180.874 67.0667 181.174 67.18 181.388 67.3V66.98C181.388 66.26 181.214 65.7667 180.868 65.5C180.521 65.22 179.961 65.08 179.188 65.08C178.961 65.08 178.734 65.1267 178.508 65.22C178.294 65.3133 178.048 65.44 177.768 65.6C177.394 65.8 177.041 65.9 176.708 65.9C176.588 65.9 176.474 65.82 176.368 65.66C176.261 65.4867 176.208 65.3333 176.208 65.2C176.208 64.8133 176.388 64.48 176.748 64.2C177.121 63.92 177.561 63.7133 178.068 63.58C178.574 63.4333 179.028 63.36 179.428 63.36C179.828 63.36 180.288 63.44 180.808 63.6C181.328 63.7467 181.754 63.9533 182.088 64.22C182.488 64.5667 182.794 64.9733 183.008 65.44C183.234 65.8933 183.348 66.3933 183.348 66.94C183.348 67.1133 183.334 67.3733 183.308 67.72C183.281 68.0933 183.268 68.4133 183.268 68.68C183.268 68.8 183.254 68.98 183.228 69.22C183.201 69.5133 183.188 69.7467 183.188 69.92C183.188 70.08 183.248 70.22 183.368 70.34C183.488 70.4467 183.628 70.5 183.788 70.5L184.348 70.48C184.494 70.48 184.608 70.5333 184.688 70.64C184.768 70.7467 184.808 70.88 184.808 71.04ZM178.368 70.52C178.941 70.52 179.421 70.46 179.808 70.34C180.194 70.22 180.661 70 181.208 69.68C181.261 69.4533 181.294 69.1533 181.308 68.78C180.574 68.4333 179.968 68.26 179.488 68.26C178.941 68.26 178.454 68.36 178.028 68.56C177.601 68.76 177.388 69.1133 177.388 69.62C177.388 69.8733 177.494 70.0867 177.708 70.26C177.921 70.4333 178.141 70.52 178.368 70.52Z" fill="white"/>
<path d="M172.26 64.84C172.247 64.6267 172.24 64.3067 172.24 63.88V63.12C172.24 62.6133 172.227 62.2333 172.2 61.98C172.173 61.7667 172.16 61.2133 172.16 60.32C172.16 60 172.253 59.7533 172.44 59.58C172.64 59.3933 172.907 59.3 173.24 59.3C173.667 59.3 173.953 59.3933 174.1 59.58C174.247 59.7667 174.32 60.0733 174.32 60.5V61.26L174.3 63.46C174.287 63.8867 174.28 64.5267 174.28 65.38L174.3 67.02C174.313 67.2733 174.32 67.6267 174.32 68.08C174.32 68.44 174.333 68.9533 174.36 69.62C174.387 70.2333 174.4 70.6933 174.4 71C174.4 71.2533 174.327 71.4867 174.18 71.7C174.047 71.9133 173.86 72.02 173.62 72.02C172.687 72.02 172.22 71.7067 172.22 71.08C172.22 70.7333 172.233 70.3467 172.26 69.92C172.287 69.6133 172.3 69.1467 172.3 68.52C172.3 68.08 172.287 67.4467 172.26 66.62C171.633 66.6733 170.553 66.7 169.02 66.7C168.06 66.7 167.313 66.7 166.78 66.7C166.247 66.6867 165.86 66.6533 165.62 66.6L165.6 68.9C165.6 69.0467 165.633 69.44 165.7 70.08C165.767 70.5067 165.8 70.88 165.8 71.2C165.8 71.4 165.68 71.5933 165.44 71.78C165.213 71.9533 165 72.04 164.8 72.04C164.32 72.04 163.993 71.9267 163.82 71.7C163.647 71.46 163.56 71.1 163.56 70.62L163.54 69.04C163.527 68.8533 163.52 68.5933 163.52 68.26C163.52 67.7667 163.507 67.0933 163.48 66.24C163.453 65.4667 163.44 64.9067 163.44 64.56C163.44 64.04 163.453 63.3133 163.48 62.38C163.507 61.5 163.52 60.8467 163.52 60.42C163.52 59.9933 163.627 59.7067 163.84 59.56C164.053 59.4133 164.293 59.34 164.56 59.34C165.307 59.34 165.68 59.5867 165.68 60.08C165.68 60.96 165.66 61.8 165.62 62.6C165.593 63.6133 165.58 64.3533 165.58 64.82C165.967 64.9133 166.373 64.9733 166.8 65C167.227 65.0267 167.827 65.04 168.6 65.04C170.173 65.04 171.393 64.9733 172.26 64.84Z" fill="white"/>
<path d="M134.736 294.467C136.178 297.592 136.899 300.836 136.899 303.961C137.139 313.334 131.852 322.347 122.839 326.432C113.826 330.518 103.612 328.715 96.6421 322.467C94.2387 320.304 92.316 317.66 90.874 314.536C90.2731 313.094 89.6723 311.652 89.3118 310.089C86.6681 299.034 92.0757 287.377 102.771 282.45C113.466 277.524 125.843 281.129 132.452 290.382C133.294 291.703 134.135 293.025 134.736 294.467Z" fill="#E6F2FF"/>
<path d="M129.088 287.137C130.53 290.262 131.251 293.506 131.251 296.63C131.491 306.004 126.204 315.016 117.191 319.102C108.178 323.188 97.9639 321.385 90.9941 315.136C88.5908 312.973 86.6681 310.33 85.226 307.205C84.6252 305.763 84.0244 304.321 83.6638 302.759C81.0201 291.704 86.4277 280.047 97.1228 275.12C107.818 270.193 120.195 273.798 126.804 283.051C127.646 284.373 128.487 285.695 129.088 287.137Z" fill="#D53F36"/>
<path d="M126.804 283.051L83.6638 302.759C81.0201 291.704 86.4277 280.047 97.1228 275.12C107.818 270.313 120.195 273.919 126.804 283.051Z" fill="#131313"/>
<path d="M131.251 296.63C131.491 306.004 126.204 315.016 117.191 319.102C108.178 323.188 97.9639 321.385 90.9941 315.136L131.251 296.63Z" fill="#FDDA5F"/>
<path d="M327.526 81.0597C326.613 83.2167 325.286 85.0419 323.793 86.5352C319.23 90.9323 312.261 92.4256 306.038 89.7708C299.816 87.116 296.083 81.1427 296 74.7545C296 72.5975 296.415 70.3575 297.327 68.2005C297.742 67.2049 298.24 66.2923 298.821 65.3797C303.135 58.9916 311.514 56.3368 318.815 59.4064C326.198 62.559 330.098 70.3575 328.521 77.9071C328.273 79.0686 327.941 80.1471 327.526 81.0597Z" fill="#131313"/>
<path d="M328.19 75.833C324.871 82.3871 317.819 85.7886 310.933 84.71C310.27 84.6271 309.689 84.4612 309.025 84.2952C308.03 84.0463 307.034 83.6315 306.038 83.1337C303.964 82.0552 302.222 80.6449 300.812 78.9856C296.747 74.0908 295.668 67.1219 298.738 61.0657C301.807 55.0094 308.03 51.6909 314.335 52.0227C316.492 52.1886 318.649 52.6864 320.723 53.7649C321.718 54.2627 322.548 54.8434 323.378 55.4242C324.207 56.0879 324.954 56.7516 325.618 57.4983C330.098 62.3931 331.259 69.6108 328.19 75.833Z" fill="white"/>
<path d="M328.19 75.8331C324.871 82.3871 317.819 85.7886 310.933 84.7101L324.954 56.8346C325.203 57.0835 325.535 57.2494 325.784 57.4983C330.098 62.3931 331.259 69.6109 328.19 75.8331Z" fill="#D53F36"/>
<path d="M300.895 78.9856C296.83 74.0908 295.751 67.1219 298.821 61.0657C301.89 55.0094 308.113 51.6909 314.418 52.0227L300.895 78.9856Z" fill="#4887FC"/>
<path d="M329.9 293.8C329.6 295.8 328.9 297.6 327.9 299.1C325 303.7 319.5 306.4 313.8 305.5C308.1 304.6 303.7 300.4 302.3 295.1C301.8 293.3 301.7 291.4 302 289.4C302.1 288.5 302.4 287.6 302.7 286.8C304.9 280.6 311.4 276.6 318.1 277.7C324.9 278.8 329.8 284.5 330 291.1C330.1 292 330.1 292.9 329.9 293.8Z" fill="#131313"/>
<path d="M321.8 298.6C321.1 299 320.4 299.4 319.7 299.7C319 300 318.2 300.2 317.4 300.4C317 300.5 316.5 300.6 316.1 300.6C314.5 300.8 312.8 300.7 311.2 300.3C308 299.5 305 297.6 303 294.9C302.5 294.3 302.1 293.6 301.8 292.8C301.6 292.5 301.5 292.2 301.4 291.8C301.2 291.4 301.1 291 301 290.6C300.8 289.9 300.6 289.2 300.5 288.5C300 284.9 300.9 281.2 303 278.3C303.9 277 305.1 275.8 306.5 274.9C306.7 274.8 306.9 274.6 307.1 274.5C307.8 274.1 308.5 273.7 309.2 273.4C310 273.1 310.7 272.9 311.5 272.7C317.2 271.4 323.1 273.9 326.3 278.7C326.6 279.1 326.8 279.6 327.1 280C327.3 280.4 327.5 280.8 327.6 281.2C327.8 281.7 328 282.3 328.1 282.8C328.3 283.4 328.4 284 328.5 284.6C329.1 290.2 326.6 295.7 321.8 298.6Z" fill="#007AFF"/>
<path d="M316.1 300.6C314.5 300.8 312.8 300.7 311.2 300.3L307.5 290.6L305.9 286.4L302.8 278.3C303.7 277 304.9 275.8 306.3 274.9L310.1 284.8L311.7 289L316.1 300.6Z" fill="#FDDA5F"/>
<path d="M328 282.9L311.7 289.1L307.5 290.7L301.7 292.9C301.5 292.6 301.4 292.3 301.3 291.9C301.1 291.5 301 291.1 300.9 290.7C300.7 290 300.5 289.3 300.4 288.6L305.9 286.5L310.1 284.9L326.2 278.8C326.5 279.2 326.7 279.7 327 280.1C327.2 280.5 327.4 280.9 327.5 281.3C327.7 281.8 327.9 282.4 328 282.9Z" fill="#FDDA5F"/>
<g clip-path="url(#clip0_185_13519)">
<path d="M168.317 335.3C168.317 335.3 152.017 402.6 150.817 414.8C149.617 427 157.217 432.8 161.817 432.8C166.517 432.8 176.317 426.5 178.217 418.7C180.217 410.9 188.317 366.5 187.317 361.2C186.317 355.9 168.317 335.3 168.317 335.3Z" fill="#FF8E77"/>
<path d="M309.217 378.2C309.217 378.2 307.617 428.7 308.417 437.5C309.117 446.2 310.717 448.1 311.417 458.7C312.117 469.3 311.417 491.2 311.417 491.2H292.617C292.617 491.2 286.517 461.4 286.517 454.3C286.517 447.1 287.117 438.8 286.517 433C285.917 427.1 279.017 380.8 279.017 380.8L309.217 378.2Z" fill="#FFA07F"/>
<path d="M297.117 323.1C283.617 309.7 249.817 297.9 249.817 297.9L234.217 297.4L218.617 297.9C218.617 297.9 184.817 309.7 171.317 323.1C157.817 336.5 151.717 385.7 152.217 387.2C152.717 388.7 183.617 394 183.617 394C183.617 394 179.417 446.5 181.917 450.1C184.417 453.7 202.817 455.2 234.217 455.2C265.617 455.2 284.117 453.7 286.517 450.1C289.017 446.5 284.817 394 284.817 394C284.817 394 315.717 388.7 316.217 387.2C316.817 385.8 310.617 336.5 297.117 323.1Z" fill="#007AFF"/>
<path fill-rule="evenodd" clip-rule="evenodd" d="M169.334 325.545C169.334 325.545 169.334 325.545 169.717 324.9C170.1 324.255 170.1 324.255 170.101 324.256L170.102 324.256L170.105 324.258L170.114 324.264L170.147 324.283C170.174 324.3 170.214 324.325 170.265 324.357C170.366 324.422 170.512 324.517 170.697 324.644C171.068 324.898 171.595 325.278 172.236 325.791C173.517 326.818 175.253 328.378 177.087 330.525C180.759 334.821 184.829 341.467 186.456 350.872L186.457 350.876C188.024 360.227 187.49 371.058 186.575 379.518C186.117 383.755 185.562 387.411 185.121 390.008C184.9 391.307 184.708 392.342 184.571 393.053C184.503 393.409 184.448 393.683 184.41 393.869C184.391 393.963 184.376 394.034 184.366 394.082L184.355 394.136L184.351 394.155C184.351 394.155 184.351 394.156 183.617 394L182.884 393.844L182.884 393.841L182.887 393.828L182.898 393.777C182.907 393.731 182.921 393.662 182.94 393.571C182.977 393.389 183.031 393.12 183.098 392.769C183.233 392.068 183.423 391.044 183.642 389.757C184.079 387.183 184.63 383.558 185.084 379.357C185.994 370.943 186.51 360.274 184.978 351.126C183.405 342.032 179.475 335.628 175.947 331.5C174.182 329.434 172.517 327.938 171.298 326.962C170.689 326.474 170.192 326.116 169.85 325.881C169.679 325.764 169.547 325.678 169.459 325.622C169.415 325.595 169.382 325.574 169.361 325.561L169.339 325.548L169.334 325.545C169.334 325.545 169.334 325.544 169.334 325.545Z" fill="#E6F2FF"/>
<path fill-rule="evenodd" clip-rule="evenodd" d="M298.434 324.256C298.434 324.255 298.434 324.255 298.817 324.9C299.2 325.545 299.2 325.545 299.201 325.545L299.196 325.548L299.173 325.561C299.152 325.574 299.119 325.595 299.075 325.622C298.988 325.678 298.856 325.764 298.685 325.881C298.343 326.116 297.845 326.474 297.236 326.962C296.017 327.938 294.353 329.434 292.587 331.5C289.059 335.628 285.13 342.032 283.557 351.126C282.024 360.274 282.54 370.943 283.45 379.357C283.905 383.558 284.456 387.183 284.893 389.757C285.111 391.044 285.301 392.068 285.436 392.769C285.504 393.12 285.558 393.389 285.595 393.571C285.613 393.662 285.627 393.731 285.637 393.777L285.647 393.828L285.65 393.841L285.651 393.844L284.917 394C284.184 394.156 284.184 394.155 284.183 394.155L284.179 394.136L284.168 394.082C284.158 394.034 284.143 393.963 284.125 393.869C284.087 393.683 284.032 393.409 283.963 393.053C283.826 392.342 283.634 391.307 283.414 390.008C282.973 387.411 282.417 383.755 281.959 379.518C281.044 371.058 280.511 360.227 282.078 350.876L282.078 350.872C283.705 341.467 287.775 334.821 291.447 330.525C293.282 328.378 295.017 326.818 296.298 325.791C296.939 325.278 297.467 324.898 297.837 324.644C298.023 324.517 298.169 324.422 298.27 324.357C298.321 324.325 298.36 324.3 298.388 324.283L298.42 324.264L298.43 324.258L298.433 324.256L298.434 324.256Z" fill="#E6F2FF"/>
<path d="M248.917 297.9C246.017 289.3 247.817 278.6 247.817 278.6H234.217H233.317H219.717C219.717 278.6 221.617 289.3 218.617 297.9C218.617 297.9 223.317 307.2 233.317 307.7C233.517 307.7 233.617 307.7 233.817 307.7C234.017 307.7 234.117 307.7 234.317 307.7C244.217 307.2 248.917 297.9 248.917 297.9Z" fill="#FFA07F"/>
<path d="M234.317 278.6H233.417H219.817C219.817 278.6 220.117 280.6 220.317 283.6C223.517 287 228.717 291.7 234.317 291.9C239.017 292.1 243.817 289 247.317 286.1C247.317 281.8 247.917 278.6 247.917 278.6H234.317Z" fill="#FF8E77"/>
<path d="M234.317 199.6C231.317 199.7 217.417 199.9 207.117 210.8C196.417 222.2 197.517 237.8 198.117 244.2C198.517 248.6 199.817 261.7 210.017 273C214.017 277.4 222.417 286.7 234.317 286.3C245.517 286 252.917 277.4 258.217 271.2C268.117 259.6 270.117 247.2 270.517 244.2C271.417 237.3 273.417 222.6 263.317 211.1C252.917 199.2 237.417 199.5 234.317 199.6Z" fill="#FFA07F"/>
<path d="M223.517 247.1C223.517 249.2 222.417 250.9 221.117 250.9C219.817 250.9 218.717 249.2 218.717 247.1C218.717 245 219.817 243.3 221.117 243.3C222.417 243.3 223.517 245 223.517 247.1Z" fill="#131313"/>
<path d="M251.317 247.1C251.317 249.2 250.217 250.9 248.917 250.9C247.617 250.9 246.517 249.2 246.517 247.1C246.517 245 247.617 243.3 248.917 243.3C250.217 243.3 251.317 245 251.317 247.1Z" fill="#131313"/>
<path d="M211.417 241.1C211.317 239.4 212.117 237.6 213.017 236.3C214.017 234.8 215.517 233.5 217.117 232.6C218.817 231.7 220.617 231.2 222.617 231.1C223.617 231.1 224.617 231.2 225.517 231.6C225.817 231.7 227.017 232.1 227.217 232.4C227.517 232.6 226.017 232.8 225.917 232.8C225.017 232.9 224.017 233 223.117 233.3C221.417 233.8 219.917 234.4 218.417 235.3C216.817 236.2 215.417 237.3 214.117 238.6C213.417 239.2 212.817 239.9 212.217 240.7C212.117 240.5 211.417 241.7 211.417 241.1Z" fill="#131313"/>
<path d="M244.217 232.2C245.417 231.3 247.117 231.1 248.517 231.2C250.317 231.3 252.017 231.9 253.517 232.8C255.117 233.7 256.417 235.1 257.317 236.7C257.717 237.4 258.117 238.2 258.317 239C258.417 239.5 258.817 240.6 258.617 241.1C258.417 241.6 258.117 240.9 257.917 240.7C257.417 240.1 256.917 239.5 256.317 238.9C255.117 237.6 253.717 236.4 252.217 235.5C250.617 234.6 249.117 233.8 247.317 233.2C246.617 233 245.917 232.8 245.117 232.7C244.917 232.6 243.717 232.6 244.217 232.2Z" fill="#131313"/>
<path d="M263.217 264.1L269.217 246C272.817 241.7 274.717 241 275.817 241.4C279.017 242.6 280.317 255.4 273.317 261.2C269.617 264.3 264.917 264.2 263.217 264.1Z" fill="#FFA07F"/>
<path d="M205.617 264.1L199.617 246C196.017 241.7 194.117 241 193.017 241.4C189.817 242.6 188.517 255.4 195.517 261.2C199.217 264.3 203.817 264.2 205.617 264.1Z" fill="#FFA07F"/>
<path d="M253.217 347.7C253.117 349.6 251.517 351.2 249.617 351.2H220.817C218.917 351.2 217.317 349.6 217.317 347.7L215.917 298.3C215.817 296 217.517 294.1 219.617 294.1H251.517C253.617 294.1 255.317 296 255.217 298.3L253.217 347.7Z" fill="#F8F8F8"/>
<path d="M253.117 350.7C253.017 352.6 251.417 354.1 249.517 354.1H220.917C219.017 354.1 217.417 352.6 217.417 350.7L216.017 301.2C215.917 298.9 217.617 297 219.717 297H251.417C253.517 297 255.117 298.9 255.017 301.2L253.117 350.7Z" fill="white"/>
<path d="M251.117 315.5C251.017 317.4 249.617 318.9 247.817 318.9C246.017 318.9 244.617 317.4 244.717 315.5L244.917 304.3C244.917 302.3 246.517 300.7 248.317 300.7C250.117 300.7 251.617 302.3 251.517 304.3L251.117 315.5Z" fill="#131313"/>
<path d="M250.217 304.4C250.217 305.6 249.317 306.6 248.217 306.6C247.117 306.6 246.317 305.6 246.317 304.4C246.317 303.2 247.217 302.2 248.317 302.2C249.417 302.2 250.217 303.2 250.217 304.4Z" fill="#F8F8F8"/>
<path d="M249.117 304.4C249.117 304.9 248.717 305.3 248.217 305.3C247.717 305.3 247.417 304.9 247.417 304.4C247.417 303.9 247.817 303.5 248.317 303.5C248.717 303.5 249.117 303.9 249.117 304.4Z" fill="#003644"/>
<path d="M250.017 310C250.017 311.2 249.117 312.1 248.017 312.1C246.917 312.1 246.117 311.2 246.117 310C246.117 308.8 247.017 307.9 248.117 307.9C249.217 307.8 250.017 308.8 250.017 310Z" fill="#F8F8F8"/>
<path d="M248.917 310C248.917 310.5 248.517 310.9 248.017 310.9C247.517 310.9 247.217 310.5 247.217 310C247.217 309.5 247.617 309.1 248.117 309.1C248.517 309 248.917 309.5 248.917 310Z" fill="#003644"/>
<path d="M249.117 315.3C249.117 316 248.517 316.6 247.917 316.6C247.317 316.6 246.717 316 246.817 315.3C246.817 314.6 247.417 314 248.017 314C248.617 314 249.117 314.6 249.117 315.3Z" fill="#FFB875"/>
<path d="M220.917 359.4C217.717 363.1 183.417 421.5 168.517 430.5C153.617 439.5 148.617 421.1 150.317 409.1C152.017 397.1 176.317 379.1 183.817 370.7C193.417 359.9 204.417 347.1 206.017 342.9C207.517 338.7 204.117 329 207.717 325C211.317 321 216.117 309.9 216.117 309.9L216.817 325.7C216.817 325.7 226.817 320.7 232.517 318.1C238.217 315.5 244.417 315.1 245.817 314.2C247.217 313.3 255.317 305 256.517 304.6C257.717 304.2 259.417 308.2 256.517 312.6C256.517 312.6 259.117 314.7 255.917 320.8C255.917 320.8 258.217 323.4 255.317 328.9C255.317 328.9 256.917 330.9 256.517 333.5C256.117 336.1 253.217 341.9 251.617 343.5C249.817 345 223.517 356.3 220.917 359.4Z" fill="#FFA07F"/>
<path d="M256.417 312.4C256.417 312.4 251.317 319.1 250.017 321.1C248.717 323.1 248.117 325.7 246.117 326.2C244.117 326.7 242.317 327 242.317 327" stroke="#FF8E77" stroke-width="1.5" stroke-miterlimit="10" stroke-linecap="round" stroke-linejoin="round"/>
<path d="M255.917 320.7C255.917 320.7 252.417 326.1 251.517 328.1C250.617 330 250.017 331.6 249.417 332.2C248.717 332.8 244.717 333.9 244.717 333.9" stroke="#FF8E77" stroke-width="1.5" stroke-miterlimit="10" stroke-linecap="round" stroke-linejoin="round"/>
<path d="M255.317 328.8C255.317 328.8 252.117 335.5 251.517 337C251.017 338.5 250.817 339.1 249.117 339.6" stroke="#FF8E77" stroke-width="1.5" stroke-miterlimit="10" stroke-linecap="round" stroke-linejoin="round"/>
<path d="M248.517 261.1C237.817 259.3 219.017 261.1 219.017 265.5C219.017 269.8 230.217 277.6 235.517 276.8C240.717 276.1 259.317 262.9 248.517 261.1Z" fill="#691205"/>
<mask id="mask0_185_13519" style="mask-type:luminance" maskUnits="userSpaceOnUse" x="219" y="260" width="33" height="17">
<path d="M248.517 261.1C237.817 259.3 219.017 261.1 219.017 265.5C219.017 269.8 230.217 277.6 235.517 276.8C240.717 276.1 259.317 262.9 248.517 261.1Z" fill="white"/>
</mask>
<g mask="url(#mask0_185_13519)">
<path d="M239.063 286.204C246.906 286.161 253.244 282.5 253.22 278.027C253.195 273.553 246.818 269.961 238.976 270.004C231.133 270.046 224.795 273.707 224.82 278.18C224.844 282.654 231.221 286.246 239.063 286.204Z" fill="#D53F36"/>
</g>
<mask id="mask1_185_13519" style="mask-type:luminance" maskUnits="userSpaceOnUse" x="219" y="260" width="33" height="17">
<path d="M248.517 261.1C237.817 259.3 219.017 261.1 219.017 265.5C219.017 269.8 230.217 277.6 235.517 276.8C240.717 276.1 259.317 262.9 248.517 261.1Z" fill="white"/>
</mask>
<g mask="url(#mask1_185_13519)">
<path d="M233.264 265.103C241.106 265.061 247.444 261.4 247.42 256.926C247.396 252.453 241.019 248.861 233.176 248.903C225.334 248.946 218.996 252.607 219.02 257.08C219.044 261.554 225.421 265.146 233.264 265.103Z" fill="white"/>
</g>
<path d="M229.017 255.7C229.217 256.8 234.517 256.8 235.117 256.8C235.717 256.8 241.017 256.8 241.217 255.7C241.317 254.8 238.217 253.3 235.117 253.3C232.017 253.3 228.917 254.9 229.017 255.7Z" fill="#FF8E77"/>
<path d="M198.217 247.1C200.017 245 201.817 242.3 203.417 238.9C208.117 228.7 207.017 219.1 206.117 214.5C211.717 216.2 218.417 217.6 226.117 218.3C241.117 219.6 253.617 217.3 262.217 214.9C261.617 218.3 261.217 223.2 262.217 228.9C263.717 237.6 267.717 243.8 270.017 247C272.017 243.4 274.717 237.8 276.317 230.6C278.217 222.2 280.717 210.8 274.217 204C273.117 202.8 268.717 198.7 259.217 198.9C259.017 196.4 258.017 190.9 253.717 186.8C249.217 182.6 243.717 182.3 236.917 182C227.717 181.5 220.817 183.7 215.417 185.5C206.617 188.3 202.517 191.4 201.517 192.1C199.517 193.6 196.417 196 194.117 200C191.517 204.4 190.917 209.2 191.317 216.2C191.817 223 193.117 233.8 198.217 247.1Z" fill="#131313"/>
<path d="M269.317 188.9C269.317 188.9 258.517 189.2 259.317 199L269.317 188.9Z" fill="#131313"/>
<path d="M259.217 199.1L270.317 197.6C270.317 197.6 263.517 192.6 259.217 199.1Z" fill="#131313"/>
<path d="M274.217 246.7L268.317 253.3L271.217 257.7" stroke="#FF8E77" stroke-width="1.5" stroke-miterlimit="10" stroke-linecap="round"/>
<path d="M194.017 246.7L200.017 253.3L197.017 257.7" stroke="#FF8E77" stroke-width="1.5" stroke-miterlimit="10" stroke-linecap="round"/>
</g>
<defs>
<clipPath id="clip0_185_13519">
<rect width="171" height="219" fill="white" transform="translate(147 175)"/>
</clipPath>
</defs>
</svg>
