<svg width="490" height="369" viewBox="0 0 490 369" fill="none" xmlns="http://www.w3.org/2000/svg">
<path d="M105 54.5C106.5 80.5 131 112.5 60.5001 103.5C-9.99995 94.5 -23.4997 220.5 46.5001 248.5C116.5 276.5 103.4 243.7 173 320.5C260 416.5 366 345.5 384 293.5C402 241.5 456.524 260.496 477.5 216.5C499.721 169.894 486 114.5 470 84.5C454 54.5 382.5 7.49999 332.5 36.5C282.5 65.5 229.5 37 212.5 20.5C198.9 7.29999 180.649 -1.53224 158.5 1.49999C129.362 5.48898 103.5 28.5 105 54.5Z" fill="#E6F2FF"/>
<path d="M256.1 199.6L279.9 216.2C275.4 222.7 270.5 228.9 265.3 234.9C253.1 248.4 234.9 267.2 215 267.4C209.4 267.5 202.8 265.2 198.4 261.4C187.9 252.5 191.4 238.1 197.3 228C203.2 217.4 210.9 208.2 218.7 199.5C228.9 188.2 239.6 177.8 251.3 167.9L261.6 177.9C248.5 195 234.8 212.1 223.9 230.5C221.2 235.4 218 240.5 217.3 245.8C217.3 246 217.4 246 217.4 245.7C217.4 244.2 216.5 242.6 215.4 241.5C215.3 241.4 215 241.2 214.9 241.1C214.9 241 214.9 241 214.8 240.9C214.6 240.7 214.4 240.6 214.6 240.6C217 239.9 219.4 238.5 222.3 236.4C235.3 226.5 246 212.7 256.1 199.6Z" fill="#FFA07F"/>
<path d="M291.1 161.6L291.9 169.6C292.2 172.7 290.2 175.6 287.2 176.4L280.6 178.2C279.7 178.4 278.9 178.9 278.2 179.4C275.2 181.9 265.3 188.6 253.7 181.3L250.6 168.3L269.2 156.3C270.3 155.6 271.6 155.2 273 155.3L285 155.9C288.2 156.1 290.8 158.5 291.1 161.6Z" fill="#FFA07F"/>
<path d="M236.3 211.8C236.3 211.8 245.5 198.1 253 196.2C253 196.2 277 234.1 273 244.8C271.8 248 267.8 251.9 262.7 255.8C254 262.6 242.2 269.4 236.4 272.7C234.2 273.9 232.8 274.7 232.8 274.7L220.8 236.3C223.8 229.5 236.3 211.8 236.3 211.8Z" fill="#007AFF"/>
<path opacity="0.2" d="M261.5 239.8C262.6 245.5 263 250.9 262.7 255.9C254 262.7 242.2 269.5 236.4 272.8C242.2 250.7 261.5 239.8 261.5 239.8Z" fill="#131313"/>
<path fill-rule="evenodd" clip-rule="evenodd" d="M278.671 168.466L280.195 172.218C280.351 172.601 280.166 173.039 279.782 173.195C279.399 173.351 278.961 173.166 278.805 172.782L277.732 170.14C272.868 171.018 269.798 172.919 267.94 174.594C266.971 175.468 266.326 176.286 265.926 176.878C265.726 177.173 265.588 177.412 265.502 177.573C265.458 177.653 265.428 177.714 265.41 177.752C265.401 177.771 265.394 177.784 265.391 177.792L265.388 177.798C265.224 178.178 264.783 178.352 264.403 178.189C264.023 178.025 263.847 177.584 264.011 177.203L264.676 177.489C264.011 177.203 264.011 177.203 264.012 177.202L264.012 177.201L264.013 177.198L264.016 177.191L264.026 177.17C264.034 177.153 264.044 177.13 264.058 177.101C264.086 177.043 264.127 176.963 264.181 176.862C264.289 176.66 264.453 176.378 264.683 176.038C265.143 175.357 265.866 174.444 266.935 173.48C269.079 171.547 272.587 169.432 278.082 168.559L278.671 168.466ZM265.388 177.798C265.388 177.798 265.389 177.797 265.389 177.797L264.7 177.5C265.389 177.797 265.388 177.798 265.388 177.798Z" fill="#FF7D6F"/>
<path fill-rule="evenodd" clip-rule="evenodd" d="M281.688 165.13C282.003 165.4 282.039 165.873 281.769 166.188L278.769 169.688C278.5 170.002 278.026 170.039 277.712 169.769C277.397 169.5 277.361 169.026 277.631 168.712L280.631 165.212C280.9 164.897 281.374 164.861 281.688 165.13Z" fill="#FF7D6F"/>
<path d="M253 196.3C253 196.3 267.8 192.2 283.5 190.7C295.4 189.6 315.1 189.7 328.7 190.6C363 192.9 367.3 198.2 367.3 198.2C363.7 215.8 361.4 233.5 359.8 250.3C358.7 262.6 358 274.4 357.6 285.7C357.5 288.9 357.4 292 357.4 295C357.3 299.1 357.3 303.1 357.2 307C357.2 310.4 357.2 313.6 357.2 316.8C357.2 320.9 357.3 324.7 357.4 328.4C357.5 331.7 357.5 334.9 357.6 337.9C357.7 342 357.8 345.8 358 349.3C358.3 357.9 358.5 364.3 358.4 367.9C342.8 367.9 284.1 368.1 252.1 368.2C251 362.8 250 357.5 249.1 352.3C248.2 347.3 247.5 342.5 246.8 337.8C246.3 333.9 245.8 330 245.3 326.3C244.7 321.7 244.3 317.2 243.9 312.8C243.6 309.1 243.3 305.5 243.1 302.1C242.8 297.8 242.6 293.6 242.5 289.5C240.5 228.4 253 196.3 253 196.3Z" fill="#D7D7D7"/>
<path d="M254.4 303.2L270.4 284.3L286.4 303.2L302.4 284.3L318.4 303.2L334.4 284.3L350.4 303.2L357.4 294.9C357.3 299 357.3 303 357.2 306.9L350.3 315L334.3 296.1L318.3 315L302.3 296.1L286.3 315L270.3 296.1L254.3 315L243.1 301.9C242.8 297.6 242.6 293.4 242.5 289.3L254.4 303.2Z" fill="#F2F2F2"/>
<path d="M254.4 324.8L270.4 305.9L286.4 324.8L302.4 305.9L318.4 324.8L334.4 305.9L350.4 324.8L357.3 316.7C357.3 320.8 357.4 324.6 357.5 328.3L350.5 336.6L334.5 317.7L318.5 336.6L302.5 317.7L286.5 336.6L270.5 317.7L254.5 336.6L245.6 326.1C245 321.5 244.6 317 244.2 312.6L254.4 324.8Z" fill="#F2F2F2"/>
<path d="M254.4 346.4L270.4 327.5L286.4 346.4L302.4 327.5L318.4 346.4L334.4 327.5L350.4 346.4L357.7 337.8C357.8 341.9 357.9 345.7 358.1 349.2L350.5 358.2L334.5 339.4L318.5 358.2L302.5 339.4L286.5 358.2L270.5 339.4L254.5 358.2L249.3 352.1C248.4 347.1 247.7 342.3 247 337.6L254.4 346.4Z" fill="#F2F2F2"/>
<path d="M298.8 163.2C302.7 170.5 302 179 297.3 184.5C292.8 189.7 286.4 190.4 284.9 190.5C284.9 190.5 289 202.5 292.3 211.8C305.1 202.3 315.4 199.3 329.8 194.7C320.6 184.1 325.9 157.8 330.1 143.6C319.7 150.2 309.2 156.7 298.8 163.2Z" fill="#FFA07F"/>
<path opacity="0.5" d="M318.8 155C319.9 161.6 313.6 167.2 312.4 168.2C308.3 171.8 303.8 172.9 301.3 173.3C301.3 171.6 301.1 169.4 300.4 166.9C299.9 165.4 299.4 164.1 298.8 163.1C305.2 159.4 311.5 155.8 317.9 152.1C318.2 152.9 318.6 153.8 318.8 155Z" fill="#FF7D6F"/>
<path d="M317.2 208.9L311.3 203.2L290.2 215.6L280.8 200.2L273 204L271.3 192.2L282.1 185.6L288.3 191.2L292.7 209.8L304.7 191.4L332 182.1L342.1 191.6L317.2 208.9Z" fill="#007AFF"/>
<path opacity="0.2" d="M280.8 200.2L273 204L284.7 196.3L290.2 215.6L280.8 200.2Z" fill="#131313"/>
<path opacity="0.2" d="M311.3 203.2L317.2 208.9L308.8 197.4L290.2 215.6L311.3 203.2Z" fill="#131313"/>
<path d="M335.2 228.9L358.1 246.7C356.1 249.4 354.2 251.8 352.2 254.3C346.2 261.7 340 268.9 333.4 275.9C326.7 283 319.7 289.9 312 296.2C307.1 300.1 301.9 304 295.8 306.6C279.9 312.6 253.7 300.4 239.4 293.6C233.7 290.8 228.1 287.8 222.6 284.5L228.4 271.3C243 275.1 257.4 279.2 272 281.7C276.8 282.3 281.8 283.4 286.3 282.4C286.3 282.4 286.4 282.4 286.3 282.3C286.3 282.3 286.1 282.3 286 282.4C285.8 282.4 285.4 282.7 285.8 282.4C295.8 275.4 304 265.6 312.2 256.4C319 248.5 328.4 237.1 335.2 228.9Z" fill="#FFA07F"/>
<path d="M334.4 209.6C320.5 229.8 308.1 252.6 308.1 252.6L336 284.4C336 284.4 388.3 248.3 376.7 211.4C370.6 191.9 349 188.4 334.4 209.6Z" fill="#007AFF"/>
<path d="M223.8 284.4C207.8 288.6 196.1 272.4 196.1 272.4L211 252.6L230.7 273L223.8 284.4Z" fill="#FFA07F"/>
<path d="M211 252.6L196.1 272.4C189.2 267.3 186.7 258.2 190.1 250.3L191.8 246.3L211 252.6Z" fill="#FFA07F"/>
<path d="M287.3 129.1C275 122.5 281.9 94.9 292.1 90.9C311.3 83.4 299.6 135.7 287.3 129.1Z" fill="#131313"/>
<path d="M304.2 90.4C285.3 94.5 278.4 119.1 276.6 127C276.4 128 276.2 129 276.2 129C275.8 131.1 274.7 136.6 275.6 142.3C275.8 143.6 277.3 152.9 284.8 159.5C286.2 160.7 288.2 162.4 291.3 163.4C295.1 164.6 298.2 164.2 301.1 163.7C306.7 162.8 310.6 160.6 313.5 158.9C316.4 157.2 319.5 155.4 322.3 152C325 148.7 326 145.6 326.9 143.1C331.8 129.3 334.5 129.7 335.8 123.3C337.7 113.2 334.2 84 304.2 90.4Z" fill="#FFA07F"/>
<path d="M327.2 110C324.8 117.3 324.5 137.6 330.2 140.8C336.4 146.4 346.1 141.5 355.7 130.5C362.6 122.6 368.6 109.8 359.4 105.1C369.5 94.3999 354.8 80.4999 334.4 83.9999C330 84.7999 325.2 83.6999 320.7 81.3999L318.6 98.3999C318.4 98.4999 330.8 98.8999 327.2 110Z" fill="#131313"/>
<path d="M337.9 131C332.5 129.3 325.5 135.4 322.5 140.3C319.1 145.6 320.2 151.4 326.4 150.7C330.5 150.2 335.5 148 339.2 144C343.4 139.4 343.3 132.7 337.9 131Z" fill="#FFA07F"/>
<path d="M304.8 120.5C303.8 120.3 302.6 121.5 302.3 123.1C302 124.7 302.6 126.1 303.6 126.3C304.6 126.5 305.8 125.3 306.1 123.7C306.4 122.1 305.8 120.7 304.8 120.5Z" fill="#131313"/>
<path d="M286.7 117.4C285.7 117.2 284.5 118.4 284.2 120C283.9 121.6 284.5 123 285.5 123.2C286.5 123.4 287.7 122.2 288 120.6C288.3 119 287.7 117.6 286.7 117.4Z" fill="#131313"/>
<path d="M289.2 137.4C289.2 137.4 286.7 135.6 284.5 132.5C288 128 292.3 122.4 292.3 122.4L289.2 137.4Z" fill="#FF7D6F"/>
<path d="M281 113.08C281 113.08 286.6 104.58 290.7 107.68C294.8 110.78 293.1 111.18 293.1 111.18L281 113.08Z" fill="#131313"/>
<path d="M317.2 119.6C317.2 119.6 304.3 111 300.7 115.2C298.6 117.6 300.7 118.8 300.7 118.8L317.2 119.6Z" fill="#131313"/>
<path d="M327.4 95.8999C321.4 102.1 297.2 102.8 297.2 102.8L302 105.3C288 108.6 278.6 96.8999 278.6 96.8999L277.3 101.3C270.4 92.4999 276.3 79.0999 276.3 79.0999L271.9 81.6999C279.1 65.5999 302 67.5999 302 67.5999C299.9 65.6999 294.8 64.5999 294.8 64.5999C321.1 58.9999 335.3 86.2999 335.3 86.2999C335.3 86.2999 333.4 89.6999 327.4 95.8999Z" fill="#131313"/>
<path d="M286.3 145.5C286 145.2 286 144.7 286.3 144.4C290.5 139.9 297.4 141.5 297.7 141.6C298.1 141.7 298.4 142.1 298.3 142.5C298.2 142.9 297.8 143.2 297.4 143.1C297.3 143.1 291.1 141.6 287.5 145.5C287.3 145.7 287.1 145.7 286.9 145.7C286.6 145.7 286.4 145.7 286.3 145.5Z" fill="#FF7D6F"/>
<path fill-rule="evenodd" clip-rule="evenodd" d="M192.944 250.698C192.944 250.698 192.944 250.698 192.944 250.698L192.943 250.704L192.94 250.731C192.937 250.755 192.932 250.793 192.927 250.843C192.916 250.944 192.901 251.095 192.886 251.292C192.854 251.684 192.82 252.257 192.809 252.967C192.788 254.389 192.861 256.353 193.239 258.521C193.996 262.87 195.957 267.94 200.722 271.18C201.064 271.413 201.153 271.879 200.92 272.222C200.687 272.564 200.221 272.653 199.878 272.42C194.643 268.86 192.554 263.33 191.761 258.779C191.364 256.496 191.287 254.435 191.309 252.945C191.321 252.199 191.357 251.594 191.39 251.172C191.407 250.962 191.423 250.797 191.435 250.683C191.441 250.627 191.447 250.583 191.45 250.552L191.455 250.517L191.456 250.507L191.456 250.504L191.456 250.503C191.456 250.502 191.456 250.502 192.2 250.6L191.456 250.503C191.511 250.092 191.887 249.802 192.298 249.856C192.709 249.911 192.998 250.288 192.944 250.698Z" fill="#FF7D6F"/>
<path fill-rule="evenodd" clip-rule="evenodd" d="M336.534 137C336.755 137.35 336.651 137.813 336.3 138.034L330.44 141.731L331.831 143.894C332.055 144.243 331.954 144.707 331.606 144.931C331.257 145.155 330.793 145.054 330.569 144.706L328.36 141.269L335.5 136.766C335.85 136.545 336.313 136.65 336.534 137Z" fill="#FF7D6F"/>
<path d="M277.5 49.0999C277.5 59.4999 269 68 258.6 68C248.2 68 239.7 59.4999 239.7 49.0999C239.7 38.6999 248.2 30.2 258.6 30.2C269 30.2 277.5 38.5999 277.5 49.0999Z" fill="#131313"/>
<path d="M277.8 45.9C277.8 56.3 269.3 64.8 258.9 64.8C248.5 64.8 240 56.3 240 45.9C240 35.5 248.5 27 258.9 27C269.3 27 277.8 35.5 277.8 45.9Z" fill="#007AFF"/>
<path d="M265.75 42.2201C265.616 44.8334 265.55 46.9134 265.55 48.4601C265.55 49.2601 265.57 50.0201 265.61 50.7401C265.716 50.8201 265.923 50.8601 266.23 50.8601L266.69 50.8401C266.876 50.8134 267.05 50.8001 267.21 50.8001C267.556 50.8001 267.823 50.8601 268.01 50.9801C268.21 51.1001 268.31 51.3334 268.31 51.6801C268.31 52.0134 268.21 52.2734 268.01 52.4601C267.823 52.6467 267.43 52.7401 266.83 52.7401C266.323 52.7401 265.71 52.7001 264.99 52.6201C264.816 52.6067 264.65 52.5934 264.49 52.5801C264.33 52.5667 264.183 52.5601 264.05 52.5601C263.316 52.5734 262.77 52.6001 262.41 52.6401C262.05 52.6801 261.643 52.7001 261.19 52.7001C260.776 52.7001 260.57 52.3867 260.57 51.7601C260.57 51.1601 260.956 50.8601 261.73 50.8601C261.85 50.8601 262.043 50.8734 262.31 50.9001C262.536 50.9401 262.776 50.9601 263.03 50.9601C263.176 50.9601 263.296 50.9534 263.39 50.9401C263.403 50.0467 263.45 48.7467 263.53 47.0401C263.61 45.0401 263.65 43.5601 263.65 42.6001C263.583 42.6134 263.35 42.7067 262.95 42.8801C262.336 43.1867 261.883 43.3401 261.59 43.3401C261.43 43.3401 261.283 43.2601 261.15 43.1001C261.016 42.9267 260.95 42.7267 260.95 42.5001C260.95 42.2734 261.09 42.0534 261.37 41.8401C261.65 41.6267 262.103 41.3467 262.73 41.0001C263.076 40.8267 263.41 40.6334 263.73 40.4201C263.81 40.3667 263.923 40.3134 264.07 40.2601C264.23 40.2067 264.35 40.1801 264.43 40.1801C264.776 40.1801 265.09 40.2534 265.37 40.4001C265.663 40.5334 265.81 40.7134 265.81 40.9401L265.75 42.2201Z" fill="white"/>
<path d="M255.82 45.98C256.793 46.1 257.513 46.4133 257.98 46.92C258.46 47.4133 258.7 48.0267 258.7 48.76C258.7 49.4933 258.427 50.1867 257.88 50.84C257.347 51.4933 256.66 52 255.82 52.36C255.447 52.5067 254.953 52.6133 254.34 52.68C253.74 52.7467 253.12 52.78 252.48 52.78C251.413 52.78 250.32 52.68 249.2 52.48C249 52.44 248.787 52.34 248.56 52.18C248.347 52.02 248.24 51.7867 248.24 51.48C248.227 50.2533 248.18 48.5467 248.1 46.36L248.08 45.26C248.027 43.5533 248 42.2133 248 41.24C248 41.0667 248.1 40.8667 248.3 40.64C248.513 40.4 248.767 40.2667 249.06 40.24C249.233 40.24 249.4 40.2333 249.56 40.22C251.067 40.0733 252.073 40 252.58 40C253.58 40 254.46 40.1 255.22 40.3C255.993 40.4867 256.633 40.8333 257.14 41.34C257.327 41.5533 257.48 41.8267 257.6 42.16C257.72 42.48 257.78 42.7933 257.78 43.1C257.793 43.7533 257.62 44.3533 257.26 44.9C256.913 45.4467 256.433 45.8067 255.82 45.98ZM252.7 41.7C252.247 41.7 251.773 41.7267 251.28 41.78C250.8 41.8333 250.393 41.9 250.06 41.98L250.18 45.76L250.9 45.74C252.06 45.62 252.913 45.52 253.46 45.44C253.807 45.36 254.147 45.2067 254.48 44.98C254.813 44.74 255.087 44.4933 255.3 44.24C255.527 43.9733 255.64 43.7733 255.64 43.64C255.64 43.44 255.6 43.24 255.52 43.04C255.44 42.8267 255.353 42.6733 255.26 42.58C254.9 42.2333 254.533 42 254.16 41.88C253.787 41.76 253.3 41.7 252.7 41.7ZM250.24 51.02C250.92 51.1133 251.567 51.16 252.18 51.16C253.527 51.16 254.587 50.9867 255.36 50.64C256.147 50.28 256.54 49.6 256.54 48.6C256.54 48.2 256.24 47.8667 255.64 47.6C255.04 47.3333 254.393 47.2 253.7 47.2C253.233 47.2 252.64 47.2533 251.92 47.36C251.347 47.44 250.787 47.4933 250.24 47.52C250.267 48.32 250.28 48.8267 250.28 49.04C250.28 49.4533 250.273 49.7667 250.26 49.98L250.24 51.02Z" fill="white"/>
<path d="M423.3 262.9C423.3 275.7 412.9 286.1 400.1 286.1C387.3 286.1 376.9 275.7 376.9 262.9C376.9 250.1 387.3 239.7 400.1 239.7C412.9 239.8 423.3 250.1 423.3 262.9Z" fill="#131313"/>
<path d="M425.4 263.2C425.4 276 415 286.4 402.2 286.4C389.4 286.4 379 276 379 263.2C379 250.4 389.4 240 402.2 240C415.1 240.1 425.4 250.4 425.4 263.2Z" fill="#007AFF"/>
<path d="M411.934 258.376C411.774 261.512 411.694 264.008 411.694 265.864C411.694 266.824 411.718 267.736 411.766 268.6C411.894 268.696 412.142 268.744 412.51 268.744L413.062 268.72C413.286 268.688 413.494 268.672 413.686 268.672C414.102 268.672 414.422 268.744 414.646 268.888C414.886 269.032 415.006 269.312 415.006 269.728C415.006 270.128 414.886 270.44 414.646 270.664C414.422 270.888 413.95 271 413.23 271C412.622 271 411.886 270.952 411.022 270.856C410.814 270.84 410.614 270.824 410.422 270.808C410.23 270.792 410.054 270.784 409.894 270.784C409.014 270.8 408.358 270.832 407.926 270.88C407.494 270.928 407.006 270.952 406.462 270.952C405.966 270.952 405.718 270.576 405.718 269.824C405.718 269.104 406.182 268.744 407.11 268.744C407.254 268.744 407.486 268.76 407.806 268.792C408.078 268.84 408.366 268.864 408.67 268.864C408.846 268.864 408.99 268.856 409.102 268.84C409.118 267.768 409.174 266.208 409.27 264.16C409.366 261.76 409.414 259.984 409.414 258.832C409.334 258.848 409.054 258.96 408.574 259.168C407.838 259.536 407.294 259.72 406.942 259.72C406.75 259.72 406.574 259.624 406.414 259.432C406.254 259.224 406.174 258.984 406.174 258.712C406.174 258.44 406.342 258.176 406.678 257.92C407.014 257.664 407.558 257.328 408.31 256.912C408.726 256.704 409.126 256.472 409.51 256.216C409.606 256.152 409.742 256.088 409.918 256.024C410.11 255.96 410.254 255.928 410.35 255.928C410.766 255.928 411.142 256.016 411.478 256.192C411.83 256.352 412.006 256.568 412.006 256.84L411.934 258.376Z" fill="white"/>
<path d="M402.44 257.68C402.68 257.968 402.848 258.2 402.944 258.376C403.04 258.552 403.088 258.72 403.088 258.88C403.088 259.072 402.96 259.296 402.704 259.552C402.464 259.808 402.224 259.936 401.984 259.936C401.664 259.936 401.408 259.888 401.216 259.792C401.024 259.696 400.864 259.544 400.736 259.336C400.48 258.952 400.168 258.624 399.8 258.352C399.432 258.064 398.856 257.92 398.072 257.92C397.4 257.92 396.632 258.072 395.768 258.376C394.92 258.68 394.312 259.056 393.944 259.504C393.624 259.904 393.344 260.512 393.104 261.328C392.88 262.144 392.768 262.936 392.768 263.704C392.768 264.632 392.968 265.488 393.368 266.272C393.784 267.04 394.376 267.656 395.144 268.12C395.928 268.584 396.864 268.816 397.952 268.816C398.544 268.816 399.152 268.704 399.776 268.48C400.416 268.24 400.968 267.856 401.432 267.328H401.408C401.696 267.024 402.056 266.872 402.488 266.872C402.744 266.872 402.984 266.984 403.208 267.208C403.448 267.432 403.568 267.656 403.568 267.88C403.568 268.12 403.528 268.336 403.448 268.528C403.384 268.704 403.256 268.904 403.064 269.128C402.408 269.864 401.632 270.368 400.736 270.64C399.84 270.912 398.768 271.048 397.52 271.048C396.416 271.048 395.296 270.784 394.16 270.256C393.04 269.728 392.176 269.088 391.568 268.336C391.248 267.872 390.936 267.208 390.632 266.344C390.344 265.464 390.2 264.752 390.2 264.208C390.2 262.816 390.408 261.496 390.824 260.248C391.256 258.984 391.896 257.976 392.744 257.224C393.304 256.712 394.112 256.328 395.168 256.072C396.224 255.816 397.192 255.688 398.072 255.688C399.144 255.688 399.984 255.84 400.592 256.144C401.216 256.432 401.832 256.944 402.44 257.68Z" fill="white"/>
<path d="M160.304 219.577C160.372 203.727 147.578 190.822 131.727 190.754C115.877 190.686 102.972 203.48 102.904 219.331C102.836 235.181 115.63 248.086 131.48 248.154C147.331 248.222 160.236 235.428 160.304 219.577Z" fill="#131313"/>
<path d="M159.523 215.547C159.592 199.696 146.797 186.792 130.947 186.723C115.096 186.655 102.192 199.449 102.123 215.3C102.055 231.151 114.849 244.055 130.7 244.123C146.551 244.192 159.455 231.397 159.523 215.547Z" fill="#007AFF"/>
<path d="M136.434 221.924C137.068 221.961 137.488 221.98 137.694 221.98C138.328 221.98 138.888 221.971 139.374 221.952C139.878 221.933 140.307 221.915 140.662 221.896C141.576 221.84 142.398 221.812 143.126 221.812C143.835 221.812 144.358 221.999 144.694 222.372C145.03 222.745 145.198 223.24 145.198 223.856C145.198 224.155 145.002 224.397 144.61 224.584C144.218 224.752 143.816 224.836 143.406 224.836C143.051 224.836 142.314 224.799 141.194 224.724C139.85 224.612 138.795 224.556 138.03 224.556C137.619 224.556 137.134 224.584 136.574 224.64C136.35 224.659 136.079 224.677 135.762 224.696C135.444 224.715 135.09 224.724 134.698 224.724C133.951 224.724 133.382 224.621 132.99 224.416C132.598 224.211 132.402 223.837 132.402 223.296C132.402 222.829 132.588 222.353 132.962 221.868C133.335 221.383 133.858 220.804 134.53 220.132L135.202 219.46C135.5 219.143 136.051 218.601 136.854 217.836C138.179 216.641 139.206 215.587 139.934 214.672C140.68 213.757 141.054 212.852 141.054 211.956C141.054 211.377 140.774 210.911 140.214 210.556C139.672 210.183 139.047 209.996 138.338 209.996C137.255 209.996 136.471 210.239 135.986 210.724C135.519 211.191 135.286 211.872 135.286 212.768C135.286 212.992 135.155 213.197 134.894 213.384C134.651 213.552 134.343 213.636 133.97 213.636C133.447 213.636 133.083 213.449 132.878 213.076C132.672 212.703 132.57 212.245 132.57 211.704C132.57 210.845 132.831 210.089 133.354 209.436C133.876 208.764 134.586 208.241 135.482 207.868C136.396 207.495 137.404 207.308 138.506 207.308C139.29 207.308 140.102 207.504 140.942 207.896C141.8 208.269 142.51 208.783 143.07 209.436C143.648 210.071 143.938 210.771 143.938 211.536C143.938 212.693 143.648 213.795 143.07 214.84C142.491 215.885 141.81 216.819 141.026 217.64C140.26 218.443 139.262 219.395 138.03 220.496C137.432 221 136.9 221.476 136.434 221.924Z" fill="white"/>
<path d="M125.948 215.372C127.311 215.54 128.319 215.979 128.972 216.688C129.644 217.379 129.98 218.237 129.98 219.264C129.98 220.291 129.597 221.261 128.832 222.176C128.085 223.091 127.124 223.8 125.948 224.304C125.425 224.509 124.735 224.659 123.876 224.752C123.036 224.845 122.168 224.892 121.272 224.892C119.779 224.892 118.248 224.752 116.68 224.472C116.4 224.416 116.101 224.276 115.784 224.052C115.485 223.828 115.336 223.501 115.336 223.072C115.317 221.355 115.252 218.965 115.14 215.904L115.112 214.364C115.037 211.975 115 210.099 115 208.736C115 208.493 115.14 208.213 115.42 207.896C115.719 207.56 116.073 207.373 116.484 207.336C116.727 207.336 116.96 207.327 117.184 207.308C119.293 207.103 120.703 207 121.412 207C122.812 207 124.044 207.14 125.108 207.42C126.191 207.681 127.087 208.167 127.796 208.876C128.057 209.175 128.272 209.557 128.44 210.024C128.608 210.472 128.692 210.911 128.692 211.34C128.711 212.255 128.468 213.095 127.964 213.86C127.479 214.625 126.807 215.129 125.948 215.372ZM121.58 209.38C120.945 209.38 120.283 209.417 119.592 209.492C118.92 209.567 118.351 209.66 117.884 209.772L118.052 215.064L119.06 215.036C120.684 214.868 121.879 214.728 122.644 214.616C123.129 214.504 123.605 214.289 124.072 213.972C124.539 213.636 124.921 213.291 125.22 212.936C125.537 212.563 125.696 212.283 125.696 212.096C125.696 211.816 125.64 211.536 125.528 211.256C125.416 210.957 125.295 210.743 125.164 210.612C124.66 210.127 124.147 209.8 123.624 209.632C123.101 209.464 122.42 209.38 121.58 209.38ZM118.136 222.428C119.088 222.559 119.993 222.624 120.852 222.624C122.737 222.624 124.221 222.381 125.304 221.896C126.405 221.392 126.956 220.44 126.956 219.04C126.956 218.48 126.536 218.013 125.696 217.64C124.856 217.267 123.951 217.08 122.98 217.08C122.327 217.08 121.496 217.155 120.488 217.304C119.685 217.416 118.901 217.491 118.136 217.528C118.173 218.648 118.192 219.357 118.192 219.656C118.192 220.235 118.183 220.673 118.164 220.972L118.136 222.428Z" fill="white"/>
<path d="M418.6 182.1C428.155 182.1 435.9 174.355 435.9 164.8C435.9 155.245 428.155 147.5 418.6 147.5C409.045 147.5 401.3 155.245 401.3 164.8C401.3 174.355 409.045 182.1 418.6 182.1Z" fill="#131313"/>
<path d="M420.3 182.6C429.855 182.6 437.6 174.855 437.6 165.3C437.6 155.745 429.855 148 420.3 148C410.745 148 403 155.745 403 165.3C403 174.855 410.745 182.6 420.3 182.6Z" fill="#007AFF"/>
<path d="M425.613 168.92C426.066 168.947 426.366 168.96 426.513 168.96C426.966 168.96 427.366 168.953 427.713 168.94C428.073 168.927 428.38 168.913 428.633 168.9C429.286 168.86 429.873 168.84 430.393 168.84C430.9 168.84 431.273 168.973 431.513 169.24C431.753 169.507 431.873 169.86 431.873 170.3C431.873 170.513 431.733 170.687 431.453 170.82C431.173 170.94 430.886 171 430.593 171C430.34 171 429.813 170.973 429.013 170.92C428.053 170.84 427.3 170.8 426.753 170.8C426.46 170.8 426.113 170.82 425.713 170.86C425.553 170.873 425.36 170.887 425.133 170.9C424.906 170.913 424.653 170.92 424.373 170.92C423.84 170.92 423.433 170.847 423.153 170.7C422.873 170.553 422.733 170.287 422.733 169.9C422.733 169.567 422.866 169.227 423.133 168.88C423.4 168.533 423.773 168.12 424.253 167.64L424.733 167.16C424.946 166.933 425.34 166.547 425.913 166C426.86 165.147 427.593 164.393 428.113 163.74C428.646 163.087 428.913 162.44 428.913 161.8C428.913 161.387 428.713 161.053 428.313 160.8C427.926 160.533 427.48 160.4 426.973 160.4C426.2 160.4 425.64 160.573 425.293 160.92C424.96 161.253 424.793 161.74 424.793 162.38C424.793 162.54 424.7 162.687 424.513 162.82C424.34 162.94 424.12 163 423.853 163C423.48 163 423.22 162.867 423.073 162.6C422.926 162.333 422.853 162.007 422.853 161.62C422.853 161.007 423.04 160.467 423.413 160C423.786 159.52 424.293 159.147 424.933 158.88C425.586 158.613 426.306 158.48 427.093 158.48C427.653 158.48 428.233 158.62 428.833 158.9C429.446 159.167 429.953 159.533 430.353 160C430.766 160.453 430.973 160.953 430.973 161.5C430.973 162.327 430.766 163.113 430.353 163.86C429.94 164.607 429.453 165.273 428.893 165.86C428.346 166.433 427.633 167.113 426.753 167.9C426.326 168.26 425.946 168.6 425.613 168.92Z" fill="white"/>
<path d="M419.56 170.7C419.387 170.473 419.24 170.227 419.12 169.96C419 169.68 418.873 169.347 418.74 168.96C418.713 168.893 418.633 168.693 418.5 168.36C418.38 168.027 418.24 167.74 418.08 167.5C417.24 167.62 416.553 167.68 416.02 167.68C415.727 167.68 415.4 167.673 415.04 167.66C414.693 167.633 414.433 167.62 414.26 167.62C413.593 167.567 413.06 167.54 412.66 167.54C412.5 167.753 412.36 167.98 412.24 168.22C412.133 168.46 411.993 168.82 411.82 169.3C411.58 169.993 411.373 170.487 411.2 170.78C411.08 170.98 410.847 171.08 410.5 171.08C410.207 171.08 409.933 171.02 409.68 170.9C409.44 170.767 409.32 170.587 409.32 170.36C409.427 169.853 409.593 169.32 409.82 168.76C410.06 168.187 410.4 167.427 410.84 166.48L411.64 164.52C412.08 163.4 412.48 162.44 412.84 161.64C413.213 160.84 413.7 159.893 414.3 158.8C414.38 158.64 414.513 158.507 414.7 158.4C414.887 158.28 415.093 158.22 415.32 158.22C415.573 158.22 415.753 158.24 415.86 158.28C415.98 158.307 416.073 158.36 416.14 158.44C416.207 158.507 416.307 158.653 416.44 158.88C416.893 159.587 417.28 160.313 417.6 161.06C417.933 161.807 418.353 162.84 418.86 164.16L419.28 165.22C419.653 166.18 419.973 166.987 420.24 167.64C420.52 168.28 420.827 168.867 421.16 169.4C421.373 169.747 421.48 169.987 421.48 170.12C421.48 170.44 421.38 170.687 421.18 170.86C420.993 171.02 420.747 171.1 420.44 171.1C420.053 171.1 419.76 170.967 419.56 170.7ZM417.5 165.86C417.287 165.407 416.98 164.62 416.58 163.5C416.167 162.3 415.753 161.347 415.34 160.64C415.087 161.28 414.713 162.107 414.22 163.12C413.887 163.747 413.507 164.653 413.08 165.84C413.933 165.947 414.853 166 415.84 166C416.547 166 417.1 165.953 417.5 165.86Z" fill="white"/>
<path d="M391.807 92.5468C412.007 91.7747 427.756 74.7738 426.983 54.5744C426.211 34.3749 409.21 18.6259 389.011 19.3981C368.811 20.1702 353.062 37.171 353.835 57.3705C354.607 77.57 371.608 93.319 391.807 92.5468Z" fill="#131313"/>
<path d="M391.371 89.7507C411.57 88.9785 427.319 71.9777 426.547 51.7782C425.775 31.5788 408.774 15.8298 388.574 16.6019C368.375 17.3741 352.626 34.3749 353.398 54.5744C354.17 74.7739 371.171 90.5228 391.371 89.7507Z" fill="#007AFF"/>
<path d="M406.466 44.5199C406.199 49.7466 406.066 53.9066 406.066 56.9999C406.066 58.5999 406.106 60.1199 406.186 61.5599C406.399 61.7199 406.813 61.7999 407.426 61.7999L408.346 61.7599C408.719 61.7066 409.066 61.6799 409.386 61.6799C410.079 61.6799 410.613 61.7999 410.986 62.0399C411.386 62.2799 411.586 62.7466 411.586 63.4399C411.586 64.1066 411.386 64.6266 410.986 64.9999C410.613 65.3733 409.826 65.5599 408.626 65.5599C407.613 65.5599 406.386 65.4799 404.946 65.3199C404.599 65.2933 404.266 65.2666 403.946 65.2399C403.626 65.2133 403.333 65.1999 403.066 65.1999C401.599 65.2266 400.506 65.2799 399.786 65.3599C399.066 65.4399 398.253 65.4799 397.346 65.4799C396.519 65.4799 396.106 64.8533 396.106 63.5999C396.106 62.3999 396.879 61.7999 398.426 61.7999C398.666 61.7999 399.053 61.8266 399.586 61.8799C400.039 61.9599 400.519 61.9999 401.026 61.9999C401.319 61.9999 401.559 61.9866 401.746 61.9599C401.773 60.1733 401.866 57.5733 402.026 54.1599C402.186 50.1599 402.266 47.1999 402.266 45.2799C402.133 45.3066 401.666 45.4933 400.866 45.8399C399.639 46.4533 398.733 46.7599 398.146 46.7599C397.826 46.7599 397.533 46.5999 397.266 46.2799C396.999 45.9333 396.866 45.5333 396.866 45.0799C396.866 44.6266 397.146 44.1866 397.706 43.7599C398.266 43.3333 399.173 42.7733 400.426 42.0799C401.119 41.7333 401.786 41.3466 402.426 40.9199C402.586 40.8133 402.813 40.7066 403.106 40.5999C403.426 40.4933 403.666 40.4399 403.826 40.4399C404.519 40.4399 405.146 40.5866 405.706 40.8799C406.293 41.1466 406.586 41.5066 406.586 41.9599L406.466 44.5199Z" fill="white"/>
<path d="M389.48 64.96C389.133 64.5067 388.84 64.0133 388.6 63.48C388.36 62.92 388.107 62.2533 387.84 61.48C387.787 61.3467 387.627 60.9467 387.36 60.28C387.12 59.6133 386.84 59.04 386.52 58.56C384.84 58.8 383.467 58.92 382.4 58.92C381.813 58.92 381.16 58.9067 380.44 58.88C379.747 58.8267 379.227 58.8 378.88 58.8C377.547 58.6933 376.48 58.64 375.68 58.64C375.36 59.0667 375.08 59.52 374.84 60C374.627 60.48 374.347 61.2 374 62.16C373.52 63.5467 373.107 64.5333 372.76 65.12C372.52 65.52 372.053 65.72 371.36 65.72C370.773 65.72 370.227 65.6 369.72 65.36C369.24 65.0933 369 64.7333 369 64.28C369.213 63.2667 369.547 62.2 370 61.08C370.48 59.9333 371.16 58.4133 372.04 56.52L373.64 52.6C374.52 50.36 375.32 48.44 376.04 46.84C376.787 45.24 377.76 43.3467 378.96 41.16C379.12 40.84 379.387 40.5733 379.76 40.36C380.133 40.12 380.547 40 381 40C381.507 40 381.867 40.04 382.08 40.12C382.32 40.1733 382.507 40.28 382.64 40.44C382.773 40.5733 382.973 40.8667 383.24 41.32C384.147 42.7333 384.92 44.1867 385.56 45.68C386.227 47.1733 387.067 49.24 388.08 51.88L388.92 54C389.667 55.92 390.307 57.5333 390.84 58.84C391.4 60.12 392.013 61.2933 392.68 62.36C393.107 63.0533 393.32 63.5333 393.32 63.8C393.32 64.44 393.12 64.9333 392.72 65.28C392.347 65.6 391.853 65.76 391.24 65.76C390.467 65.76 389.88 65.4933 389.48 64.96ZM385.36 55.28C384.933 54.3733 384.32 52.8 383.52 50.56C382.693 48.16 381.867 46.2533 381.04 44.84C380.533 46.12 379.787 47.7733 378.8 49.8C378.133 51.0533 377.373 52.8667 376.52 55.24C378.227 55.4533 380.067 55.56 382.04 55.56C383.453 55.56 384.56 55.4667 385.36 55.28Z" fill="white"/>
<path d="M265.69 137.005C265.69 137.005 256.023 136.461 239.684 124.751C241.318 119.169 241.862 113.178 241.045 107.187C237.641 80.6357 210.137 62.2543 179.502 66.0667C148.866 70.0153 126.944 94.6601 130.348 121.347C133.752 147.898 161.256 166.28 191.892 162.467C206.597 160.561 219.26 153.889 228.11 144.63C237.369 145.72 250.576 145.175 265.69 137.005Z" fill="#131313"/>
<path d="M266.915 131.559C266.915 131.559 257.384 129.789 242.679 116.037C244.994 110.727 246.356 104.872 246.356 98.7449C246.356 71.9216 221.302 50.1362 190.53 50.1362C159.759 50.1362 134.705 71.9216 134.705 98.7449C134.705 125.568 159.759 147.354 190.53 147.354C205.372 147.354 218.715 142.316 228.655 134.146C237.778 136.733 250.985 137.686 266.915 131.559Z" fill="#007AFF"/>
<path d="M228.408 90.72C229.235 91.84 229.648 93.04 229.648 94.32C229.648 95.2267 229.448 96.04 229.048 96.76C228.648 97.48 228.021 98.2933 227.168 99.2C226.421 99.9733 225.875 100.707 225.528 101.4C225.181 102.067 224.955 102.693 224.848 103.28C224.768 103.84 224.675 104.733 224.568 105.96C224.568 106.573 224.355 107.027 223.928 107.32C223.501 107.587 223.061 107.72 222.608 107.72C221.408 107.72 220.808 107 220.808 105.56C220.808 104.787 220.941 103.867 221.208 102.8C221.475 101.733 221.968 100.573 222.688 99.32C222.928 98.8933 223.235 98.4667 223.608 98.04C224.008 97.6133 224.261 97.3333 224.368 97.2C224.795 96.7467 225.155 96.28 225.448 95.8C225.741 95.2933 225.888 94.8533 225.888 94.48C225.888 94.0533 225.821 93.72 225.688 93.48C225.581 93.24 225.408 92.9733 225.168 92.68C224.821 92.28 224.368 91.96 223.808 91.72C223.248 91.48 222.728 91.36 222.248 91.36C221.475 91.36 220.755 91.5067 220.088 91.8C219.448 92.0667 218.928 92.4267 218.528 92.88C218.155 93.3067 217.968 93.7467 217.968 94.2C217.968 94.9467 218.115 95.5067 218.408 95.88C218.701 96.2267 218.848 96.5467 218.848 96.84C218.848 97 218.808 97.1867 218.728 97.4C218.408 98.1467 217.861 98.52 217.088 98.52C216.101 98.52 215.381 98.1467 214.928 97.4C214.475 96.6533 214.248 95.7067 214.248 94.56C214.248 93.4667 214.595 92.4267 215.288 91.44C215.981 90.4267 216.995 89.6 218.328 88.96C219.661 88.32 221.248 88 223.088 88C224.155 88 225.155 88.24 226.088 88.72C227.021 89.1733 227.795 89.84 228.408 90.72ZM222.608 109.24C223.408 109.24 224.048 109.52 224.528 110.08C224.928 110.48 225.128 111.027 225.128 111.72C225.128 112.307 224.848 112.8 224.288 113.2C223.728 113.573 223.115 113.76 222.448 113.76C221.968 113.76 221.501 113.627 221.048 113.36C220.488 112.96 220.208 112.253 220.208 111.24C220.208 110.707 220.448 110.24 220.928 109.84C221.435 109.44 221.995 109.24 222.608 109.24Z" fill="white"/>
<path d="M207.175 112.16C206.775 111.413 206.522 110.587 206.415 109.68C206.309 108.747 206.255 107.467 206.255 105.84C206.255 104.293 206.042 102.947 205.615 101.8C205.189 100.653 204.309 100.08 202.975 100.08C202.469 100.08 201.962 100.24 201.455 100.56C200.975 100.853 200.615 101.227 200.375 101.68C200.002 102.4 199.749 103.187 199.615 104.04C199.482 104.867 199.415 105.827 199.415 106.92C199.415 107.613 199.455 108.32 199.535 109.04C199.535 109.253 199.549 109.6 199.575 110.08C199.629 110.533 199.655 110.947 199.655 111.32C199.655 112.92 199.095 113.72 197.975 113.72C196.509 113.72 195.735 112.947 195.655 111.4C195.655 110.307 195.669 109.72 195.695 109.64V107.92C195.695 106.96 195.655 106.027 195.575 105.12C195.495 104.213 195.402 103.533 195.295 103.08C195.055 102.2 194.735 101.52 194.335 101.04C193.962 100.56 193.362 100.32 192.535 100.32C191.362 100.32 190.415 100.827 189.695 101.84C189.189 102.64 188.855 103.613 188.695 104.76C188.535 106.227 188.415 107.387 188.335 108.24C188.282 109.067 188.255 110.027 188.255 111.12C188.255 111.893 188.122 112.52 187.855 113C187.615 113.48 187.149 113.72 186.455 113.72C185.949 113.72 185.415 113.587 184.855 113.32C184.322 113.027 184.055 112.64 184.055 112.16C184.055 111.653 184.109 111.147 184.215 110.64C184.455 109.12 184.575 106.4 184.575 102.48C184.575 101.84 184.415 101.227 184.095 100.64C183.802 100.027 183.442 99.72 183.015 99.72C182.909 99.72 182.709 99.7734 182.415 99.88C182.149 99.9867 181.949 100.04 181.815 100.04C181.469 100.04 181.149 99.88 180.855 99.56C180.589 99.24 180.455 98.9734 180.455 98.76C180.455 98.0934 180.775 97.5334 181.415 97.08C182.082 96.6 182.775 96.36 183.495 96.36C184.482 96.36 185.322 96.6667 186.015 97.28C186.709 97.8934 187.242 98.7467 187.615 99.84C188.229 98.7734 189.055 97.92 190.095 97.28C191.135 96.6134 192.295 96.28 193.575 96.28C194.375 96.28 195.015 96.3867 195.495 96.6C196.002 96.7867 196.415 97.0667 196.735 97.44C197.055 97.7867 197.469 98.32 197.975 99.04C198.642 98.1867 199.495 97.52 200.535 97.04C201.602 96.56 202.695 96.32 203.815 96.32C205.149 96.32 206.349 96.8667 207.415 97.96C208.482 99.0267 209.202 100.267 209.575 101.68C209.762 102.4 209.855 103.787 209.855 105.84L210.015 108.16C210.149 109.547 210.602 110.387 211.375 110.68C212.282 110.947 212.735 111.227 212.735 111.52C212.735 112.16 212.575 112.627 212.255 112.92C212.015 113.08 211.682 113.253 211.255 113.44C210.829 113.627 210.495 113.72 210.255 113.72C208.815 113.72 207.789 113.2 207.175 112.16Z" fill="white"/>
<path d="M172.64 99.24C172.613 98.8134 172.6 98.1734 172.6 97.32V95.8C172.6 94.7867 172.573 94.0267 172.52 93.52C172.467 93.0934 172.44 91.9867 172.44 90.2C172.44 89.56 172.627 89.0667 173 88.72C173.4 88.3467 173.933 88.16 174.6 88.16C175.453 88.16 176.027 88.3467 176.32 88.72C176.613 89.0934 176.76 89.7067 176.76 90.56V92.08L176.72 96.48C176.693 97.3334 176.68 98.6134 176.68 100.32L176.72 103.6C176.747 104.107 176.76 104.813 176.76 105.72C176.76 106.44 176.787 107.467 176.84 108.8C176.893 110.027 176.92 110.947 176.92 111.56C176.92 112.067 176.773 112.533 176.48 112.96C176.213 113.387 175.84 113.6 175.36 113.6C173.493 113.6 172.56 112.973 172.56 111.72C172.56 111.027 172.587 110.253 172.64 109.4C172.693 108.787 172.72 107.853 172.72 106.6C172.72 105.72 172.693 104.453 172.64 102.8C171.387 102.907 169.227 102.96 166.16 102.96C164.24 102.96 162.747 102.96 161.68 102.96C160.613 102.933 159.84 102.867 159.36 102.76L159.32 107.36C159.32 107.653 159.387 108.44 159.52 109.72C159.653 110.573 159.72 111.32 159.72 111.96C159.72 112.36 159.48 112.747 159 113.12C158.547 113.467 158.12 113.64 157.72 113.64C156.76 113.64 156.107 113.413 155.76 112.96C155.413 112.48 155.24 111.76 155.24 110.8L155.2 107.64C155.173 107.267 155.16 106.747 155.16 106.08C155.16 105.093 155.133 103.747 155.08 102.04C155.027 100.493 155 99.3734 155 98.68C155 97.64 155.027 96.1867 155.08 94.32C155.133 92.56 155.16 91.2534 155.16 90.4C155.16 89.5467 155.373 88.9734 155.8 88.68C156.227 88.3867 156.707 88.24 157.24 88.24C158.733 88.24 159.48 88.7334 159.48 89.72C159.48 91.48 159.44 93.16 159.36 94.76C159.307 96.7867 159.28 98.2667 159.28 99.2C160.053 99.3867 160.867 99.5067 161.72 99.56C162.573 99.6134 163.773 99.64 165.32 99.64C168.467 99.64 170.907 99.5067 172.64 99.24Z" fill="white"/>
<path d="M184.736 300.556C186.178 303.681 186.899 306.925 186.899 310.049C187.139 319.423 181.852 328.435 172.839 332.521C163.826 336.607 153.612 334.804 146.642 328.555C144.239 326.392 142.316 323.749 140.874 320.624C140.273 319.182 139.672 317.74 139.312 316.178C136.668 305.123 142.076 293.466 152.771 288.539C163.466 283.612 175.843 287.217 182.452 296.47C183.294 297.792 184.135 299.114 184.736 300.556Z" fill="#E6F2FF"/>
<path d="M179.088 293.226C180.53 296.35 181.251 299.595 181.251 302.719C181.491 312.092 176.204 321.105 167.191 325.191C158.178 329.276 147.964 327.474 140.994 321.225C138.591 319.062 136.668 316.418 135.226 313.294C134.625 311.852 134.024 310.41 133.664 308.848C131.02 297.792 136.428 286.136 147.123 281.209C157.818 276.282 170.195 279.887 176.804 289.14C177.646 290.462 178.487 291.784 179.088 293.226Z" fill="#D53F36"/>
<path d="M176.804 289.14L133.664 308.848C131.02 297.792 136.428 286.136 147.123 281.209C157.818 276.402 170.195 280.007 176.804 289.14Z" fill="#131313"/>
<path d="M181.251 302.719C181.491 312.092 176.204 321.105 167.191 325.191C158.178 329.276 147.964 327.474 140.994 321.225L181.251 302.719Z" fill="#FDDA5F"/>
<path d="M147.526 36.0598C146.613 38.2168 145.286 40.042 143.793 41.5353C139.23 45.9323 132.261 47.4257 126.038 44.7708C119.816 42.116 116.083 36.1427 116 29.7546C116 27.5976 116.415 25.3576 117.327 23.2005C117.742 22.205 118.24 21.2924 118.821 20.3798C123.135 13.9917 131.514 11.3369 138.815 14.4065C146.198 17.5591 150.098 25.3576 148.521 32.9072C148.273 34.0687 147.941 35.1472 147.526 36.0598Z" fill="#131313"/>
<path d="M148.19 30.833C144.871 37.3871 137.819 40.7886 130.933 39.71C130.27 39.6271 129.689 39.4612 129.025 39.2952C128.03 39.0463 127.034 38.6315 126.039 38.1337C123.964 37.0552 122.222 35.6449 120.812 33.9856C116.747 29.0908 115.668 22.1219 118.738 16.0657C121.807 10.0094 128.03 6.69086 134.335 7.02271C136.492 7.18864 138.649 7.68641 140.723 8.76493C141.718 9.26271 142.548 9.84345 143.378 10.4242C144.207 11.0879 144.954 11.7516 145.618 12.4983C150.098 17.3931 151.259 24.6108 148.19 30.833Z" fill="white"/>
<path d="M148.19 30.8331C144.871 37.3871 137.819 40.7886 130.933 39.7101L144.954 11.8346C145.203 12.0835 145.535 12.2494 145.784 12.4983C150.098 17.3931 151.259 24.6109 148.19 30.8331Z" fill="#D53F36"/>
<path d="M120.895 33.9856C116.83 29.0908 115.751 22.1219 118.821 16.0657C121.89 10.0094 128.113 6.69086 134.418 7.02271L120.895 33.9856Z" fill="#4887FC"/>
<path d="M457.102 113.223C456.847 114.923 456.252 116.453 455.402 117.728C452.938 121.637 448.263 123.932 443.419 123.167C438.574 122.402 434.835 118.833 433.645 114.328C433.22 112.798 433.135 111.184 433.39 109.484C433.475 108.719 433.73 107.954 433.985 107.274C435.854 102.004 441.379 98.6048 447.073 99.5397C452.853 100.475 457.017 105.319 457.187 110.929C457.272 111.693 457.272 112.458 457.102 113.223Z" fill="#131313"/>
<path d="M450.218 117.303C449.623 117.643 449.028 117.983 448.433 118.238C447.838 118.493 447.158 118.663 446.478 118.833C446.138 118.918 445.713 119.003 445.373 119.003C444.014 119.173 442.569 119.088 441.209 118.748C438.489 118.068 435.939 116.453 434.24 114.158C433.815 113.648 433.475 113.053 433.22 112.373C433.05 112.118 432.965 111.863 432.88 111.524C432.71 111.184 432.625 110.844 432.54 110.504C432.37 109.909 432.2 109.314 432.115 108.719C431.69 105.659 432.455 102.514 434.24 100.05C435.005 98.9448 436.024 97.9249 437.214 97.16C437.384 97.075 437.554 96.9051 437.724 96.8201C438.319 96.4801 438.914 96.1401 439.509 95.8852C440.189 95.6302 440.784 95.4602 441.464 95.2902C446.308 94.1853 451.323 96.3101 454.043 100.39C454.297 100.73 454.467 101.155 454.722 101.495C454.892 101.835 455.062 102.175 455.147 102.514C455.317 102.939 455.487 103.449 455.572 103.874C455.742 104.384 455.827 104.894 455.912 105.404C456.422 110.164 454.297 114.838 450.218 117.303Z" fill="#007AFF"/>
<path d="M445.373 119.003C444.014 119.173 442.569 119.088 441.209 118.748L438.064 110.504L436.704 106.934L434.07 100.05C434.835 98.9449 435.854 97.925 437.044 97.16L440.274 105.574L441.634 109.144L445.373 119.003Z" fill="#FDDA5F"/>
<path d="M455.487 103.959L441.634 109.229L438.064 110.589L433.135 112.458C432.965 112.204 432.88 111.949 432.795 111.609C432.625 111.269 432.54 110.929 432.455 110.589C432.285 109.994 432.115 109.399 432.03 108.804L436.704 107.019L440.274 105.659L453.958 100.475C454.213 100.815 454.382 101.24 454.637 101.58C454.807 101.92 454.977 102.26 455.062 102.6C455.232 103.024 455.402 103.534 455.487 103.959Z" fill="#FDDA5F"/>
</svg>
