<svg width="589" height="464" viewBox="0 0 589 464" fill="none" xmlns="http://www.w3.org/2000/svg">
<path d="M520.6 254.5C520.6 297.8 507.5 338 485 371.4C472 390.7 455.8 407.7 437.3 421.7C435.7 422.9 434.1 424.1 432.5 425.2C425.5 430.2 418.2 434.8 410.6 438.9C395.2 447.2 378.7 453.7 361.2 457.9C360.2 458.2 359.1 458.4 358.1 458.6C354.6 459.4 351.1 460.1 347.5 460.7C335.7 462.8 323.5 463.9 311.1 463.9C303.3 463.9 295.6 463.5 288 462.6C284.6 462.2 281.2 461.8 277.9 461.2C177.9 445.4 101.6 358.9 101.6 254.5C101.6 138.8 195.4 45 311.1 45C426.8 45 520.6 138.8 520.6 254.5Z" fill="#E6F2FF"/>
<path fill-rule="evenodd" clip-rule="evenodd" d="M480.227 266.014C478.194 265.244 475.698 265.006 472.605 265.442C472.195 265.5 471.816 265.214 471.758 264.804C471.7 264.394 471.986 264.015 472.396 263.957C475.671 263.495 478.433 263.73 480.758 264.612C481.146 264.758 481.341 265.191 481.194 265.579C481.047 265.966 480.614 266.161 480.227 266.014ZM465.379 266.526C465.522 266.915 465.323 267.346 464.935 267.489C462.674 268.322 460.207 269.397 457.513 270.731C457.142 270.915 456.692 270.763 456.508 270.392C456.324 270.021 456.476 269.571 456.847 269.387C459.58 268.033 462.097 266.937 464.416 266.082C464.805 265.939 465.236 266.138 465.379 266.526ZM486.104 269.895C486.458 269.68 486.919 269.793 487.134 270.148C488.444 272.31 489.401 274.937 490.125 277.909C490.223 278.312 489.976 278.718 489.574 278.816C489.171 278.914 488.765 278.667 488.667 278.264C487.965 275.379 487.055 272.911 485.851 270.925C485.637 270.571 485.75 270.11 486.104 269.895ZM450.73 273.505C450.936 273.864 450.813 274.323 450.454 274.53C449.3 275.195 448.112 275.898 446.889 276.641C445.759 277.328 444.644 278.022 443.544 278.722C443.194 278.945 442.731 278.842 442.508 278.492C442.286 278.143 442.389 277.679 442.738 277.457C443.847 276.751 444.971 276.051 446.11 275.359C447.342 274.61 448.54 273.901 449.705 273.23C450.064 273.023 450.523 273.147 450.73 273.505ZM437.21 282.023C437.447 282.363 437.364 282.83 437.024 283.067C434.857 284.577 432.748 286.115 430.692 287.677C430.362 287.928 429.891 287.864 429.641 287.534C429.39 287.204 429.454 286.734 429.784 286.483C431.856 284.908 433.982 283.359 436.166 281.836C436.506 281.6 436.974 281.683 437.21 282.023ZM490.686 285.373C491.097 285.324 491.471 285.618 491.52 286.029C491.826 288.597 492.06 291.323 492.261 294.168C492.29 294.581 491.979 294.939 491.565 294.969C491.152 294.998 490.794 294.687 490.764 294.273C490.564 291.441 490.333 288.741 490.03 286.207C489.981 285.796 490.275 285.422 490.686 285.373ZM91.8038 291.811C91.8108 291.397 92.1523 291.067 92.5664 291.074C95.3091 291.12 98.0338 291.24 100.73 291.439C101.143 291.47 101.453 291.83 101.422 292.243C101.392 292.656 101.032 292.966 100.619 292.935C97.9533 292.738 95.2571 292.62 92.541 292.574C92.1269 292.567 91.7968 292.225 91.8038 291.811ZM85.1684 291.868C85.182 292.282 84.8574 292.629 84.4434 292.642C81.7518 292.731 79.0512 292.882 76.3515 293.09C75.9385 293.121 75.578 292.812 75.5462 292.399C75.5145 291.986 75.8235 291.626 76.2365 291.594C78.9569 291.385 81.6794 291.232 84.3942 291.143C84.8082 291.13 85.1548 291.454 85.1684 291.868ZM424.652 291.487C424.916 291.806 424.87 292.279 424.551 292.542C422.515 294.222 420.532 295.927 418.595 297.654C418.286 297.929 417.812 297.902 417.536 297.593C417.26 297.284 417.288 296.81 417.597 296.534C419.547 294.795 421.545 293.078 423.596 291.385C423.916 291.122 424.388 291.167 424.652 291.487ZM108.024 292.945C108.082 292.535 108.462 292.249 108.872 292.307C111.607 292.693 114.3 293.173 116.939 293.757C117.343 293.847 117.599 294.247 117.509 294.651C117.42 295.056 117.019 295.311 116.615 295.222C114.017 294.647 111.362 294.173 108.662 293.792C108.252 293.734 107.967 293.355 108.024 292.945ZM68.9422 293.041C68.9902 293.452 68.6956 293.825 68.2842 293.873C65.5902 294.187 62.9073 294.551 60.2452 294.959C59.8357 295.021 59.453 294.74 59.3903 294.331C59.3276 293.921 59.6087 293.539 60.0181 293.476C62.6971 293.066 65.3978 292.699 68.1104 292.383C68.5218 292.335 68.8942 292.629 68.9422 293.041ZM52.8447 295.446C52.921 295.853 52.6527 296.245 52.2456 296.321C49.5599 296.824 46.9071 297.366 44.298 297.939C43.8935 298.028 43.4934 297.772 43.4046 297.367C43.3157 296.963 43.5716 296.563 43.9761 296.474C46.5999 295.897 49.268 295.353 51.9695 294.847C52.3767 294.771 52.7685 295.039 52.8447 295.446ZM123.911 296.367C124.037 295.973 124.459 295.755 124.853 295.881C127.491 296.723 130.055 297.688 132.534 298.786C132.912 298.954 133.083 299.397 132.916 299.775C132.748 300.154 132.305 300.325 131.926 300.157C129.501 299.083 126.987 298.137 124.397 297.31C124.003 297.184 123.785 296.762 123.911 296.367ZM36.9565 298.886C37.0575 299.288 36.8137 299.696 36.412 299.797C33.7249 300.472 31.101 301.175 28.5534 301.897C28.1549 302.01 27.7403 301.779 27.6274 301.38C27.5144 300.982 27.7459 300.567 28.1445 300.454C30.7061 299.728 33.3445 299.021 36.0462 298.342C36.448 298.241 36.8555 298.485 36.9565 298.886ZM491.971 301.58C492.384 301.556 492.739 301.872 492.763 302.286L492.774 302.488C492.923 305.067 493.075 307.707 493.255 310.391C493.282 310.804 492.97 311.162 492.556 311.19C492.143 311.217 491.786 310.905 491.758 310.491C491.577 307.797 491.425 305.148 491.276 302.568L491.265 302.372C491.241 301.959 491.557 301.604 491.971 301.58ZM412.858 301.919C413.144 302.218 413.134 302.693 412.835 302.979C410.935 304.799 409.079 306.639 407.26 308.498C406.971 308.794 406.496 308.799 406.2 308.509C405.904 308.22 405.898 307.745 406.188 307.449C408.017 305.579 409.885 303.728 411.797 301.896C412.096 301.61 412.571 301.62 412.858 301.919ZM138.806 302.825C139.02 302.47 139.481 302.356 139.836 302.57C142.194 303.991 144.446 305.563 146.573 307.296C146.895 307.558 146.943 308.03 146.681 308.351C146.42 308.672 145.947 308.721 145.626 308.459C143.556 306.772 141.363 305.241 139.062 303.855C138.707 303.641 138.593 303.18 138.806 302.825ZM21.2801 303.283C21.4052 303.678 21.1865 304.099 20.7916 304.225C18.1 305.077 15.5251 305.942 13.0863 306.805C12.6959 306.943 12.2673 306.739 12.129 306.348C11.9908 305.958 12.1953 305.529 12.5857 305.391C15.0406 304.522 17.6314 303.652 20.3386 302.795C20.7335 302.669 21.155 302.888 21.2801 303.283ZM5.94532 308.671C6.09904 309.055 5.91183 309.492 5.5272 309.645C4.22147 310.167 2.97615 310.683 1.79578 311.189C1.41514 311.353 0.974142 311.177 0.810784 310.796C0.647426 310.415 0.823568 309.974 1.20421 309.811C2.39681 309.299 3.6538 308.779 4.97056 308.252C5.35519 308.099 5.79161 308.286 5.94532 308.671ZM151.486 312.908C151.793 312.63 152.267 312.654 152.545 312.961C154.361 314.97 156.046 317.141 157.583 319.482C157.811 319.828 157.715 320.293 157.368 320.521C157.022 320.748 156.557 320.652 156.33 320.305C154.834 318.029 153.198 315.92 151.432 313.967C151.155 313.66 151.178 313.186 151.486 312.908ZM401.815 313.125C402.119 313.406 402.138 313.88 401.856 314.185C400.073 316.115 398.322 318.061 396.599 320.02C396.325 320.331 395.851 320.361 395.54 320.088C395.229 319.814 395.199 319.34 395.472 319.029C397.203 317.062 398.962 315.107 400.755 313.167C401.036 312.862 401.51 312.844 401.815 313.125ZM493.078 317.803C493.491 317.764 493.857 318.067 493.895 318.48C494.147 321.151 494.448 323.841 494.82 326.53C494.876 326.94 494.59 327.319 494.179 327.375C493.769 327.432 493.39 327.145 493.334 326.735C492.958 324.02 492.656 321.309 492.402 318.62C492.363 318.208 492.666 317.842 493.078 317.803ZM391.381 324.914C391.697 325.182 391.737 325.655 391.469 325.971C389.774 327.975 388.101 329.989 386.441 332.011C386.178 332.331 385.706 332.377 385.386 332.115C385.066 331.852 385.019 331.379 385.282 331.059C386.945 329.033 388.623 327.013 390.324 325.003C390.591 324.686 391.064 324.647 391.381 324.914ZM160.593 326.326C160.968 326.151 161.414 326.314 161.589 326.69C162.707 329.093 163.695 331.639 164.544 334.335C164.668 334.73 164.449 335.151 164.054 335.276C163.658 335.4 163.237 335.181 163.113 334.786C162.283 332.15 161.318 329.664 160.229 327.322C160.054 326.947 160.217 326.501 160.593 326.326ZM495.272 333.916C495.679 333.834 496.074 334.098 496.155 334.504C496.684 337.148 497.304 339.77 498.036 342.353C498.149 342.752 497.918 343.166 497.519 343.279C497.121 343.392 496.706 343.161 496.593 342.762C495.849 340.137 495.22 337.476 494.684 334.798C494.603 334.392 494.866 333.997 495.272 333.916ZM381.37 337.059C381.693 337.319 381.744 337.791 381.484 338.114C379.838 340.158 378.2 342.206 376.564 344.255C376.306 344.578 375.834 344.631 375.51 344.373C375.187 344.114 375.134 343.642 375.392 343.319C377.029 341.269 378.668 339.22 380.315 337.173C380.575 336.851 381.047 336.8 381.37 337.059ZM165.671 341.691C166.077 341.612 166.471 341.878 166.55 342.284C166.811 343.623 167.042 344.992 167.242 346.394C167.428 347.695 167.626 348.983 167.834 350.256C167.901 350.665 167.624 351.051 167.215 351.118C166.807 351.185 166.421 350.908 166.354 350.499C166.144 349.215 165.945 347.918 165.758 346.606C165.561 345.229 165.334 343.884 165.078 342.571C164.999 342.165 165.264 341.771 165.671 341.691ZM371.534 349.35C371.858 349.609 371.91 350.081 371.651 350.405C370.011 352.452 368.366 354.498 366.71 356.538C366.449 356.86 365.976 356.909 365.655 356.648C365.333 356.387 365.284 355.914 365.545 355.593C367.199 353.556 368.841 351.513 370.48 349.467C370.739 349.144 371.211 349.091 371.534 349.35ZM499.628 349.564C500.013 349.412 500.449 349.602 500.6 349.987C501.091 351.232 501.616 352.462 502.176 353.675C502.73 354.783 503.309 355.865 503.913 356.916C504.119 357.276 503.995 357.734 503.636 357.94C503.277 358.146 502.818 358.022 502.612 357.663C501.992 356.582 501.398 355.472 500.829 354.335L500.824 354.325L500.819 354.315C500.244 353.071 499.707 351.811 499.205 350.537C499.053 350.152 499.242 349.716 499.628 349.564ZM588.045 349.985C588.33 350.285 588.316 350.76 588.015 351.045C587.087 351.923 586.165 352.779 585.25 353.611C584.943 353.89 584.469 353.868 584.19 353.562C583.911 353.255 583.934 352.781 584.24 352.502C585.148 351.676 586.063 350.827 586.985 349.955C587.286 349.67 587.76 349.684 588.045 349.985ZM579.721 357.461C579.987 357.779 579.944 358.252 579.626 358.517C577.626 360.184 575.662 361.739 573.733 363.185C573.401 363.433 572.931 363.366 572.683 363.034C572.434 362.703 572.502 362.233 572.833 361.984C574.741 360.555 576.685 359.017 578.665 357.365C578.983 357.1 579.456 357.143 579.721 357.461ZM168.362 357.29C168.768 357.205 169.165 357.465 169.25 357.87C169.787 360.446 170.375 362.958 171.01 365.406C171.114 365.807 170.873 366.216 170.472 366.32C170.071 366.424 169.662 366.184 169.558 365.783C168.916 363.311 168.324 360.775 167.781 358.177C167.697 357.772 167.957 357.374 168.362 357.29ZM361.613 361.571C361.931 361.836 361.974 362.308 361.709 362.627C360.032 364.642 358.337 366.649 356.617 368.644C356.347 368.958 355.873 368.993 355.56 368.723C355.246 368.452 355.211 367.979 355.481 367.665C357.194 365.677 358.884 363.677 360.556 361.667C360.821 361.349 361.294 361.306 361.613 361.571ZM506.923 362.9C507.252 362.647 507.722 362.709 507.975 363.037C509.499 365.019 511.138 366.835 512.892 368.462C513.195 368.743 513.213 369.218 512.932 369.521C512.65 369.825 512.176 369.843 511.872 369.561C510.051 367.874 508.357 365.994 506.786 363.952C506.533 363.623 506.595 363.152 506.923 362.9ZM567.823 366.452C568.05 366.798 567.953 367.263 567.606 367.49C565.418 368.924 563.277 370.213 561.184 371.362C560.821 371.561 560.365 371.428 560.166 371.065C559.966 370.702 560.099 370.246 560.462 370.047C562.519 368.918 564.626 367.65 566.784 366.236C567.131 366.009 567.596 366.105 567.823 366.452ZM172.203 372.346C172.598 372.221 173.02 372.44 173.145 372.834C173.938 375.34 174.787 377.769 175.688 380.122C175.836 380.509 175.642 380.943 175.256 381.091C174.869 381.239 174.435 381.045 174.287 380.659C173.375 378.277 172.517 375.82 171.715 373.287C171.59 372.893 171.808 372.471 172.203 372.346ZM517.671 373.12C517.886 372.766 518.347 372.652 518.701 372.867C520.775 374.121 522.976 375.142 525.306 375.899C525.699 376.028 525.915 376.451 525.787 376.845C525.659 377.239 525.235 377.454 524.841 377.326C522.399 376.531 520.093 375.462 517.925 374.15C517.571 373.936 517.457 373.475 517.671 373.12ZM554.815 373.684C554.977 374.065 554.8 374.505 554.419 374.668C551.979 375.709 549.61 376.55 547.311 377.203C546.913 377.316 546.498 377.085 546.385 376.686C546.272 376.288 546.503 375.873 546.902 375.76C549.135 375.125 551.445 374.306 553.83 373.288C554.211 373.126 554.652 373.303 554.815 373.684ZM351.349 373.504C351.657 373.782 351.681 374.256 351.404 374.564C349.649 376.51 347.864 378.442 346.043 380.356C345.758 380.656 345.283 380.668 344.983 380.383C344.683 380.097 344.671 379.623 344.956 379.322C346.768 377.419 348.543 375.497 350.29 373.559C350.567 373.252 351.041 373.227 351.349 373.504ZM540.543 377.868C540.59 378.28 540.295 378.651 539.883 378.699C537.249 379.002 534.721 379.038 532.299 378.829C531.886 378.794 531.58 378.43 531.616 378.018C531.651 377.605 532.015 377.299 532.427 377.335C534.745 377.535 537.172 377.5 539.712 377.209C540.123 377.161 540.495 377.457 540.543 377.868ZM340.526 384.928C340.817 385.223 340.814 385.698 340.519 385.989C338.659 387.827 336.757 389.645 334.809 391.44C334.504 391.721 334.03 391.701 333.749 391.397C333.468 391.092 333.488 390.618 333.792 390.337C335.727 388.554 337.616 386.748 339.465 384.922C339.76 384.631 340.235 384.634 340.526 384.928ZM177.696 386.896C178.072 386.723 178.517 386.887 178.691 387.264C179.792 389.655 180.953 391.954 182.173 394.161C182.374 394.523 182.242 394.979 181.88 395.18C181.517 395.38 181.061 395.249 180.861 394.886C179.622 392.646 178.444 390.314 177.328 387.891C177.155 387.515 177.319 387.069 177.696 386.896ZM328.983 395.627C329.252 395.942 329.215 396.416 328.9 396.685C326.913 398.382 324.877 400.054 322.786 401.7C322.461 401.956 321.989 401.9 321.733 401.574C321.477 401.249 321.533 400.777 321.858 400.521C323.933 398.888 325.954 397.228 327.926 395.544C328.241 395.275 328.714 395.312 328.983 395.627ZM185.127 400.536C185.472 400.306 185.937 400.4 186.167 400.745C187.62 402.931 189.14 405.008 190.723 406.974C190.983 407.296 190.932 407.768 190.609 408.028C190.287 408.288 189.815 408.237 189.555 407.914C187.942 405.912 186.396 403.798 184.917 401.575C184.688 401.23 184.782 400.765 185.127 400.536ZM316.653 405.406C316.895 405.741 316.819 406.21 316.484 406.453C314.374 407.975 312.21 409.471 309.986 410.937C309.64 411.165 309.175 411.07 308.947 410.724C308.719 410.378 308.814 409.913 309.16 409.685C311.366 408.23 313.513 406.747 315.606 405.236C315.941 404.994 316.41 405.07 316.653 405.406ZM194.78 412.715C195.075 412.424 195.55 412.428 195.84 412.723C197.668 414.577 199.565 416.304 201.528 417.903C201.849 418.165 201.897 418.637 201.636 418.959C201.374 419.28 200.902 419.328 200.58 419.066C198.575 417.432 196.637 415.668 194.772 413.776C194.481 413.481 194.485 413.006 194.78 412.715ZM303.558 414.114C303.771 414.469 303.656 414.93 303.301 415.143C302.173 415.82 301.03 416.489 299.872 417.151C298.722 417.808 297.575 418.446 296.431 419.065C296.067 419.262 295.612 419.126 295.415 418.762C295.217 418.398 295.353 417.943 295.717 417.745C296.851 417.133 297.988 416.5 299.128 415.849C300.277 415.192 301.41 414.528 302.529 413.857C302.884 413.644 303.345 413.759 303.558 414.114ZM289.824 421.611C290.003 421.985 289.845 422.433 289.471 422.611C287.075 423.757 284.697 424.815 282.337 425.787C281.954 425.945 281.516 425.762 281.358 425.379C281.2 424.996 281.383 424.558 281.766 424.4C284.099 423.439 286.453 422.392 288.824 421.258C289.198 421.079 289.645 421.238 289.824 421.611ZM206.719 422.636C206.942 422.287 207.406 422.185 207.755 422.407C209.927 423.792 212.166 425.039 214.468 426.144C214.842 426.324 214.999 426.772 214.82 427.145C214.64 427.519 214.192 427.676 213.819 427.497C211.462 426.365 209.17 425.089 206.948 423.672C206.599 423.449 206.497 422.986 206.719 422.636ZM275.491 427.593C275.625 427.985 275.416 428.411 275.024 428.545C272.498 429.409 269.996 430.171 267.52 430.832C267.119 430.939 266.708 430.701 266.601 430.301C266.495 429.901 266.732 429.49 267.133 429.383C269.574 428.731 272.044 427.979 274.538 427.126C274.93 426.992 275.357 427.201 275.491 427.593ZM220.633 429.516C220.766 429.124 221.192 428.913 221.584 429.046C223.994 429.864 226.464 430.542 228.991 431.079C229.396 431.165 229.655 431.563 229.568 431.968C229.482 432.374 229.084 432.632 228.679 432.546C226.096 431.997 223.569 431.304 221.102 430.467C220.71 430.334 220.5 429.908 220.633 429.516ZM260.48 431.693C260.556 432.1 260.288 432.492 259.881 432.568C257.265 433.056 254.683 433.428 252.136 433.683C251.724 433.724 251.356 433.423 251.315 433.011C251.274 432.599 251.574 432.231 251.986 432.19C254.49 431.939 257.03 431.574 259.605 431.093C260.013 431.017 260.404 431.286 260.48 431.693ZM235.78 432.925C235.82 432.513 236.187 432.212 236.6 432.252C239.111 432.499 241.672 432.616 244.278 432.602C244.692 432.599 245.03 432.933 245.032 433.348C245.034 433.762 244.7 434.099 244.286 434.102C241.63 434.116 239.018 433.997 236.453 433.745C236.041 433.705 235.739 433.338 235.78 432.925Z" fill="#007AFF"/>
<path fill-rule="evenodd" clip-rule="evenodd" d="M530.5 0.25C530.914 0.25 531.25 0.585786 531.25 1C531.25 2.09148 531.114 3.40647 530.856 4.91063C530.786 5.3189 530.399 5.59316 529.99 5.52322C529.582 5.45327 529.308 5.06561 529.378 4.65734C529.627 3.20163 529.75 1.9771 529.75 1C529.75 0.585786 530.086 0.25 530.5 0.25ZM528.489 11.6549C528.886 11.7719 529.113 12.1888 528.996 12.5862C528.328 14.8563 527.517 17.3388 526.57 19.9987C526.431 20.3889 526.002 20.5927 525.612 20.4539C525.222 20.315 525.018 19.8861 525.157 19.4958C526.096 16.8579 526.898 14.402 527.557 12.1625C527.674 11.7652 528.091 11.5379 528.489 11.6549ZM523.371 26.3695C523.756 26.5232 523.943 26.9596 523.789 27.3443C522.863 29.6626 521.856 32.0733 520.774 34.5593C520.608 34.9391 520.166 35.1129 519.787 34.9475C519.407 34.7821 519.233 34.3402 519.398 33.9604C520.475 31.4878 521.476 29.0912 522.396 26.7876C522.55 26.403 522.986 26.2158 523.371 26.3695ZM517.205 40.6626C517.58 40.8381 517.743 41.2844 517.567 41.6597C516.493 43.9586 515.361 46.3039 514.176 48.6842C513.992 49.0551 513.542 49.206 513.171 49.0214C512.8 48.8368 512.649 48.3866 512.834 48.0158C514.013 45.6464 515.139 43.3122 516.208 41.0245C516.384 40.6492 516.83 40.4872 517.205 40.6626ZM510.302 54.6148C510.669 54.8082 510.809 55.2619 510.616 55.6282C509.418 57.8968 508.176 60.1861 506.891 62.487C506.689 62.8487 506.232 62.9781 505.871 62.7762C505.509 62.5742 505.38 62.1174 505.582 61.7557C506.861 59.4653 508.097 57.1863 509.289 54.928C509.482 54.5617 509.936 54.4215 510.302 54.6148ZM502.747 68.2165C503.104 68.427 503.223 68.8869 503.012 69.2436C501.701 71.4654 500.351 73.6897 498.967 75.908C498.747 76.2594 498.285 76.3664 497.933 76.147C497.582 75.9277 497.475 75.465 497.694 75.1137C499.072 72.9062 500.415 70.6926 501.72 68.4811C501.931 68.1244 502.391 68.0059 502.747 68.2165ZM494.538 81.4326C494.883 81.6611 494.978 82.1264 494.75 82.4719C493.317 84.6383 491.851 86.7913 490.354 88.9228C490.116 89.2617 489.648 89.3435 489.309 89.1054C488.97 88.8674 488.889 88.3996 489.127 88.0606C490.616 85.941 492.073 83.7997 493.499 81.6445C493.727 81.299 494.192 81.2041 494.538 81.4326ZM485.62 94.1949C485.951 94.4432 486.019 94.9132 485.771 95.2448C484.206 97.3347 482.611 99.3952 480.987 101.418C480.728 101.741 480.256 101.793 479.933 101.534C479.61 101.275 479.558 100.802 479.817 100.479C481.43 98.47 483.015 96.4228 484.57 94.3456C484.818 94.0141 485.288 93.9466 485.62 94.1949ZM323.702 102.076C320.883 101.906 318.174 101.992 315.571 102.312C315.16 102.363 314.786 102.07 314.735 101.659C314.685 101.248 314.977 100.874 315.388 100.823C318.084 100.492 320.884 100.403 323.793 100.579C324.206 100.604 324.521 100.959 324.496 101.373C324.471 101.786 324.115 102.101 323.702 102.076ZM331.26 102.338C331.349 101.934 331.75 101.678 332.154 101.767C334.752 102.34 337.426 103.112 340.18 104.096C340.57 104.236 340.773 104.665 340.634 105.055C340.495 105.445 340.065 105.648 339.675 105.509C336.977 104.545 334.363 103.791 331.831 103.232C331.427 103.143 331.171 102.743 331.26 102.338ZM308.084 103.149C308.214 103.543 308.001 103.967 307.608 104.097C305.009 104.956 302.526 106.063 300.15 107.389C299.789 107.591 299.332 107.461 299.13 107.1C298.928 106.738 299.058 106.281 299.419 106.079C301.873 104.71 304.444 103.564 307.137 102.673C307.53 102.543 307.954 102.756 308.084 103.149ZM475.913 106.361C476.226 106.632 476.26 107.106 475.989 107.419C474.272 109.402 472.527 111.338 470.757 113.218C470.473 113.519 469.998 113.533 469.696 113.249C469.395 112.965 469.381 112.491 469.665 112.189C471.42 110.326 473.151 108.405 474.855 106.437C475.126 106.124 475.599 106.09 475.913 106.361ZM346.913 107.681C347.091 107.307 347.539 107.148 347.913 107.327C350.324 108.475 352.793 109.778 355.319 111.244C355.677 111.452 355.799 111.911 355.592 112.269C355.384 112.627 354.925 112.749 354.566 112.541C352.073 111.095 349.641 109.811 347.268 108.681C346.894 108.503 346.735 108.055 346.913 107.681ZM293.493 110.914C293.752 111.238 293.699 111.71 293.376 111.968C291.271 113.653 289.262 115.518 287.346 117.536C287.06 117.837 286.586 117.849 286.285 117.564C285.985 117.279 285.973 116.804 286.258 116.504C288.217 114.44 290.275 112.529 292.439 110.797C292.762 110.538 293.234 110.591 293.493 110.914ZM361.362 115.886C361.593 115.542 362.059 115.45 362.403 115.681C364.623 117.172 366.886 118.783 369.192 120.519C369.523 120.769 369.589 121.239 369.34 121.57C369.091 121.901 368.621 121.967 368.29 121.718C366.004 119.997 363.763 118.401 361.567 116.926C361.223 116.696 361.131 116.23 361.362 115.886ZM465.287 117.716C465.575 118.014 465.566 118.489 465.268 118.776C463.369 120.607 461.445 122.367 459.495 124.047C459.181 124.318 458.708 124.282 458.437 123.969C458.167 123.655 458.202 123.181 458.516 122.911C460.443 121.25 462.347 119.509 464.227 117.697C464.525 117.409 465 117.418 465.287 117.716ZM281.889 122.756C282.219 123.007 282.283 123.478 282.032 123.807C280.39 125.965 278.827 128.234 277.337 130.593C277.116 130.943 276.653 131.048 276.303 130.827C275.952 130.605 275.848 130.142 276.069 129.792C277.58 127.4 279.168 125.094 280.838 122.899C281.089 122.569 281.56 122.506 281.889 122.756ZM374.67 125.78C374.934 125.461 375.407 125.416 375.726 125.68C376.805 126.57 377.892 127.488 378.989 128.432C380.009 129.309 381.028 130.142 382.048 130.932C382.375 131.186 382.435 131.657 382.182 131.984C381.928 132.312 381.457 132.371 381.129 132.118C380.089 131.312 379.049 130.462 378.011 129.568C376.921 128.631 375.841 127.72 374.771 126.836C374.452 126.572 374.406 126.1 374.67 125.78ZM453.555 127.915C453.804 128.245 453.738 128.716 453.408 128.965C451.288 130.562 449.143 132.059 446.974 133.443C446.625 133.666 446.161 133.563 445.939 133.214C445.716 132.865 445.818 132.401 446.167 132.178C448.301 130.817 450.414 129.343 452.505 127.767C452.836 127.518 453.306 127.584 453.555 127.915ZM387.333 135.537C387.548 135.183 388.009 135.069 388.363 135.284C390.633 136.657 392.901 137.826 395.163 138.804C395.544 138.968 395.719 139.41 395.554 139.79C395.39 140.17 394.949 140.345 394.569 140.181C392.241 139.175 389.913 137.974 387.587 136.567C387.232 136.353 387.119 135.892 387.333 135.537ZM440.494 136.353C440.683 136.722 440.538 137.174 440.17 137.363C437.799 138.581 435.403 139.656 432.987 140.573C432.6 140.72 432.167 140.525 432.02 140.138C431.873 139.751 432.068 139.318 432.455 139.171C434.815 138.275 437.159 137.224 439.484 136.029C439.853 135.84 440.305 135.985 440.494 136.353ZM272.879 136.714C273.244 136.91 273.381 137.365 273.185 137.73C271.889 140.142 270.658 142.615 269.487 145.129C269.312 145.505 268.866 145.668 268.491 145.493C268.115 145.318 267.952 144.872 268.127 144.496C269.309 141.959 270.553 139.46 271.864 137.02C272.06 136.655 272.514 136.518 272.879 136.714ZM401.478 141.832C401.582 141.43 401.991 141.189 402.392 141.293C404.908 141.942 407.417 142.368 409.917 142.585C410.329 142.621 410.635 142.985 410.599 143.397C410.563 143.81 410.2 144.115 409.787 144.08C407.205 143.855 404.614 143.416 402.017 142.745C401.616 142.642 401.375 142.233 401.478 141.832ZM426.016 141.986C426.111 142.389 425.861 142.792 425.457 142.887C422.88 143.491 420.283 143.903 417.67 144.108C417.258 144.14 416.897 143.832 416.864 143.419C416.832 143.006 417.14 142.645 417.553 142.612C420.086 142.414 422.608 142.014 425.115 141.426C425.518 141.332 425.922 141.582 426.016 141.986ZM265.768 151.739C266.151 151.896 266.335 152.334 266.178 152.717C265.129 155.282 264.137 157.866 263.198 160.45C263.056 160.839 262.626 161.04 262.237 160.898C261.847 160.757 261.647 160.327 261.788 159.937C262.733 157.337 263.732 154.734 264.79 152.149C264.946 151.766 265.384 151.582 265.768 151.739ZM260.021 167.339C260.415 167.467 260.63 167.891 260.501 168.285C259.629 170.959 258.81 173.61 258.041 176.214C257.923 176.612 257.506 176.838 257.109 176.721C256.712 176.604 256.485 176.187 256.602 175.789C257.375 173.173 258.198 170.509 259.075 167.819C259.204 167.426 259.627 167.211 260.021 167.339ZM255.259 183.27C255.659 183.378 255.895 183.79 255.787 184.19C255.42 185.545 255.067 186.88 254.726 188.189C254.378 189.523 253.995 190.833 253.577 192.118C253.449 192.512 253.026 192.728 252.632 192.599C252.238 192.471 252.023 192.048 252.151 191.654C252.559 190.398 252.934 189.117 253.274 187.811C253.616 186.498 253.971 185.159 254.339 183.798C254.448 183.398 254.859 183.162 255.259 183.27ZM250.217 198.712C250.592 198.888 250.752 199.335 250.576 199.71C249.403 202.204 248.084 204.585 246.631 206.85C246.408 207.198 245.944 207.3 245.595 207.076C245.246 206.852 245.145 206.388 245.369 206.04C246.787 203.83 248.073 201.507 249.219 199.071C249.395 198.696 249.842 198.535 250.217 198.712ZM104.401 209.049C104.65 208.718 105.12 208.652 105.451 208.901C106.532 209.713 107.617 210.508 108.706 211.283C109.044 211.524 109.122 211.992 108.882 212.329C108.642 212.667 108.173 212.746 107.836 212.505C106.736 211.722 105.64 210.92 104.549 210.099C104.218 209.85 104.152 209.38 104.401 209.049ZM241.684 212.362C241.999 212.63 242.038 213.103 241.77 213.419C240.005 215.5 238.107 217.456 236.09 219.283C235.783 219.561 235.309 219.538 235.031 219.231C234.753 218.924 234.776 218.45 235.083 218.172C237.052 216.387 238.904 214.479 240.627 212.448C240.895 212.133 241.368 212.094 241.684 212.362ZM114.332 215.999C114.554 215.649 115.017 215.546 115.367 215.768C117.651 217.219 119.947 218.591 122.254 219.885C122.615 220.088 122.743 220.545 122.541 220.906C122.338 221.268 121.881 221.396 121.52 221.193C119.189 219.885 116.869 218.499 114.563 217.034C114.213 216.812 114.11 216.348 114.332 215.999ZM229.888 223.325C230.125 223.664 230.042 224.132 229.702 224.369C227.487 225.917 225.166 227.338 222.749 228.63C222.384 228.825 221.929 228.687 221.734 228.322C221.539 227.956 221.677 227.502 222.042 227.307C224.407 226.042 226.678 224.653 228.843 223.14C229.183 222.902 229.65 222.985 229.888 223.325ZM128.364 223.964C128.546 223.591 128.995 223.437 129.367 223.62C131.802 224.811 134.242 225.917 136.685 226.941C137.067 227.101 137.247 227.54 137.087 227.922C136.927 228.304 136.487 228.484 136.105 228.324C133.636 227.29 131.168 226.171 128.708 224.967C128.336 224.785 128.182 224.336 128.364 223.964ZM143.222 230.279C143.359 229.888 143.787 229.682 144.178 229.818C146.73 230.711 149.28 231.513 151.822 232.225C152.221 232.337 152.454 232.751 152.342 233.15C152.23 233.549 151.816 233.782 151.417 233.67C148.845 232.948 146.265 232.137 143.683 231.234C143.292 231.098 143.085 230.67 143.222 230.279ZM215.774 231.088C215.927 231.473 215.74 231.909 215.355 232.063C212.858 233.06 210.282 233.935 207.636 234.688C207.238 234.801 206.823 234.57 206.709 234.171C206.596 233.773 206.827 233.358 207.226 233.245C209.823 232.506 212.351 231.647 214.799 230.67C215.184 230.516 215.62 230.703 215.774 231.088ZM158.735 234.72C158.821 234.315 159.219 234.056 159.624 234.141C162.274 234.699 164.909 235.16 167.525 235.525C167.935 235.582 168.221 235.961 168.164 236.371C168.107 236.782 167.728 237.068 167.317 237.011C164.668 236.641 161.998 236.174 159.315 235.609C158.909 235.523 158.65 235.126 158.735 234.72ZM200.315 235.66C200.39 236.067 200.121 236.458 199.713 236.533C197.074 237.018 194.381 237.39 191.641 237.647C191.228 237.686 190.862 237.383 190.824 236.97C190.785 236.558 191.088 236.192 191.501 236.154C194.198 235.901 196.848 235.535 199.442 235.058C199.849 234.983 200.24 235.252 200.315 235.66ZM174.695 237.045C174.722 236.631 175.08 236.319 175.493 236.346C178.198 236.525 180.873 236.598 183.513 236.569C183.927 236.564 184.267 236.896 184.271 237.31C184.276 237.724 183.944 238.064 183.53 238.068C180.851 238.099 178.137 238.024 175.394 237.843C174.981 237.815 174.668 237.458 174.695 237.045Z" fill="#007AFF"/>
<path d="M400.5 387.3C400.5 387.3 404 310.6 402.4 308.5C400.9 306.4 376.4 274.4 376.4 274.4L361.8 314L400.5 387.3Z" fill="#007AFF"/>
<path d="M187.3 178.3C189.5 185.6 191.6 193 193.8 200.3C193.8 200.3 215.7 194.5 215.5 193.6C215.2 192.7 206.2 173.7 206.2 173.7C204 173.6 201.1 173.7 197.9 174.3C193.3 175.3 189.7 176.9 187.3 178.3Z" fill="#FFA07F"/>
<path d="M298.5 283.4L248.8 250.7L220.1 177.8L178.1 184.9C178.1 184.9 199.3 262.8 214.6 285.3C223.1 297.8 282.6 332.8 282.6 332.8L298.5 283.4Z" fill="#007AFF"/>
<path opacity="0.2" d="M235 255.4C238 254.4 241 253.3 244.1 252.3C245.8 251.8 247.3 253.7 246.1 255.1C244.8 256.7 243.7 258.4 242.8 260.3C242 262 241.7 263.9 240.9 265.6C240.5 266.4 239.3 266.2 239.2 265.3C238.9 262.7 239.7 259.8 240.9 257.3C239.5 257.8 238.1 258.3 236.7 258.8C235.4 259.3 232.4 260.8 231.6 258.6C230.9 256.6 233.7 255.8 235 255.4Z" fill="#131313"/>
<path d="M191.3 114.7C193.6 114.2 208.1 148.2 208.1 148.2C209.9 142.6 213.6 137.6 218.6 134.4L218.7 134.3C219.2 134 219.7 133.8 220.1 134.1C220.3 134.2 220.5 134.4 220.6 134.6C221.7 136.4 221.5 138.7 220.8 140.7C220.1 142.7 219 144.5 218.1 146.3C216.4 149.9 216.1 154 215.8 158C215.4 164.8 204.938 170.656 204.938 170.656C204.938 170.656 205.719 172.438 206.359 174.109L187.3 178.5L185 170.6L180.9 167.4C178.3 164.8 167.6 131 169.6 129.7C170.1 129.3 170.7 129 171.4 128.7C172.3 128.2 173.3 127.9 173.9 127.6C174.4 127.4 174.6 127.3 174.6 127.3C174.6 127.3 175.4 126.3 176.5 125.2C177.1 124.5 177.9 123.9 178.6 123.4C179.4 122.9 180.1 122.6 180.7 122.8C181.3 123 182.6 124.8 184.2 127.3C188.2 133.4 193.9 143.4 194.3 142.6C194.8 141.5 188.1 116.9 188.1 116.9C188.1 116.9 188.5 116.2 189.4 115.6C189.8 115.2 190.4 114.9 191.3 114.7Z" fill="#FFA07F"/>
<path d="M176.4 125.2C176.7 125.8 176.9 126.4 177.2 127.1C178.9 130.7 180.9 133.8 182.4 135.9C183.8 137.9 184.9 139.1 185 139.3C184.9 139.1 184.4 137.6 183.6 135.3C182.7 132.8 181.3 129.5 179.7 125.9C179.3 125 178.9 124.2 178.5 123.4C177.8 123.9 177.1 124.6 176.4 125.2Z" fill="#FF7D6F"/>
<path d="M171.3 128.7C173.9 134.5 177 138.7 177.2 139C177.1 138.7 176.2 133.5 173.8 127.6C173.2 127.8 172.3 128.2 171.3 128.7Z" fill="#FF7D6F"/>
<path d="M410.5 438.9C395.1 447.2 378.6 453.7 361.1 457.9C360.1 458.2 359 458.4 358 458.6C354.5 459.4 351 460.1 347.4 460.7C335.6 462.8 323.4 463.9 311 463.9C303.2 463.9 295.5 463.5 287.9 462.6C284.5 462.2 281.1 461.8 277.8 461.2C277.9 451.3 277.9 438.7 277.1 425.6C276 407.9 276.9 365.2 280.1 331.1C282.3 308 285.5 288.8 289.9 283.9C288.7 281.6 288 279.1 288.1 276.4C288.1 275.2 288.3 273.9 288.7 272.5C290.6 265.9 296.9 261 303.7 260.6C304.1 260.6 304.6 260.6 305 260.6C305 260.6 305 260.6 305 260.5C305.3 255.7 307.2 251.3 310.1 247.4C311.3 245.8 312.7 244.2 314.2 242.8C317.7 239.6 321.9 237 326.4 235.4C327.5 235 328.5 234.6 329.6 234.3C334.6 232.8 339.8 232.2 345.1 232.1C348 232 351 232.1 353.9 232.2C354.4 232.2 354.9 232.2 355.4 232.3C356 232.3 356.6 232.4 357.2 232.4C357.4 232.4 357.6 232.4 357.8 232.4C358 232.4 358.3 232.4 358.5 232.5C359.3 232.5 360.1 232.6 360.8 232.7C361.9 232.8 362.9 232.9 364 233C364.4 233 364.8 233.1 365.2 233.1C365.5 233.1 365.7 233.2 366 233.2C369.9 233.7 373.8 234.7 377.1 237.1C379 238.5 380.7 240.2 381.6 242.4C385.3 250.6 378.5 258.3 372 263.6C376.3 264.7 379.5 268.1 381.2 272.1C382.6 275.3 383.1 279 382.6 282.5C382.6 282.6 382.6 282.7 382.6 282.8C382.4 283.9 382.1 285 381.8 286.1C380.8 289.2 379.2 292.1 377.2 294.8C377.4 295.1 377.5 295.4 377.6 295.6C377.7 296.1 382.2 313.5 387.5 334.4C388.3 337.4 389 340.4 389.8 343.4C393.7 358.7 397.7 374.9 400.6 387.2C400.8 388.1 401 389 401.2 389.9C401.3 390.4 401.4 390.9 401.6 391.4V391.5C403.3 398.7 404.4 404.1 404.7 406.5C405.3 411.5 407.1 421.2 409 431.1C409.5 433.8 410 436.4 410.5 438.9Z" fill="#007AFF"/>
<path opacity="0.2" d="M322.9 265.5C322.9 265.5 313.3 269.2 312.2 277.4C311.1 285.6 319.7 288.4 319.7 288.4L347.3 276.8C347.3 276.8 363.3 273.1 365.2 265.2C367.1 257.3 347.9 255.2 347.9 255.2L322.9 265.5Z" fill="#131313"/>
<g opacity="0.2">
<path d="M372 452.8C370.2 453.6 366.2 455.1 360.9 456.8C359.9 457.1 358.8 457.5 357.6 457.8C354.5 458.8 351.1 459.8 347.5 460.8C335.7 462.9 323.5 464 311.1 464C303.3 464 295.6 463.6 288 462.7C287.1 453.3 284.7 423.1 289.7 418C293.9 413.7 320.7 409.1 338.2 406.3C342.2 405.7 345.6 405.1 348.3 404.7C348.8 404.6 349.3 404.5 349.8 404.5C351.2 404.3 352.3 404.1 352.9 403.9C354.3 403.6 356.6 405.8 359.1 409.5C359.5 410.2 360 410.8 360.4 411.6C364.2 417.7 368.4 426.4 371.1 434.3C371.8 436.4 372.5 438.5 373 440.4C374.5 446.7 374.6 451.6 372 452.8Z" fill="#131313"/>
</g>
<path opacity="0.2" d="M367.7 289.1C352.8 301.6 333.2 306.8 314.8 311.7C306.8 305.6 300.5 300 295.4 291.2C295 290.6 294.2 291 294.4 291.7C297.4 300.8 306 308.2 313.4 313.8C314.1 314.3 314.8 314 315.1 313.4C333.2 310.8 355.9 304.1 369.3 291.1C370.6 290 369 288 367.7 289.1Z" fill="#131313"/>
<path d="M319.7 288.5C329.7 284.4 339.8 280.3 349.8 276.2C348.9 269.1 348.4 263.4 348.2 259.3C347.9 254.2 347.4 246 347.4 246L321.4 251.2L322.8 268C322.7 269.6 322.6 271.2 322.4 272.8C321.6 278 320.6 283.2 319.7 288.5Z" fill="#FFA07F"/>
<path d="M321.4 251.2L322.8 268C328.4 268.9 334.1 267.4 339.2 264.9C342.4 263.3 345.2 261.4 348.1 259.3C347.9 252.1 347.3 246 347.3 246L321.4 251.2Z" fill="#FF7D6F"/>
<path d="M353 247.7C353 247.7 352.1 249.6 348.7 252C348.4 252.2 348 252.5 347.6 252.7C347.6 252.7 347 253.1 346.3 253.5C335.5 259.5 326.3 260.7 326.3 260.7C319.4 261.6 312 262.6 306.4 258.1C302 254.6 300.7 249.5 299.4 244.4C298.7 241.7 298.7 240.6 298.4 227.5C298.1 213.8 297.9 208.1 300.4 200.6C300.8 199.3 301.2 198.3 301.5 197.6C303.4 194.3 306.3 190.2 311.1 187.2C324.4 178.6 344.3 183 357.1 194.8C361.4 198.7 353 247.7 353 247.7Z" fill="#FFA07F"/>
<path d="M300.5 214C300.8 213.4 304.1 207.4 307.3 207.8C308.2 207.9 310.2 208.7 310.1 209.2C310.1 209.3 310 209.4 309.9 209.4L300.5 214Z" fill="#131313"/>
<path d="M342.9 213.2C340.5 211.8 330 205.5 327.9 207.3C327.5 207.6 327.2 208.2 327.1 208.9C327.1 208.9 327.1 209.1 327.4 210.5L342.9 213.2Z" fill="#131313"/>
<path d="M312.4 233.7C312.5 234.5 313.3 235 313.7 235.2C314.5 235.7 315.3 235.7 316.5 235.6C317.4 235.6 318.6 235.5 320 234.7C320.5 234.4 320.9 234.2 321.2 233.7C321.8 232.7 321.5 231.4 321.4 231.1C320 231.7 317.7 232.5 314.9 232.1C314.4 232 313.9 231.9 313.4 231.7C312.7 232.3 312.3 233 312.4 233.7Z" fill="#FF7D6F"/>
<path d="M342.8 223.2C342.8 223.2 334.5 213.1 325.2 222C325.2 222 334 219.6 342.8 223.2Z" fill="#131313"/>
<path d="M310.2 222.3C310.2 222.3 305.5 215.8 300 221.7C300 221.7 305.1 220.1 310.2 222.3Z" fill="#131313"/>
<path d="M308.5 244.2C311.5 244.2 315.2 243.9 319.4 243.1C323.9 242.2 327.7 240.9 330.6 239.6C330.7 240.2 331.7 245.9 327.9 249.6C326.5 250.9 324.5 252 321.5 252.2C310.3 253.2 308.5 244.2 308.5 244.2Z" fill="white"/>
<path d="M315.7 172.5C315.7 172.5 330.5 165.9 344.3 172.5C358.1 179.1 360.8 188.5 360.8 188.5C360.8 188.5 371.2 190.9 373.6 196.3C375.9 201.7 370 211.3 370 211.3L315.7 172.5Z" fill="#131313"/>
<path d="M301.1 185.5C297.8 186.6 295.4 189.6 294.3 192.9C293.2 196.2 293.1 199.7 293.1 203.2C293.1 206.7 293.2 210.2 292.3 213.6C296.6 212.5 299.8 207 300.8 202.7C306.7 202.8 315.7 194.1 315.7 194.1L316.9 198.4C317.5 200.3 319.3 201.6 321.3 201.5C328.9 200.9 341 196.6 341 196.6L341.8 198.3C342.7 200.3 344.9 201.6 347.1 201.2C351.3 200.5 354.1 199 354.1 199L352.3 211C352 212.8 352.2 214.6 352.7 216.3L355.7 226.7C357.5 224.6 360.3 224.2 362.1 225.3C363.9 226.4 364 228.7 364.1 229C364.8 226.8 365.4 224.6 366.1 222.4C366.8 220.4 368 217.2 368.7 215.2L369.8 212.6C369.8 212.5 369.9 212.4 369.9 212.2C370 211.7 370.2 211 370.1 210.2C370.1 209.8 370 209.1 369.6 208.4C368.8 205.5 367.4 203.7 366.4 202.7C365.3 201.5 363.6 200.4 360.4 198C359.8 197.5 359.2 197.1 358.6 196.6C357.8 196 357.1 195.3 356.4 194.6C353.3 191.6 350.7 188.2 347.6 185.2C341.9 179.6 334.8 175.4 326.9 173.6C319.1 171.8 310.7 172.6 303.5 176.1C301.3 177.2 299.2 178.5 296.9 179.4C296.8 179.4 296.7 179.5 296.6 179.5C294.4 180.3 291.9 180.7 289.7 180.1C291.8 183.8 296.6 186.3 301.1 185.5Z" fill="#131313"/>
<path d="M332.4 178.9C332.9 182.1 332.8 185.4 332.1 188.5C336.9 187.7 341.5 185.7 345.4 182.8C340.1 178.3 333.8 174.9 327 173.3C319.8 171.7 312.1 172.2 305.3 175C309.8 177.3 314.8 178.7 319.8 178.1C318.6 179.9 317.3 181.6 316.1 183.3C321.8 183.1 327.4 181.5 332.4 178.9Z" fill="#131313"/>
<path d="M348.4 248.4C350.2 248.2 353.1 247.7 356.1 246.1C357.9 245.2 360.6 243.8 362.6 240.9C366.8 234.9 364.6 227.7 363.4 225.1C362.8 223.8 362.2 223 361.2 222.7C359 222.1 356.7 225.2 356.6 225.4C356 226.1 355.7 226.6 355.7 226.6L348.4 248.4Z" fill="#FFA07F"/>
<path fill-rule="evenodd" clip-rule="evenodd" d="M359.662 227.107C360.004 227.308 360.103 227.724 359.883 228.036L355.692 233.99L358.45 239.027C358.631 239.359 358.484 239.763 358.12 239.929C357.757 240.095 357.314 239.96 357.133 239.628L354 233.907L358.644 227.309C358.864 226.996 359.32 226.906 359.662 227.107Z" fill="#FF7D6F"/>
<mask id="mask0_219_14460" style="mask-type:luminance" maskUnits="userSpaceOnUse" x="316" y="313" width="43" height="38">
<path d="M351.115 313.771L316.978 323.52L324.777 350.829L358.914 341.081L351.115 313.771Z" fill="white"/>
</mask>
<g mask="url(#mask0_219_14460)">
<mask id="mask1_219_14460" style="mask-type:luminance" maskUnits="userSpaceOnUse" x="317" y="318" width="42" height="29">
<path d="M352.6 318.9L358.9 340.7C356.1 340.9 354.2 341.8 352.4 342.5C350.6 343.3 348.8 344.1 346 344.3C343.2 344.5 342.2 344 341.2 343.5C340.2 343 339.1 342.4 336.3 342.6C333.5 342.8 331.6 343.7 329.8 344.4C328 345.2 326.2 346 323.4 346.2L317.1 324.4C319.9 324.2 321.7 323.4 323.5 322.6C325.3 321.8 327.1 321 330 320.8C332.8 320.6 333.9 321.1 334.9 321.7C335.9 322.2 336.9 322.8 339.7 322.5C342.5 322.3 344.3 321.5 346.1 320.7C347.9 320 349.8 319.2 352.6 318.9Z" fill="white"/>
</mask>
<g mask="url(#mask1_219_14460)">
<path d="M318.4 328.9C321.3 329.7 323.3 330.1 326.1 330.5C326 330.5 325.9 330.6 325.9 330.6C324.1 331.4 322.3 332.2 319.5 332.4L318.4 328.9ZM321.2 338.5C324 338.3 325.8 337.5 327.6 336.7C327.7 336.7 327.8 336.6 327.8 336.6C326 339 324.7 340.6 322.2 342.1L321.2 338.5ZM353.8 323.2L354.9 326.9C352.1 327.1 350.2 328 348.4 328.7C348.3 328.8 348.2 328.8 348 328.9C350 326.2 351.3 324.6 353.8 323.2ZM356.7 332.9L357.8 336.6C355.1 335.8 354.3 335.7 349.9 334.9C350 334.8 350.2 334.8 350.3 334.7C352 333.9 353.8 333.1 356.7 332.9ZM336.9 322.5C337.6 322.6 338.5 322.7 339.7 322.6C342.5 322.4 344.3 321.6 346.1 320.8C346.3 320.7 346.5 320.6 346.7 320.5C344.6 323.3 344.2 323.8 343.1 324.8C341.7 326 340 326.8 338.4 327.9L336.9 322.5ZM323.5 322.7C325.3 321.9 327.1 321.1 330 320.9C331.1 320.8 332 320.8 332.7 320.9L334.2 326.2C332.3 324.9 329.8 324.3 322.8 323C323 322.9 323.3 322.8 323.5 322.7ZM341.7 339.1C342.9 340 344.2 340.9 352.9 342.4C352.8 342.5 352.6 342.5 352.5 342.6C350.7 343.4 348.9 344.2 346.1 344.4C344.9 344.5 344 344.5 343.3 344.3L341.7 339.1ZM337.5 337.5L339 342.7C338.3 342.6 337.5 342.6 336.3 342.7C333.5 342.9 331.6 343.8 329.8 344.5C329.6 344.6 329.4 344.7 329.2 344.7C330.7 342.7 331.6 341.6 332.9 340.4C333.6 339.8 334.3 339.3 334.5 339.2C335.5 338.6 336.5 338.1 337.5 337.5Z" fill="#253B78"/>
<mask id="mask2_219_14460" style="mask-type:luminance" maskUnits="userSpaceOnUse" x="317" y="318" width="42" height="29">
<path d="M317.1 324.5C319.9 324.3 321.7 323.5 323.5 322.7C325.3 321.9 327.1 321.1 330 320.9C332.8 320.7 333.9 321.2 334.9 321.8C335.9 322.3 336.9 322.9 339.7 322.6C342.5 322.4 344.3 321.6 346.1 320.8C347.9 320 349.7 319.2 352.6 319L358.9 340.8C356.1 341 354.2 341.9 352.4 342.6C350.6 343.4 348.8 344.2 346 344.4C343.2 344.6 342.2 344.1 341.2 343.6C340.2 343.1 339.1 342.5 336.3 342.7C333.5 342.9 331.6 343.8 329.8 344.5C328 345.3 326.2 346.1 323.4 346.3L317.1 324.5Z" fill="white"/>
</mask>
<g mask="url(#mask2_219_14460)">
<path d="M322.8 323C322.9 323 330.8 323.9 334.2 326.2L334.6 327.7C333.1 326.7 332.1 326.4 330.3 325.9C327 325 323.6 324.6 320.3 323.9C321.2 323.7 322 323.4 322.8 323ZM317.4 325.6C322.3 327 327.4 327.5 332.3 328.8C329.6 329 327.8 329.8 326.1 330.5C322.6 329.9 320.9 329.6 318.4 328.9L317.4 325.6ZM349.8 334.9C349.8 334.9 353.5 335.4 357.7 336.6L358.6 339.7C353.9 338.4 349 337.9 344.3 336.5C346.6 336.2 348.3 335.6 349.8 334.9ZM341.2 337.3C342.6 338.4 343.8 338.7 345.3 339.2C348.7 340.1 352.3 340.6 355.7 341.4C354.6 341.7 353.7 342.1 352.8 342.5C344.2 341.1 342.9 340.1 341.6 339.2L341.2 337.3Z" fill="white"/>
</g>
<mask id="mask3_219_14460" style="mask-type:luminance" maskUnits="userSpaceOnUse" x="317" y="318" width="42" height="29">
<path d="M317.1 324.5C319.9 324.3 321.7 323.5 323.5 322.7C325.3 321.9 327.1 321.1 330 320.9C332.8 320.7 333.9 321.2 334.9 321.8C335.9 322.3 336.9 322.9 339.7 322.6C342.5 322.4 344.3 321.6 346.1 320.8C347.9 320 349.7 319.2 352.6 319L358.9 340.8C356.1 341 354.2 341.9 352.4 342.6C350.6 343.4 348.8 344.2 346 344.4C343.2 344.6 342.2 344.1 341.2 343.6C340.2 343.1 339.1 342.5 336.3 342.7C333.5 342.9 331.6 343.8 329.8 344.5C328 345.3 326.2 346.1 323.4 346.3L317.1 324.5Z" fill="white"/>
</mask>
<g mask="url(#mask3_219_14460)">
<path d="M317.1 324.5C318.3 324.4 319.3 324.2 320.3 323.9C323.6 324.6 327 325 330.3 325.9C332.1 326.4 333.2 326.7 334.6 327.7L334.9 328.9C334.2 328.8 333.4 328.8 332.2 328.9C327.3 327.5 322.2 327.1 317.3 325.7L317.1 324.5Z" fill="#FC4F62"/>
</g>
<mask id="mask4_219_14460" style="mask-type:luminance" maskUnits="userSpaceOnUse" x="317" y="318" width="42" height="29">
<path d="M317.1 324.5C319.9 324.3 321.7 323.5 323.5 322.7C325.3 321.9 327.1 321.1 330 320.9C332.8 320.7 333.9 321.2 334.9 321.8C335.9 322.3 336.9 322.9 339.7 322.6C342.5 322.4 344.3 321.6 346.1 320.8C347.9 320 349.7 319.2 352.6 319L358.9 340.8C356.1 341 354.2 341.9 352.4 342.6C350.6 343.4 348.8 344.2 346 344.4C343.2 344.6 342.2 344.1 341.2 343.6C340.2 343.1 339.1 342.5 336.3 342.7C333.5 342.9 331.6 343.8 329.8 344.5C328 345.3 326.2 346.1 323.4 346.3L317.1 324.5Z" fill="white"/>
</mask>
<g mask="url(#mask4_219_14460)">
<path d="M341 336.5C341.7 336.6 342.6 336.7 343.8 336.6C344 336.6 344.1 336.6 344.3 336.5C349 337.8 353.9 338.3 358.6 339.7L358.9 340.8C357.7 340.9 356.6 341.1 355.7 341.4C352.2 340.7 348.7 340.2 345.3 339.2C343.8 338.8 342.6 338.4 341.2 337.3L341 336.5Z" fill="#FC4F62"/>
</g>
<mask id="mask5_219_14460" style="mask-type:luminance" maskUnits="userSpaceOnUse" x="317" y="318" width="42" height="29">
<path d="M317.1 324.5C319.9 324.3 321.7 323.5 323.5 322.7C325.3 321.9 327.1 321.1 330 320.9C332.8 320.7 333.9 321.2 334.9 321.8C335.9 322.3 336.9 322.9 339.7 322.6C342.5 322.4 344.3 321.6 346.1 320.8C347.9 320 349.7 319.2 352.6 319L358.9 340.8C356.1 341 354.2 341.9 352.4 342.6C350.6 343.4 348.8 344.2 346 344.4C343.2 344.6 342.2 344.1 341.2 343.6C340.2 343.1 339.1 342.5 336.3 342.7C333.5 342.9 331.6 343.8 329.8 344.5C328 345.3 326.2 346.1 323.4 346.3L317.1 324.5Z" fill="white"/>
</mask>
<g mask="url(#mask5_219_14460)">
<path d="M338.4 327.8C339.9 326.8 341.6 326.1 342.9 324.9C344.2 323.8 344.6 323.2 346.7 320.5C347.6 320.1 348.6 319.7 349.8 319.4C348 321 346.7 323.1 345.1 325C344 326.2 343.2 326.9 342.7 327.3C341.5 328.2 340.2 328.8 338.9 329.6L338.4 327.8ZM353 320.2L353.9 323.2C351.4 324.6 350.1 326.3 348.1 328.9C346.6 329.6 344.9 330.2 342.6 330.5C346.8 327.8 348.6 322.7 353 320.2ZM322.2 342.1C324.7 340.7 326.1 338.9 327.8 336.6C329.4 335.9 331.1 335.2 333.5 334.9C329.2 337.6 327.5 342.7 323.1 345.3L322.2 342.1ZM337 335.8L337.5 337.5C336.5 338.2 335.4 338.7 334.4 339.4C333.7 339.9 333.1 340.4 332.9 340.6C331.7 341.7 330.7 343 329.4 344.8C328.6 345.2 327.7 345.5 326.7 345.8C328.7 343.7 330.2 341.1 332.3 339.1C332.8 338.6 333.5 338.1 333.8 337.9C334.8 337.1 335.9 336.5 337 335.8Z" fill="white"/>
</g>
<mask id="mask6_219_14460" style="mask-type:luminance" maskUnits="userSpaceOnUse" x="317" y="318" width="42" height="29">
<path d="M317.1 324.5C319.9 324.3 321.7 323.5 323.5 322.7C325.3 321.9 327.1 321.1 330 320.9C332.8 320.7 333.9 321.2 334.9 321.8C335.9 322.3 336.9 322.9 339.7 322.6C342.5 322.4 344.3 321.6 346.1 320.8C347.9 320 349.7 319.2 352.6 319L358.9 340.8C356.1 341 354.2 341.9 352.4 342.6C350.6 343.4 348.8 344.2 346 344.4C343.2 344.6 342.2 344.1 341.2 343.6C340.2 343.1 339.1 342.5 336.3 342.7C333.5 342.9 331.6 343.8 329.8 344.5C328 345.3 326.2 346.1 323.4 346.3L317.1 324.5Z" fill="white"/>
</mask>
<g mask="url(#mask6_219_14460)">
<path d="M339 329.6C340.2 328.8 341.6 328.2 342.8 327.3C343.3 326.9 344.2 326.2 345.2 325C346.8 323.2 348.1 321.1 349.9 319.4C350.7 319.2 351.6 319 352.7 318.9L353.1 320.2C348.7 322.7 346.9 327.8 342.7 330.5C342.5 330.5 342.4 330.5 342.2 330.5C341 330.6 340.1 330.6 339.4 330.4L339 329.6Z" fill="#FC4F62"/>
</g>
<mask id="mask7_219_14460" style="mask-type:luminance" maskUnits="userSpaceOnUse" x="317" y="318" width="42" height="29">
<path d="M317.1 324.5C319.9 324.3 321.7 323.5 323.5 322.7C325.3 321.9 327.1 321.1 330 320.9C332.8 320.7 333.9 321.2 334.9 321.8C335.9 322.3 336.9 322.9 339.7 322.6C342.5 322.4 344.3 321.6 346.1 320.8C347.9 320 349.7 319.2 352.6 319L358.9 340.8C356.1 341 354.2 341.9 352.4 342.6C350.6 343.4 348.8 344.2 346 344.4C343.2 344.6 342.2 344.1 341.2 343.6C340.2 343.1 339.1 342.5 336.3 342.7C333.5 342.9 331.6 343.8 329.8 344.5C328 345.3 326.2 346.1 323.4 346.3L317.1 324.5Z" fill="white"/>
</mask>
<g mask="url(#mask7_219_14460)">
<path d="M323.2 345.3C327.5 342.7 329.3 337.6 333.6 334.9C333.8 334.9 333.9 334.9 334.1 334.8C335.2 334.7 336.1 334.7 336.8 334.8L337.1 335.7C332.6 338.7 332.6 338.7 332.3 338.9C330.2 340.9 328.8 343.5 326.7 345.6C325.8 345.9 324.8 346.1 323.5 346.2L323.2 345.3Z" fill="#FC4F62"/>
</g>
<mask id="mask8_219_14460" style="mask-type:luminance" maskUnits="userSpaceOnUse" x="317" y="318" width="42" height="29">
<path d="M317.1 324.5C319.9 324.3 321.7 323.5 323.5 322.7C325.3 321.9 327.1 321.1 330 320.9C332.8 320.7 333.9 321.2 334.9 321.8C335.9 322.3 336.9 322.9 339.7 322.6C342.5 322.4 344.3 321.6 346.1 320.8C347.9 320 349.7 319.2 352.6 319L358.9 340.8C356.1 341 354.2 341.9 352.4 342.6C350.6 343.4 348.8 344.2 346 344.4C343.2 344.6 342.2 344.1 341.2 343.6C340.2 343.1 339.1 342.5 336.3 342.7C333.5 342.9 331.6 343.8 329.8 344.5C328 345.3 326.2 346.1 323.4 346.3L317.1 324.5Z" fill="white"/>
</mask>
<g mask="url(#mask8_219_14460)">
<path d="M319.4 332.5C322.2 332.3 324 331.5 325.8 330.7C325.9 330.7 326 330.6 326 330.6C327.7 329.9 329.5 329.1 332.2 328.9C333.3 328.8 334.2 328.8 334.9 328.9L335.2 330C329.5 329.1 325 333.1 319.7 333.6L319.4 332.5ZM339.2 330.4C339.9 330.5 340.8 330.6 342 330.5C342.2 330.5 342.3 330.5 342.5 330.5C344.8 330.2 346.5 329.6 348 328.9C348.1 328.8 348.3 328.8 348.4 328.7C350.2 327.9 352 327.1 354.9 326.9L355.2 328C352.4 328.2 350.5 329.1 348.7 329.8C346.9 330.6 345.1 331.4 342.3 331.6C341.1 331.7 340.2 331.7 339.5 331.5L339.2 330.4ZM340.6 335.4C341.3 335.5 342.2 335.6 343.4 335.5C346.2 335.3 348 334.5 349.8 333.7C351.6 332.9 353.4 332.1 356.3 331.9L356.6 333C353.8 333.2 351.9 334.1 350.1 334.8C350 334.9 349.8 334.9 349.7 335C348.2 335.7 346.5 336.3 344.2 336.6C344 336.6 343.9 336.6 343.7 336.7C342.5 336.8 341.6 336.8 340.9 336.6L340.6 335.4ZM320.9 337.4C323.7 337.2 325.5 336.4 327.3 335.6C329.1 334.8 330.9 334 333.8 333.8C334.9 333.7 335.8 333.7 336.5 333.8L336.8 334.9C336.1 334.8 335.3 334.8 334.1 334.9C333.9 334.9 333.7 334.9 333.6 335C331.2 335.3 329.5 336 327.9 336.7C327.8 336.7 327.7 336.8 327.7 336.8C325.9 337.6 324.1 338.4 321.3 338.6L320.9 337.4Z" fill="white"/>
</g>
<mask id="mask9_219_14460" style="mask-type:luminance" maskUnits="userSpaceOnUse" x="317" y="318" width="42" height="29">
<path d="M317.1 324.5C319.9 324.3 321.7 323.5 323.5 322.7C325.3 321.9 327.1 321.1 330 320.9C332.8 320.7 333.9 321.2 334.9 321.8C335.9 322.3 336.9 322.9 339.7 322.6C342.5 322.4 344.3 321.6 346.1 320.8C347.9 320 349.7 319.2 352.6 319L358.9 340.8C356.1 341 354.2 341.9 352.4 342.6C350.6 343.4 348.8 344.2 346 344.4C343.2 344.6 342.2 344.1 341.2 343.6C340.2 343.1 339.1 342.5 336.3 342.7C333.5 342.9 331.6 343.8 329.8 344.5C328 345.3 326.2 346.1 323.4 346.3L317.1 324.5Z" fill="white"/>
</mask>
<g mask="url(#mask9_219_14460)">
<path d="M336 322.2C336.3 322.3 336.6 322.4 336.9 322.5L338.4 327.8L338.9 329.6L339.1 330.4L339.4 331.5C339 331.4 338.7 331.3 338.5 331.2C337.7 328.2 336.8 325.2 336 322.2ZM335 328.8L334.7 327.6L334.3 326.1L332.8 320.8C333.2 320.9 333.5 320.9 333.8 321L336.4 330C336.1 329.9 335.8 329.8 335.4 329.8L335 328.8ZM339.7 335.1C340 335.2 340.3 335.3 340.6 335.4L340.9 336.5L341.1 337.3L341.6 339.1L343.1 344.3C342.7 344.2 342.4 344.1 342.2 344L339.7 335.1ZM337.5 337.5L337 335.8L336.7 334.9L336.4 333.8C336.8 333.9 337.1 333.9 337.4 334L340 342.9C339.7 342.8 339.4 342.7 339 342.7L337.5 337.5Z" fill="white"/>
</g>
<mask id="mask10_219_14460" style="mask-type:luminance" maskUnits="userSpaceOnUse" x="317" y="318" width="42" height="29">
<path d="M317.1 324.5C319.9 324.3 321.7 323.5 323.5 322.7C325.3 321.9 327.1 321.1 330 320.9C332.8 320.7 333.9 321.2 334.9 321.8C335.9 322.3 336.9 322.9 339.7 322.6C342.5 322.4 344.3 321.6 346.1 320.8C347.9 320 349.7 319.2 352.6 319L358.9 340.8C356.1 341 354.2 341.9 352.4 342.6C350.6 343.4 348.8 344.2 346 344.4C343.2 344.6 342.2 344.1 341.2 343.6C340.2 343.1 339.1 342.5 336.3 342.7C333.5 342.9 331.6 343.8 329.8 344.5C328 345.3 326.2 346.1 323.4 346.3L317.1 324.5Z" fill="white"/>
</mask>
<g mask="url(#mask10_219_14460)">
<path d="M333.7 321.1C334.2 321.3 334.6 321.5 334.9 321.7C335.2 321.9 335.6 322.1 336 322.2C336.9 325.2 337.7 328.2 338.6 331.2C338.2 331 337.9 330.9 337.5 330.7C337.1 330.5 336.7 330.3 336.3 330.1L333.7 321.1ZM337.4 334.1C337.9 334.3 338.3 334.5 338.6 334.7C338.9 334.9 339.3 335.1 339.7 335.2L342.3 344.1C341.9 343.9 341.6 343.8 341.2 343.6C340.8 343.4 340.4 343.2 340 343L337.4 334.1Z" fill="#FC4F62"/>
</g>
<path d="M319.7 333.5C325 333 329.6 329 335.2 329.9C335.6 330 335.9 330 336.2 330.1C336.7 330.3 337.1 330.5 337.4 330.7C337.7 330.9 338.1 331.1 338.5 331.2C338.8 331.3 339.1 331.4 339.4 331.5C340.1 331.6 341 331.7 342.2 331.6C345 331.4 346.8 330.6 348.6 329.8C350.4 329 352.2 328.2 355.1 328L356.2 331.9C353.4 332.1 351.5 333 349.7 333.7C347.9 334.5 346.1 335.3 343.3 335.5C342.1 335.6 341.2 335.6 340.5 335.4C340.1 335.3 339.8 335.2 339.6 335.1C339.2 334.9 338.9 334.8 338.5 334.6C338.1 334.4 337.7 334.2 337.3 334C337 333.9 336.7 333.8 336.3 333.8C335.6 333.7 334.8 333.7 333.6 333.8C330.8 334 328.9 334.9 327.1 335.6C325.3 336.4 323.5 337.2 320.7 337.4L319.7 333.5Z" fill="#FC4F62"/>
</g>
<path d="M328.4 364.7C328 364.8 327.5 364.6 327.4 364.1L315.6 322.7L317.2 322.3L329 363.7C329.1 364.1 328.9 364.6 328.4 364.7Z" fill="#557E8A"/>
<path d="M317.7 321.3C317.5 320.4 316.5 319.9 315.7 320.2C314.8 320.4 314.3 321.4 314.6 322.2C314.8 323.1 315.8 323.6 316.6 323.3C317.5 323.1 318 322.2 317.7 321.3Z" fill="#557E8A"/>
</g>
<path d="M432.5 425.3C425.5 430.3 418.2 434.9 410.6 439C395.2 447.3 378.7 453.8 361.2 458C360.2 458.3 359.1 458.5 358.1 458.7C358 458.5 357.8 458.2 357.6 457.9C356.6 455.9 355.3 453 353.8 449.3C353.4 448.3 353 447.3 352.5 446.2C352.2 445.5 352 444.8 351.7 444.1C351.3 442.9 350.8 441.7 350.3 440.5C350 439.8 349.7 439 349.4 438.2C349.4 438.1 349.3 438 349.3 437.8C348.9 436.7 348.5 435.6 348.1 434.5C347.5 432.9 346.9 431.2 346.2 429.5C345.4 427.3 344.6 425 343.7 422.6C341.8 417.3 339.9 411.8 338 406.3C329.5 381.8 321.8 358.2 322 357.5C322 357.5 353.2 346 374.7 338.7C379.6 337 383.9 335.6 387.4 334.6C391.5 333.3 394.2 332.6 394.6 332.9C394.9 333.1 396.2 335.7 398.1 340C399.2 342.5 400.5 345.6 402 349C405.8 358 410.6 369.8 415.5 381.9C415.9 382.8 416.3 383.8 416.6 384.7C416.6 384.8 416.7 384.9 416.7 384.9C422.5 399.4 428.1 413.9 431.8 423.7C432.1 424.2 432.3 424.8 432.5 425.3Z" fill="#F8F8F8"/>
<path d="M398.2 339.9L389.8 343.6L379.8 348L338.8 366L347.3 400.9L347.7 402.5V402.6L348.2 404.8L351.3 417.6L353.5 426.5L354.2 429.4L355.5 434.7L355.7 435.6L356.7 439.6L357.2 441.7L357.4 442.3L358.7 447.5L361 456.9L361.3 458C360.3 458.3 359.2 458.5 358.2 458.7C358.1 458.5 357.9 458.2 357.7 457.9C356.7 455.9 355.4 453 353.9 449.3C353.5 448.3 353.1 447.3 352.6 446.2C352.3 445.5 352.1 444.8 351.8 444.1C351.4 442.9 350.9 441.7 350.4 440.5C350.1 439.8 349.8 439 349.5 438.2C349.5 438.1 349.4 438 349.4 437.8C349 436.7 348.6 435.6 348.2 434.5C347.6 432.9 347 431.2 346.3 429.5C345.5 427.3 344.7 425 343.8 422.6C341.9 417.3 340 411.8 338.1 406.3C329.6 381.8 321.9 358.2 322.1 357.5C322.1 357.5 353.3 346 374.8 338.7C379.7 337 384 335.6 387.5 334.6C391.6 333.3 394.3 332.6 394.7 332.9C395 333 396.3 335.6 398.2 339.9Z" fill="white"/>
<path d="M371.2 386.9C366.9 389 364.4 394 364.7 398.7C365.1 403.4 368.2 407.8 372.5 409.9C375.2 411.2 378.5 411.7 381.2 410.4C383 409.5 384.4 407.9 385.5 406.1C388.1 401.8 389.8 393.7 386.2 389.4C383.2 385.7 375.2 384.9 371.2 386.9Z" fill="#E6F2FF"/>
<path d="M402.5 421.4L387.3 428.7L384.9 433.1C382.8 436 352.3 451.4 350.8 449.8C350.4 449.4 350 448.8 349.6 448.3C349 447.5 348.5 446.7 348.2 446.1C348 445.7 347.8 445.4 347.8 445.4C347.8 445.4 346.7 444.8 345.5 443.9C344.8 443.4 344 442.8 343.5 442.2C342.9 441.6 342.5 440.9 342.6 440.3C342.7 439.7 344.2 438.2 346.3 436.2C351.4 431.5 360.1 424.4 359.3 424.2C358.2 423.9 335.9 434.1 335.9 434.1C335.9 434.1 335.2 433.8 334.5 433.1C334.1 432.7 333.6 432.1 333.3 431.3C332.5 429.2 362.5 410.1 362.5 410.1C356.9 409.3 351.6 406.5 347.8 402.3L347.7 402.2C347.4 401.8 347.1 401.3 347.2 400.9C347.3 400.7 347.5 400.5 347.6 400.3C349.1 399 351.3 398.8 353.3 399.1C355.3 399.4 357.2 400.3 359.1 400.8C362.8 401.9 366.7 401.5 370.5 401.1C377 400.5 384.4 409.7 384.4 409.7C384.4 409.7 392.8 406.3 393.4 406.7C394.6 407.5 395.7 408.4 396.7 409.4C398.4 411.1 399.6 413.1 400.5 414.9C400.6 415.1 400.7 415.4 400.8 415.6C402.1 418.9 402.5 421.4 402.5 421.4Z" fill="#FFA07F"/>
<path d="M345.5 444C346 443.7 346.6 443.3 347.1 442.9C350.3 440.7 352.9 438.4 354.7 436.6C356.4 434.9 357.4 433.7 357.5 433.6C357.3 433.7 356 434.4 353.9 435.6C351.7 436.9 348.8 438.7 345.6 440.8C344.8 441.3 344.1 441.8 343.4 442.3C344 442.9 344.8 443.5 345.5 444Z" fill="#FF7D6F"/>
<path d="M349.6 448.3C354.7 444.9 358.2 441.3 358.5 441.1C358.2 441.2 353.5 442.9 348.2 446.1C348.5 446.6 349 447.5 349.6 448.3Z" fill="#FF7D6F"/>
<path d="M398.4 434.3C398.4 434.3 486.3 410.8 489.6 387.9C493 365 418.8 285.6 404.3 275.5C389.8 265.4 376.5 274.5 376.5 274.5L401.5 329.2C413 344.2 424.5 359.3 436 374.3C419.4 382.4 402.9 390.5 386.3 398.6L396.3 428.1L398.4 434.3Z" fill="#007AFF"/>
<path d="M386.3 398.5L438.7 374.6C438.7 374.6 399.3 325.8 395.1 316.2C395.1 316.2 398.3 329.2 411.2 346.9C424.1 364.6 431.4 372.9 431.4 372.9L386.3 398.5Z" fill="#0371D6"/>
<path d="M286.35 155.55C286.35 164.828 278.828 172.35 269.55 172.35C260.272 172.35 252.75 164.828 252.75 155.55C252.75 146.272 260.272 138.75 269.55 138.75C278.828 138.75 286.35 146.272 286.35 155.55Z" fill="#F8F8F8" stroke="#007AFF" stroke-width="1.5"/>
<path d="M276.245 151C276.245 147.165 272.995 144.045 269.095 144.305C265.65 144.5 262.92 147.36 262.79 150.805C262.725 152.3 263.18 153.73 264.025 154.9C265.13 156.46 265.715 158.41 265.715 160.36V160.425H273.385V160.36C273.385 158.345 274.035 156.395 275.14 154.77C275.855 153.665 276.245 152.365 276.245 151Z" fill="#FFBC00"/>
<path d="M269.16 154.12C268.965 154.055 268.64 153.86 268.51 153.795C268.9 153.405 269.095 152.755 268.835 152.235C268.51 151.325 267.145 151.065 266.82 152.17C266.69 152.755 266.885 153.34 267.34 153.795C267.08 153.86 266.82 153.795 266.56 153.665C265.91 153.34 265.65 152.69 265.52 152.04C265.455 151.715 264.935 151.65 264.935 152.04C265 153.275 265.78 154.51 267.145 154.51C267.405 154.51 267.6 154.445 267.86 154.315C268.055 154.445 268.315 154.575 268.575 154.64V161.01C268.575 161.4 269.16 161.4 269.16 161.01C269.16 161.01 269.355 154.25 269.16 154.12ZM268.25 152.885C268.25 153.145 268.12 153.34 267.99 153.47C267.86 153.34 267.795 153.275 267.665 153.145C267.535 152.95 267.34 152.56 267.47 152.365C267.795 151.585 268.315 152.495 268.25 152.885Z" fill="white"/>
<path d="M269.875 161.01C269.875 161.4 270.46 161.4 270.46 161.01V154.575C270.72 154.51 270.915 154.38 271.175 154.25C271.37 154.38 271.63 154.38 271.89 154.445C273.255 154.445 274.035 153.275 274.1 151.975C274.1 151.585 273.58 151.65 273.515 151.975C273.45 152.625 273.125 153.34 272.475 153.6C272.215 153.73 271.955 153.73 271.695 153.73C272.085 153.275 272.345 152.69 272.215 152.105C271.955 151 270.525 151.325 270.2 152.17C270.005 152.755 270.135 153.34 270.525 153.73C270.33 153.86 270.005 153.99 269.875 154.055C269.745 154.25 269.875 161.01 269.875 161.01ZM271.565 152.3C271.695 152.495 271.5 152.885 271.37 153.08C271.305 153.21 271.175 153.34 271.045 153.405C270.915 153.275 270.785 153.08 270.785 152.82C270.72 152.495 271.24 151.585 271.565 152.3Z" fill="white"/>
<path d="M274.88 160.425H264.22V163.025H274.88V160.425Z" fill="#131313"/>
<path d="M271.76 166.86H267.34C266.495 166.86 265.845 166.21 265.845 165.365V161.725H273.255V165.365C273.255 166.21 272.54 166.86 271.76 166.86Z" fill="#131313"/>
<path d="M276.245 151C276.245 147.165 272.995 144.045 269.095 144.305C265.65 144.5 262.92 147.36 262.79 150.805C262.79 151.195 262.79 151.585 262.855 151.975C263.31 148.855 265.91 146.385 269.095 146.19C269.485 146.19 269.81 146.19 270.135 146.19C270.07 146.385 270.005 146.58 270.005 146.775C270.005 147.23 270.265 147.685 270.59 148.075C271.045 148.595 271.565 148.985 272.15 149.245C272.54 149.44 272.995 149.505 273.385 149.44C273.905 149.375 274.425 148.92 274.62 148.465C275.465 149.44 275.985 150.61 276.18 151.91C276.245 151.65 276.245 151.325 276.245 151Z" fill="#FFD75D"/>
<path d="M474.589 108.425C474.637 97.2408 465.609 88.1352 454.425 88.0871C443.241 88.039 434.135 97.0666 434.087 108.251C434.039 119.435 443.067 128.541 454.251 128.589C465.435 128.637 474.541 119.609 474.589 108.425Z" fill="#131313"/>
<path d="M475.589 105.425C475.637 94.2408 466.609 85.1352 455.425 85.0871C444.241 85.039 435.135 94.0666 435.087 105.251C435.039 116.435 444.067 125.541 455.251 125.589C466.435 125.637 475.541 116.609 475.589 105.425Z" fill="#E6F2FF"/>
<path d="M469.408 105.319C469.408 113.077 463.121 119.364 455.363 119.364C447.606 119.364 441.318 113.077 441.318 105.319C441.318 97.5621 447.606 91.2745 455.363 91.2745C463.121 91.2745 469.408 97.5621 469.408 105.319Z" fill="#D53F36"/>
<path d="M466.958 105.319C466.958 111.689 461.732 116.915 455.363 116.915C448.994 116.915 443.768 111.689 443.768 105.319C443.768 98.9503 448.994 93.7242 455.363 93.7242C461.732 93.7242 466.958 98.8686 466.958 105.319Z" fill="white"/>
<path d="M464.345 105.32C464.345 110.301 460.344 114.302 455.363 114.302C450.382 114.302 446.381 110.301 446.381 105.32C446.381 100.338 450.382 96.3373 455.363 96.3373C460.344 96.3373 464.345 100.338 464.345 105.32Z" fill="#D53F36"/>
<path d="M461.732 105.32C461.732 108.831 458.874 111.689 455.363 111.689C451.852 111.689 448.994 108.831 448.994 105.32C448.994 101.808 451.852 98.9503 455.363 98.9503C458.874 98.9503 461.732 101.808 461.732 105.32Z" fill="white"/>
<path d="M459.201 105.32C459.201 107.443 457.486 109.157 455.363 109.157C453.24 109.157 451.525 107.443 451.525 105.32C451.525 103.196 453.24 101.482 455.363 101.482C457.486 101.482 459.201 103.196 459.201 105.32Z" fill="#D53F36"/>
<path d="M460.426 110.382V115.445L464.754 119.773V114.71L460.426 110.382Z" fill="#FFBC00"/>
<path d="M460.426 110.382H465.489L469.816 114.71H464.754L460.426 110.382Z" fill="#FFBC00"/>
<path d="M465.897 116.996C465.57 116.996 465.325 116.915 465.08 116.67L454.057 105.728C453.567 105.238 453.567 104.585 454.057 104.095C454.465 103.605 455.2 103.605 455.69 104.095L466.713 115.118C467.203 115.527 467.203 116.261 466.713 116.751C466.468 116.915 466.223 116.996 465.897 116.996Z" fill="#131313"/>
<path d="M156.85 222.8C156.85 233.873 147.873 242.85 136.8 242.85C125.727 242.85 116.75 233.873 116.75 222.8C116.75 211.727 125.727 202.75 136.8 202.75C147.873 202.75 156.85 211.727 156.85 222.8Z" fill="#F8F8F8" stroke="#007AFF" stroke-width="1.5"/>
<path d="M146.8 209.5H126.7V236H141.2L146.8 230.6V209.5Z" fill="#B8DAFF"/>
<path d="M141.2 236L146.8 230.6H141.2V236Z" fill="#007AFF"/>
<path d="M143.6 213.3H129.9V214.9H143.6V213.3Z" fill="#007AFF"/>
<path d="M143.6 216.8H129.9V218.4H143.6V216.8Z" fill="#007AFF"/>
<path d="M143.6 220.2H129.9V221.8H143.6V220.2Z" fill="#007AFF"/>
<path d="M143.6 223.6H129.9V225.2H143.6V223.6Z" fill="#007AFF"/>
<path d="M143.6 227H129.9V228.6H143.6V227Z" fill="#007AFF"/>
<path d="M233.4 423.601C233.4 436.701 222.8 447.201 209.8 447.201C196.7 447.201 186.2 436.601 186.2 423.601C186.2 410.501 196.8 400.001 209.8 400.001C222.9 399.901 233.4 410.501 233.4 423.601Z" fill="#131313"/>
<path d="M231.2 425.101C231.2 438.201 220.6 448.701 207.6 448.701C194.5 448.701 184 438.101 184 425.101C184 412.001 194.6 401.501 207.6 401.501C220.6 401.501 231.2 412.001 231.2 425.101Z" fill="#E6F2FF"/>
<path d="M200.8 426.301C198.2 425.401 196.4 423.801 195.5 421.701C193.8 418.001 195.3 413.901 195.3 413.701L195.7 412.601L201.6 416.001L200.7 417.701L196.7 415.401C196.4 416.701 196.2 418.901 197.1 420.801C197.9 422.501 199.3 423.701 201.4 424.401L200.8 426.301Z" fill="#EC8B1E"/>
<path d="M213.7 426.101C216.3 425.401 218.3 424.001 219.4 421.901C221.4 418.301 220.3 414.101 220.2 413.901L219.9 412.801L213.7 415.701L214.5 417.401L218.6 415.401C218.8 416.701 218.8 418.901 217.7 420.801C216.8 422.401 215.3 423.501 213.1 424.101L213.7 426.101Z" fill="#FFBC00"/>
<path d="M209.5 436.401C208.2 437.101 207 437.101 206.2 437.001C205.5 436.901 205.1 436.601 205.1 436.601C206.4 435.101 206.5 426.001 206.5 426.001L209.9 425.701C209.7 426.301 209.7 427.001 209.6 427.701C209.4 431.101 209.5 436.401 209.5 436.401Z" fill="#FFBC00"/>
<path d="M209.5 427.701C207.9 429.901 206 434.201 206.1 437.001C205.4 436.901 205 436.601 205 436.601C206.3 435.101 206.4 426.001 206.4 426.001L209.8 425.701C209.6 426.301 209.6 427.001 209.5 427.701Z" fill="#EC8B1E"/>
<path d="M214.6 439.301C207.1 443.601 200.2 438.701 200.2 438.701C200.4 438.501 200.6 438.301 200.9 438.201C207.2 433.201 212.1 436.801 213.9 438.501C214.4 439.001 214.6 439.301 214.6 439.301Z" fill="#FFBC00"/>
<path d="M214.6 439.301C207.1 443.601 200.2 438.701 200.2 438.701C200.4 438.501 200.6 438.301 200.9 438.201C202.9 439.301 205.1 440.001 207.6 440.101C209.8 440.101 212 439.601 213.9 438.601C214.4 439.001 214.6 439.301 214.6 439.301Z" fill="#EC8B1E"/>
<path d="M210 439.101C210.6 439.001 211.1 438.701 211.3 438.301C211.5 437.901 211.2 437.401 210.9 437.101C210.2 436.601 209 436.501 208.1 436.401C207 436.301 205.8 436.301 204.8 436.501C203.1 436.801 203.1 438.001 204.7 438.701C206.3 439.401 208.2 439.501 210 439.101Z" fill="#FFCC5E"/>
<path d="M216.7 425.501C216.5 426.401 213 429.201 209.1 429.901C208.6 430.001 208.2 430.001 207.7 430.001C207.6 430.001 207.6 430.001 207.5 430.001C203 430.001 199.6 427.401 199.2 425.601C198.8 423.801 201.2 411.601 201.2 411.601C205.7 410.901 215.3 411.201 215.3 411.201C215.3 411.201 215.4 411.601 215.4 412.301C215.5 413.301 215.7 415.001 215.9 416.801C216.4 420.501 216.8 424.901 216.7 425.501Z" fill="#FFBC00"/>
<path d="M202 413.401C202 413.401 197.3 425.301 207.7 429.901C207.6 429.901 207.6 429.901 207.5 429.901C203 429.901 199.6 427.301 199.2 425.501C198.8 423.701 201.2 411.501 201.2 411.501C205.7 410.801 215.3 411.101 215.3 411.101C215.3 411.101 215.4 411.501 215.4 412.201C213.3 414.501 208.7 417.501 202 413.401Z" fill="#EC8B1E"/>
<path d="M201.2 411.601C201.2 411.601 207.4 406.201 215.3 411.201C215.3 411.201 208.2 415.601 201.2 411.601Z" fill="#FFBC00"/>
<path d="M213.6 411.601C213.6 411.601 212.6 412.101 211.1 412.401C209.5 412.701 207.4 412.901 205.2 412.501C204.5 412.301 203.7 412.101 203 411.801C202.9 411.701 207.6 408.601 213.6 411.601Z" fill="#EC8B1E"/>
<path d="M211.1 412.401C209.5 412.701 207.4 412.901 205.2 412.501C206.6 412.001 208.7 411.701 211.1 412.401Z" fill="#D1730C"/>
<path d="M216.7 425.501C216.5 426.401 213 429.201 209.1 429.901C207.9 428.801 207 427.501 206.2 426.001C205.7 425.101 205.3 424.201 205.2 423.201C205 421.401 205.8 419.601 207.1 418.301C208.4 417.101 210.2 416.501 211.9 416.301C213.3 416.201 214.6 416.301 215.9 416.801C216.4 420.501 216.8 424.901 216.7 425.501Z" fill="#FFCC5E"/>
<path d="M154.4 307.3C155.3 309.3 155.8 311.3 155.8 313.4C155.9 319.4 152.6 325.1 146.8 327.8C141 330.5 134.5 329.2 130 325.2C128.5 323.8 127.2 322.1 126.3 320.2C125.9 319.3 125.6 318.3 125.3 317.4C123.6 310.4 127 302.9 133.9 299.7C140.7 296.6 148.7 298.9 152.9 304.7C153.5 305.5 154 306.3 154.4 307.3Z" fill="#131313"/>
<path d="M152.8 305.5C153.7 307.5 154.2 309.5 154.2 311.6C154.3 317.6 151 323.3 145.2 326C139.4 328.6 132.9 327.4 128.4 323.4C126.9 322 125.6 320.3 124.7 318.4C124.3 317.5 124 316.5 123.7 315.6C122 308.6 125.4 301.1 132.3 297.9C139.1 294.8 147.1 297.1 151.3 302.9C151.8 303.8 152.3 304.6 152.8 305.5Z" fill="#D53F36"/>
<path d="M151.3 303L123.8 315.6C122.1 308.6 125.5 301.1 132.4 297.9C139.1 294.8 147.1 297.1 151.3 303Z" fill="#131313"/>
<path d="M154.2 311.6C154.3 317.6 151 323.3 145.2 326C139.4 328.6 132.9 327.4 128.4 323.4L154.2 311.6Z" fill="#FDDA5F"/>
<path d="M370.9 127.721C370.1 129.621 369 131.221 367.6 132.521C363.5 136.421 357.4 137.721 351.9 135.421C346.4 133.121 343.1 127.821 343 122.121C343 120.221 343.4 118.221 344.1 116.321C344.5 115.421 344.9 114.621 345.4 113.821C349.2 108.121 356.6 105.821 363.1 108.521C369.6 111.321 373.1 118.221 371.7 124.921C371.5 126.021 371.2 126.821 370.9 127.721Z" fill="#131313"/>
<path d="M370.4 126.121C367.5 131.921 361.2 134.921 355.2 133.921C354.6 133.821 354.1 133.721 353.5 133.521C352.6 133.321 351.7 132.921 350.9 132.521C349.1 131.621 347.5 130.321 346.3 128.921C342.7 124.621 341.8 118.421 344.5 113.021C347.2 107.721 352.7 104.721 358.3 105.021C360.2 105.121 362.2 105.621 364 106.521C364.9 106.921 365.6 107.421 366.4 108.021C367.1 108.621 367.8 109.221 368.4 109.821C372.2 114.221 373.2 120.621 370.4 126.121Z" fill="white"/>
<path d="M370.4 126.121C367.5 131.921 361.2 134.921 355.2 133.921L367.6 109.321C367.9 109.521 368.1 109.721 368.3 109.921C372.2 114.221 373.2 120.621 370.4 126.121Z" fill="#D53F36"/>
<path d="M346.3 128.921C342.7 124.621 341.8 118.421 344.5 113.021C347.2 107.721 352.7 104.721 358.3 105.021L346.3 128.921Z" fill="#007AFF"/>
<path d="M508.735 290.94C508.435 292.94 507.735 294.84 506.635 296.44C503.635 301.24 497.934 304.04 492.034 303.04C486.134 302.14 481.535 297.74 480.135 292.24C479.635 290.34 479.534 288.34 479.834 286.34C479.934 285.44 480.234 284.44 480.534 283.64C482.834 277.14 489.534 273.04 496.534 274.14C503.534 275.24 508.634 281.24 508.834 288.04C508.934 289.14 508.935 290.04 508.735 290.94Z" fill="#131313"/>
<path d="M500.334 299.04C499.634 299.44 498.935 299.84 498.135 300.14C497.335 300.44 496.535 300.74 495.735 300.84C495.235 300.94 494.834 301.04 494.334 301.04C492.634 301.24 490.934 301.14 489.334 300.74C485.934 299.94 482.934 297.94 480.834 295.14C480.334 294.44 479.934 293.74 479.534 293.04C479.334 292.74 479.234 292.34 479.034 292.04C478.834 291.64 478.735 291.24 478.635 290.74C478.435 290.04 478.235 289.34 478.135 288.64C477.635 284.84 478.535 281.14 480.735 278.14C481.735 276.74 482.934 275.54 484.334 274.54C484.534 274.34 484.734 274.24 485.034 274.14C485.734 273.74 486.435 273.34 487.235 273.04C488.035 272.74 488.835 272.44 489.635 272.34C495.535 271.04 501.634 273.54 504.934 278.54C505.234 278.94 505.435 279.44 505.735 279.94C505.935 280.34 506.134 280.74 506.334 281.14C506.534 281.64 506.734 282.24 506.934 282.74C507.134 283.34 507.234 283.94 507.334 284.54C507.934 290.24 505.334 295.94 500.334 299.04Z" fill="#007AFF"/>
<path d="M494.434 301.04C492.734 301.24 491.034 301.14 489.434 300.74L485.634 290.74L484.034 286.44L480.834 278.04C481.834 276.64 483.034 275.44 484.434 274.44L488.334 284.74L489.934 289.04L494.434 301.04Z" fill="#FDDA5F"/>
<path d="M506.834 282.74L489.934 289.14L485.634 290.74L479.634 293.04C479.434 292.74 479.334 292.34 479.134 292.04C478.934 291.64 478.834 291.24 478.734 290.74C478.534 290.04 478.334 289.34 478.234 288.64L483.934 286.44L488.234 284.84L504.934 278.54C505.234 278.94 505.434 279.44 505.734 279.94C505.934 280.34 506.134 280.74 506.334 281.14C506.434 281.64 506.634 282.14 506.834 282.74Z" fill="#FDDA5F"/>
<path d="M382 229.073C382 229.073 389.7 228.173 402.1 218.073C400.5 213.673 399.8 208.973 400.2 204.173C401.7 182.873 422.7 167.073 447.2 168.773C471.6 170.473 490.3 189.073 488.8 210.373C487.3 231.673 466.3 247.473 441.8 245.773C430.1 244.973 419.7 240.273 412.2 233.273C404.8 234.673 394.3 234.773 382 229.073Z" fill="#131313"/>
<path d="M382.4 227.373C382.4 227.373 389.9 225.373 400.6 213.573C398.4 209.473 397 204.973 396.6 200.173C394.9 178.973 413.3 160.073 437.7 158.173C462.1 156.173 483.3 171.773 485 193.073C486.7 214.273 468.3 233.173 443.9 235.073C432.2 235.973 421.2 232.873 412.8 227.073C405.8 229.573 395.4 231.273 382.4 227.373Z" fill="#007AFF"/>
<path d="M472.85 182.319C473.071 183.155 473.347 184.389 473.68 186.022C473.996 187.594 474.262 188.789 474.479 189.609C474.536 189.826 474.67 190.27 474.881 190.943C474.935 191.21 474.895 191.435 474.762 191.62C474.625 191.788 474.44 191.903 474.208 191.965C473.96 192.03 473.72 192.028 473.486 191.957C473.252 191.886 473.085 191.757 472.986 191.568C472.465 190.348 471.971 188.857 471.505 187.094L470.572 183.468C470.42 182.895 470.367 182.413 470.413 182.02C470.469 181.608 470.745 181.337 471.24 181.206C471.658 181.096 472.004 181.153 472.278 181.378C472.549 181.588 472.74 181.902 472.85 182.319ZM474.411 193.202C475.463 192.924 476.093 193.179 476.301 193.968C476.408 194.37 476.374 194.776 476.201 195.186C476.04 195.577 475.765 195.823 475.379 195.925C474.915 196.048 474.499 196.009 474.131 195.808C473.76 195.592 473.523 195.29 473.421 194.903C473.331 194.563 473.373 194.221 473.547 193.877C473.736 193.529 474.024 193.304 474.411 193.202Z" fill="white"/>
<path d="M470.289 189.426C470.47 189.61 470.655 189.9 470.842 190.297C471.026 190.679 471.161 191.032 471.247 191.357C471.357 191.775 471.433 192.251 471.475 192.786C471.518 193.321 471.537 193.738 471.533 194.037C470.981 196.268 469.661 197.66 467.572 198.212C466.799 198.416 465.943 198.37 465.003 198.072C464.064 197.774 463.352 197.333 462.867 196.75C462.101 195.545 461.67 194.758 461.572 194.386C461.408 193.768 461.366 193.075 461.445 192.31C461.539 191.54 461.728 190.845 462.01 190.224C462.195 189.795 462.595 189.366 463.21 188.939C463.821 188.496 464.405 188.201 464.962 188.054C466.045 187.767 467.013 187.735 467.865 187.956C468.73 188.158 469.538 188.648 470.289 189.426ZM469.258 193.695C469.295 193.52 469.196 192.992 468.963 192.11C468.845 191.661 468.643 191.243 468.358 190.855C468.089 190.462 467.759 190.153 467.368 189.925C467.329 189.902 467.231 189.878 467.076 189.853C466.916 189.813 466.704 189.794 466.441 189.798C466.188 189.782 465.907 189.815 465.598 189.896C464.732 190.125 464.189 190.641 463.971 191.443C463.753 192.246 463.76 193.088 463.993 193.97C464.03 194.109 464.152 194.383 464.36 194.791C464.567 195.2 464.71 195.46 464.789 195.571C464.97 195.755 465.285 195.945 465.734 196.141C466.194 196.317 466.649 196.346 467.097 196.227C467.794 196.043 468.3 195.736 468.616 195.305C468.944 194.854 469.158 194.317 469.258 193.695Z" fill="white"/>
<path d="M454.26 201.259C454.091 201.055 453.965 200.799 453.883 200.49C453.806 200.196 453.906 199.698 454.183 198.995C453.375 198.944 452.671 198.659 452.07 198.139C451.485 197.615 451.08 196.928 450.855 196.077C450.708 195.52 450.706 194.983 450.851 194.464C450.991 193.931 451.238 193.394 451.592 192.854C452.193 191.934 453.189 191.29 454.581 190.922C455.138 190.774 455.859 190.716 456.745 190.747C457.498 189.654 458.246 189.009 458.989 188.813C459.453 188.691 459.81 188.695 460.06 188.828C460.322 188.941 460.51 189.214 460.624 189.647C460.669 189.817 460.643 189.998 460.544 190.189C460.457 190.361 460.313 190.474 460.112 190.527L459.271 190.725C458.745 190.864 458.392 191.064 458.214 191.327C458.601 191.605 458.962 191.998 459.295 192.506C459.643 193.009 459.911 193.617 460.099 194.329C460.349 195.272 459.932 196.326 458.849 197.489C458.159 198.135 457.283 198.606 456.22 198.904C456.129 199.06 456.051 199.205 455.987 199.338C455.934 199.451 455.916 199.539 455.932 199.601C455.977 199.771 456.159 199.863 456.477 199.878C456.796 199.894 457.263 199.845 457.878 199.732C458.335 199.644 458.864 199.612 459.466 199.635C460.079 199.638 460.575 199.697 460.953 199.813C461.433 200 461.795 200.244 462.04 200.543C462.3 200.838 462.497 201.241 462.632 201.752C462.808 202.417 462.646 203.056 462.146 203.668C461.665 204.291 461.043 204.82 460.281 205.253C459.518 205.686 458.828 205.985 458.209 206.148C457.466 206.344 456.808 206.419 456.233 206.373C455.677 206.337 455.127 206.226 454.581 206.04C454.195 205.894 453.862 205.667 453.582 205.36C453.302 205.054 453.111 204.707 453.009 204.32C452.927 204.011 453.049 203.532 453.374 202.883C453.715 202.231 454.083 201.744 454.478 201.425C454.419 201.391 454.347 201.335 454.26 201.259ZM455.647 197.02C456.374 196.828 456.934 196.473 457.327 195.955C457.716 195.422 457.818 194.808 457.634 194.111C457.487 193.555 457.208 193.157 456.797 192.918C456.382 192.663 455.881 192.614 455.293 192.769C454.071 193.092 453.346 193.573 453.118 194.213C453.058 194.361 453.028 194.625 453.03 195.006C453.027 195.371 453.05 195.646 453.099 195.831C453.168 196.094 453.333 196.341 453.592 196.57C453.863 196.78 454.185 196.935 454.559 197.034C454.929 197.119 455.291 197.114 455.647 197.02ZM455.233 203.906C455.303 204.169 455.602 204.33 456.13 204.389C456.678 204.459 457.231 204.421 457.788 204.273C458.407 204.11 459.01 203.826 459.598 203.423C460.206 203.03 460.461 202.648 460.363 202.277C460.22 201.736 459.649 201.514 458.649 201.613C457.548 201.706 456.675 201.754 456.031 201.759C456.026 201.992 455.891 202.325 455.625 202.76C455.455 203.053 455.331 203.276 455.256 203.428C455.2 203.592 455.192 203.751 455.233 203.906Z" fill="white"/>
<path d="M445.024 198.71C445.168 198.755 445.447 198.839 445.86 198.961C446.285 199.064 446.595 199.238 446.793 199.484C446.99 199.73 447.154 200.1 447.285 200.595C447.432 201.152 447.401 201.69 447.19 202.209C446.976 202.713 446.644 203.148 446.195 203.515C445.88 203.764 445.518 203.959 445.108 204.1C444.714 204.237 444.231 204.381 443.659 204.533C443.349 204.614 442.935 204.674 442.415 204.712C441.911 204.746 441.556 204.749 441.35 204.721C440.782 204.573 440.278 204.359 439.84 204.078C439.401 203.796 439.131 203.462 439.029 203.075C438.947 202.766 438.982 202.492 439.134 202.253C439.286 202.014 439.525 201.852 439.849 201.766C440.02 201.721 440.194 201.725 440.373 201.777C440.564 201.809 440.705 201.871 440.795 201.963C441.072 202.32 441.437 202.546 441.893 202.641C442.348 202.736 442.785 202.728 443.202 202.618C444.672 202.229 445.337 201.772 445.198 201.246C445.161 201.107 445.094 201.009 444.996 200.952C444.91 200.876 444.792 200.807 444.644 200.747C444.406 200.661 444.081 200.59 443.669 200.533C443.272 200.473 442.925 200.44 442.626 200.437C441.955 200.465 441.281 200.42 440.604 200.301C439.973 200.17 439.421 199.927 438.947 199.572C438.468 199.202 438.141 198.684 437.965 198.019C437.859 197.617 437.902 197.184 438.093 196.719C438.296 196.235 438.573 195.84 438.922 195.532C439.171 195.351 439.597 195.114 440.199 194.823C440.8 194.531 441.217 194.355 441.449 194.293C441.805 194.199 442.202 194.136 442.64 194.103C443.074 194.054 443.419 194.079 443.677 194.176C444.16 194.313 444.57 194.486 444.906 194.695C445.239 194.889 445.45 195.156 445.54 195.496C445.585 195.666 445.595 195.862 445.571 196.083C445.543 196.29 445.481 196.43 445.385 196.505C445.181 196.675 444.925 196.8 444.616 196.882C444.476 196.919 444.35 196.911 444.237 196.858C444.139 196.801 443.998 196.706 443.814 196.573C443.574 196.355 443.371 196.243 443.204 196.237C443.006 196.24 442.721 196.258 442.349 196.29C441.973 196.306 441.723 196.331 441.599 196.364C441.212 196.466 440.861 196.642 440.546 196.89C440.247 197.135 440.132 197.389 440.202 197.652C440.283 197.961 440.608 198.157 441.176 198.238C441.542 198.307 441.932 198.344 442.347 198.351C442.778 198.352 443.044 198.357 443.145 198.363C443.374 198.352 443.681 198.387 444.066 198.467C444.467 198.543 444.786 198.624 445.024 198.71Z" fill="white"/>
<path d="M434.16 193.613C433.99 193.658 433.858 193.66 433.765 193.619C433.531 193.548 433.322 193.446 433.138 193.313C432.969 193.175 432.842 192.944 432.756 192.619C432.71 192.383 432.711 192.168 432.759 191.973C432.803 191.763 432.899 191.597 433.049 191.474C433.329 191.218 433.724 191.023 434.234 190.888C434.606 190.79 434.929 190.853 435.203 191.079C435.489 191.284 435.684 191.581 435.786 191.967C435.908 192.431 435.912 193.01 435.797 193.702C435.694 194.375 435.556 194.916 435.383 195.326C435.243 195.611 435.072 195.871 434.869 196.107C434.667 196.343 434.473 196.485 434.287 196.534C433.916 196.632 433.669 196.639 433.548 196.555C433.438 196.452 433.344 196.254 433.266 195.96C433.234 195.836 433.345 195.6 433.6 195.251C433.802 194.949 433.921 194.744 433.959 194.635C434.109 194.264 434.199 193.917 434.23 193.595L434.16 193.613Z" fill="white"/>
<path d="M427.304 200.167C427.079 200.193 426.877 200.148 426.697 200.03C426.532 199.908 426.421 199.738 426.364 199.522C426.335 199.414 426.328 199.291 426.342 199.155C426.371 199.015 426.427 198.884 426.511 198.763C426.659 198.509 427.174 198.265 428.056 198.032C428.02 197.396 427.92 196.769 427.757 196.15C427.695 195.918 427.634 195.719 427.574 195.553C427.514 195.387 427.471 195.257 427.447 195.165C427.357 194.824 427.413 194.536 427.615 194.301C427.833 194.061 428.105 193.898 428.43 193.812C428.832 193.706 429.129 193.735 429.321 193.899C429.529 194.06 429.705 194.41 429.848 194.952C430.061 195.756 430.199 196.563 430.265 197.374C430.512 197.308 430.848 197.203 431.273 197.057C431.853 196.871 432.274 196.743 432.537 196.674C432.8 196.604 433.043 196.615 433.265 196.705C433.499 196.775 433.647 196.927 433.708 197.159C433.867 197.762 433.691 198.189 433.178 198.441C432.642 198.731 431.775 199.051 430.577 199.401C430.69 200.017 430.841 200.68 431.029 201.392C431.323 202.506 431.634 203.4 431.961 204.075C432.185 204.545 432.436 204.868 432.714 205.043C433.003 205.198 433.372 205.216 433.82 205.098C434.083 205.028 434.336 204.887 434.577 204.674C434.734 204.517 434.89 204.418 435.045 204.377C435.261 204.319 435.435 204.348 435.564 204.463C435.709 204.573 435.812 204.745 435.874 204.977C435.988 205.41 435.852 205.835 435.466 206.251C435.075 206.652 434.517 206.949 433.79 207.141C433.341 207.26 432.856 207.272 432.335 207.178C431.829 207.08 431.378 206.91 430.983 206.667C430.925 206.633 430.792 206.477 430.587 206.2C430.381 205.924 430.185 205.62 429.998 205.289C429.652 204.602 429.304 203.602 428.957 202.287C428.805 201.715 428.634 200.941 428.442 199.965L427.304 200.167Z" fill="white"/>
<path d="M418.275 205.88C418.119 205.292 418.072 204.676 418.134 204.031C418.191 203.37 418.332 202.745 418.557 202.156C418.782 201.567 419.24 201.016 419.931 200.502C420.619 199.973 421.264 199.629 421.868 199.469C422.487 199.306 423.135 199.225 423.815 199.228C424.509 199.226 425.027 199.37 425.369 199.661C426.154 200.314 426.649 201.027 426.853 201.801C426.963 202.218 426.965 202.598 426.857 202.941C426.764 203.28 426.601 203.663 426.366 204.089C426.176 204.437 425.808 204.733 425.26 204.977C424.728 205.217 424.183 205.411 423.626 205.558C423.27 205.652 422.829 205.735 422.302 205.809C421.771 205.866 421.252 205.904 420.744 205.923C420.856 206.224 421.013 206.505 421.215 206.766C421.416 207.027 421.623 207.213 421.834 207.323C422.221 207.535 422.587 207.636 422.932 207.628C423.293 207.615 423.736 207.54 424.262 207.401C424.819 207.253 425.313 207.024 425.743 206.711C426.093 206.47 426.392 206.316 426.639 206.251C426.933 206.173 427.182 206.207 427.386 206.351C427.585 206.481 427.722 206.685 427.796 206.963C427.898 207.35 427.757 207.726 427.374 208.092C426.991 208.458 426.522 208.781 425.967 209.06C425.423 209.32 424.973 209.496 424.618 209.59C423.89 209.783 423.152 209.837 422.402 209.754C421.652 209.671 420.989 209.449 420.414 209.088C419.928 208.753 419.497 208.313 419.121 207.766C418.741 207.205 418.459 206.576 418.275 205.88ZM422.505 201.411C422.165 201.501 421.843 201.66 421.539 201.889C421.232 202.103 421 202.355 420.845 202.644C420.644 203.011 420.514 203.302 420.455 203.516C420.407 203.711 420.409 203.967 420.46 204.285C420.879 204.306 421.7 204.156 422.922 203.833C423.587 203.657 424.071 203.421 424.374 203.126C424.692 202.827 424.808 202.515 424.722 202.19C424.636 201.865 424.357 201.624 423.886 201.468C423.414 201.311 422.954 201.292 422.505 201.411Z" fill="white"/>
<path d="M407.168 198.315C407.462 198.238 407.745 198.245 408.018 198.339C408.306 198.428 408.525 198.66 408.673 199.034C409.182 200.207 409.621 201.399 409.99 202.608C410.371 203.799 410.764 205.159 411.169 206.691C411.341 207.341 411.599 208.538 411.945 210.284C412.642 210.166 413.176 210.058 413.547 209.96C413.81 209.89 414.395 209.694 415.303 209.371C415.824 209.151 416.286 208.988 416.688 208.881C417.059 208.783 417.41 208.732 417.739 208.727C418.065 208.707 418.411 208.732 418.777 208.801C419.151 208.901 419.389 209.144 419.491 209.53C419.573 209.84 419.546 210.145 419.41 210.446C419.29 210.742 419.098 210.925 418.835 210.995C418.65 211.044 418.347 211.09 417.929 211.135C417.173 211.219 416.463 211.349 415.798 211.524C415.581 211.582 415.338 211.663 415.067 211.767C414.809 211.852 414.617 211.911 414.494 211.944C414.135 212.088 413.769 212.209 413.398 212.308C412.64 212.508 411.949 212.649 411.326 212.731C411.008 212.782 410.668 212.748 410.306 212.629C409.939 212.494 409.702 212.225 409.596 211.823C409.535 211.591 409.408 210.987 409.217 210.012C408.904 208.39 408.637 207.161 408.416 206.326C408.245 205.676 408.034 205.004 407.784 204.309C407.534 203.614 407.377 203.175 407.312 202.994C406.825 201.716 406.469 200.651 406.245 199.8C406.138 199.398 406.153 199.08 406.29 198.845C406.442 198.606 406.735 198.43 407.168 198.315Z" fill="white"/>
</svg>
